# Blender v2.79 (sub 0) OBJ File: 'Players.blend'
# www.blender.org
mtllib leftLeg.mtl
o WizardLegLeft_Cube.004
v -0.105662 0.060646 -0.112296
v 0.032271 0.060646 -0.153529
v -0.042290 0.006621 0.165609
v 0.098803 0.006502 0.105287
v -0.105662 -0.044755 -0.112296
v 0.032271 -0.044755 -0.153529
v -0.041998 -0.044636 0.165220
v 0.099096 -0.044755 0.104898
v -0.071915 0.066998 0.025280
v 0.088500 0.066998 -0.029962
v -0.071915 -0.044755 0.025280
v 0.088500 -0.044755 -0.029962
vt 0.370129 0.599564
vt 0.370765 0.622867
vt 0.345786 0.618751
vt 0.342201 0.596824
vt 0.398748 0.598911
vt 0.370765 0.601642
vt 0.374054 0.581310
vt 0.399101 0.577170
vt 0.399101 0.597737
vt 0.419729 0.597738
vt 0.419730 0.616612
vt 0.400274 0.616612
vt 0.354892 0.644135
vt 0.334265 0.644135
vt 0.334286 0.622926
vt 0.343747 0.622867
vt 0.364354 0.662430
vt 0.354892 0.662363
vt 0.354892 0.646254
vt 0.364354 0.646321
vt 0.399101 0.656054
vt 0.418557 0.656054
vt 0.418557 0.677929
vt 0.399101 0.677929
vt 0.353720 0.664977
vt 0.334265 0.664977
vt 0.410268 0.577170
vt 0.419730 0.577229
vt 0.399101 0.620433
vt 0.375273 0.621853
vt 0.370765 0.578614
vt 0.346974 0.577170
vn 0.1458 0.9136 0.3796
vn -0.0002 -1.0000 0.0005
vn 0.9102 0.0000 -0.4142
vn -0.9783 -0.0022 0.2073
vn 0.3931 -0.0047 0.9195
vn -0.2864 0.0000 -0.9581
vn -0.9712 0.0000 0.2382
vn 0.9971 0.0020 -0.0767
vn 0.0000 -1.0000 -0.0000
vn -0.0141 0.9989 -0.0437
usemtl Material
s off
f 9/1/1 3/2/1 4/3/1 10/4/1
f 11/5/2 12/6/2 8/7/2 7/8/2
f 10/9/3 12/10/3 6/11/3 2/12/3
f 9/13/4 11/14/4 7/15/4 3/16/4
f 3/17/5 7/18/5 8/19/5 4/20/5
f 2/21/6 6/22/6 5/23/6 1/24/6
f 1/25/7 5/26/7 11/14/7 9/13/7
f 4/27/8 8/28/8 12/10/8 10/9/8
f 5/29/9 6/30/9 12/6/9 11/5/9
f 1/31/10 9/1/10 10/4/10 2/32/10
