# Blender v2.79 (sub 0) OBJ File: 'right_leg.blend'
# www.blender.org
mtllib right_leg.mtl
o Wizard_Plane.002
v -0.025900 0.180088 -0.028675
v 0.030479 0.182060 -0.032116
v -0.030675 0.258805 -0.033730
v 0.036138 0.258402 -0.045179
v 0.081479 0.184933 0.015354
v 0.086727 0.253480 0.036144
v 0.006079 0.195317 0.101120
v 0.016016 0.252129 0.095176
v -0.053306 0.176252 0.050246
v -0.052698 0.260679 0.048949
v -0.021698 0.104166 -0.020089
v 0.023607 0.105644 -0.024380
v 0.067502 0.108808 0.016557
v 0.005567 0.116745 0.094541
v -0.046380 0.100277 0.046017
v -0.021189 -0.009682 -0.008477
v 0.013138 -0.009471 -0.016710
v 0.044018 -0.007022 0.015864
v -0.006123 -0.001142 0.075170
v -0.035408 -0.012192 0.037284
v -0.020799 -0.080602 -0.004466
v 0.009898 -0.080673 -0.014100
v 0.035674 -0.078403 0.015741
v -0.004191 -0.072662 0.069522
v -0.032415 -0.082625 0.034343
v -0.021049 -0.111852 -0.001985
v 0.010197 -0.112662 -0.009089
v 0.031091 -0.113339 0.017168
v 0.001459 -0.117918 0.083237
v -0.024804 -0.127731 0.037703
v 0.009115 -0.156874 0.104361
v -0.047737 -0.170873 0.031116
v 0.041289 -0.155462 0.035180
v 0.027693 -0.152864 -0.019701
v -0.032269 -0.154521 -0.022628
v 0.012292 -0.210719 0.089187
v -0.024887 -0.214345 0.042456
v 0.032736 -0.212778 0.045048
v -0.022250 -0.211525 -0.006281
v 0.035373 -0.209958 -0.003688
v -0.056455 -0.219777 -0.068253
v 0.037202 -0.218210 -0.065660
v -0.075727 -0.220176 -0.171644
v 0.002675 -0.218609 -0.171085
v 0.040442 -0.183089 -0.077313
v -0.074686 -0.184541 -0.069877
v 0.004428 -0.209381 -0.186328
v -0.072538 -0.191875 -0.199856
vt 0.100768 0.561823
vt 0.117498 0.539948
vt 0.101599 0.539838
vt 0.119587 0.561700
vt 0.137078 0.537879
vt 0.010638 0.573719
vt 0.040555 0.557157
vt 0.007969 0.552262
vt 0.062347 0.576851
vt 0.037892 0.573434
vt 0.077003 0.560316
vt 0.131555 0.516944
vt 0.101643 0.518259
vt 0.078550 0.536865
vt 0.114618 0.518178
vt 0.041115 0.535047
vt 0.062972 0.551623
vt 0.123067 0.484799
vt 0.100098 0.485465
vt 0.081908 0.515912
vt 0.044115 0.499301
vt 0.012789 0.529876
vt 0.110296 0.485246
vt 0.061307 0.529050
vt 0.044308 0.475604
vt 0.020569 0.495874
vt 0.108754 0.464471
vt 0.058494 0.495319
vt 0.120097 0.464895
vt 0.099055 0.464500
vt 0.086619 0.484524
vt 0.058937 0.460025
vt 0.059192 0.473693
vt 0.109279 0.453800
vt 0.097995 0.454108
vt 0.087348 0.464974
vt 0.023017 0.464099
vt 0.022526 0.474468
vt 0.043049 0.451984
vt 0.043817 0.460876
vt 0.025583 0.450197
vt 0.120044 0.455065
vt 0.114102 0.439979
vt 0.096868 0.438525
vt 0.084321 0.453212
vt 0.052953 0.404019
vt 0.027194 0.383236
vt 0.028013 0.413869
vt 0.050142 0.426304
vt 0.032531 0.430871
vt 0.037545 0.440837
vt 0.048310 0.440363
vt 0.041579 0.445921
vt 0.062427 0.444457
vt 0.016616 0.413218
vt 0.014870 0.434857
vt 0.071606 0.424841
vt 0.065517 0.400302
vt 0.046449 0.378658
vt 0.024196 0.377938
vt 0.109155 0.388692
vt 0.085081 0.422089
vt 0.118300 0.421354
vt 0.145854 0.555996
vt 0.130179 0.445333
vt 0.079957 0.439557
vt 0.048305 0.366835
vt 0.086455 0.384618
vn -0.5449 0.5544 -0.6291
vn 0.3294 -0.1400 -0.9337
vn -0.6059 -0.0884 -0.7906
vn 0.3106 0.5621 -0.7665
vn 0.9850 -0.1567 -0.0721
vn 0.8238 0.5320 0.1958
vn 0.0281 -0.0360 0.9989
vn -0.7325 0.6339 0.2482
vn 0.1167 0.5940 0.7959
vn 0.9795 -0.1930 -0.0576
vn -0.6076 -0.0895 -0.7891
vn -0.9636 -0.0468 0.2632
vn 0.3319 -0.1187 -0.9358
vn 0.0903 -0.1424 0.9857
vn 0.9893 -0.1412 -0.0355
vn -0.6847 -0.0618 -0.7262
vn -0.9691 -0.0849 0.2315
vn -0.0279 -0.1480 0.9886
vn 0.2920 -0.0874 -0.9524
vn -0.0003 -0.0013 1.0000
vn 0.2656 -0.1037 -0.9585
vn -0.9798 -0.0782 0.1841
vn 0.9930 -0.1116 -0.0398
vn -0.7004 -0.0605 -0.7112
vn -0.9453 0.1689 0.2791
vn -0.9773 -0.0790 0.1965
vn 0.3200 0.1833 -0.9295
vn -0.7655 0.1587 -0.6235
vn 0.9843 0.1642 -0.0654
vn 0.0935 0.1353 0.9864
vn -0.0312 0.3995 0.9162
vn 0.9807 0.1252 0.1500
vn 0.7233 0.4801 -0.4962
vn -0.7523 0.5269 -0.3955
vn -0.5308 -0.7883 0.3110
vn 0.4418 -0.8573 -0.2644
vn 0.6892 -0.7240 -0.0289
vn -0.5394 -0.8380 0.0823
vn 0.7436 -0.6683 0.0197
vn 0.6865 -0.7048 0.1790
vn -0.5756 -0.7799 0.2456
vn 0.1429 -0.6273 0.7655
vn -0.9865 -0.0025 0.1635
vn 0.7814 0.5376 -0.3168
vn -0.8547 0.4566 0.2468
vn -0.6647 -0.6919 -0.2818
vn 0.5765 0.0835 -0.8128
vn -0.4298 0.3838 -0.8173
usemtl wizard
s 1
f 3/1/1 2/2/2 1/3/3
f 4/4/4 5/5/5 2/2/2
f 6/6/6 7/7/7 5/8/5
f 10/9/8 7/7/7 8/10/9
f 1/3/3 10/11/8 3/1/1
f 13/12/10 2/2/2 5/5/5
f 11/13/11 9/14/12 1/3/3
f 12/15/13 1/3/3 2/2/2
f 14/16/14 5/8/5 7/7/7
f 9/17/12 14/16/14 7/7/7
f 18/18/15 12/15/13 13/12/10
f 16/19/16 15/20/17 11/13/11
f 19/21/18 13/22/10 14/16/14
f 17/23/19 11/13/11 12/15/13
f 15/24/17 19/21/18 14/16/14
f 24/25/20 18/26/15 19/21/18
f 22/27/21 16/19/16 17/23/19
f 20/28/22 24/25/20 19/21/18
f 23/29/23 17/23/19 18/18/15
f 21/30/24 20/31/22 16/19/16
f 30/32/25 24/25/20 25/33/26
f 23/29/23 27/34/27 22/27/21
f 26/35/28 25/36/26 21/30/24
f 24/25/20 28/37/29 23/38/23
f 27/34/27 21/30/24 22/27/21
f 30/32/25 31/39/30 29/40/31
f 29/40/31 33/41/32 28/37/29
f 28/42/29 34/43/33 27/34/27
f 27/34/27 35/44/34 26/35/28
f 35/44/34 30/45/25 26/35/28
f 41/46/35 44/47/36 42/48/37
f 39/49/38 42/48/37 40/50/39
f 39/49/38 38/51/40 37/52/41
f 37/52/41 38/51/40 36/53/42
f 36/53/42 33/41/32 31/39/30
f 37/52/41 31/39/30 32/54/43
f 32/54/43 39/49/38 37/52/41
f 40/50/39 33/41/32 38/51/40
f 40/50/39 45/55/44 34/56/33
f 35/57/34 41/46/35 39/49/38
f 44/47/36 45/55/44 42/48/37
f 46/58/45 43/59/46 41/46/35
f 43/59/46 47/60/47 44/47/36
f 47/61/47 46/62/45 45/63/44
f 35/44/34 45/63/44 46/62/45
f 10/9/8 8/10/9 4/4/4
f 3/1/1 4/4/4 2/2/2
f 4/4/4 6/64/6 5/5/5
f 6/6/6 8/10/9 7/7/7
f 10/9/8 9/17/12 7/7/7
f 1/3/3 9/14/12 10/11/8
f 13/12/10 12/15/13 2/2/2
f 11/13/11 15/20/17 9/14/12
f 12/15/13 11/13/11 1/3/3
f 14/16/14 13/22/10 5/8/5
f 9/17/12 15/24/17 14/16/14
f 18/18/15 17/23/19 12/15/13
f 16/19/16 20/31/22 15/20/17
f 19/21/18 18/26/15 13/22/10
f 17/23/19 16/19/16 11/13/11
f 15/24/17 20/28/22 19/21/18
f 24/25/20 23/38/23 18/26/15
f 22/27/21 21/30/24 16/19/16
f 20/28/22 25/33/26 24/25/20
f 23/29/23 22/27/21 17/23/19
f 21/30/24 25/36/26 20/31/22
f 30/32/25 29/40/31 24/25/20
f 23/29/23 28/42/29 27/34/27
f 26/35/28 30/45/25 25/36/26
f 24/25/20 29/40/31 28/37/29
f 27/34/27 26/35/28 21/30/24
f 30/32/25 32/54/43 31/39/30
f 29/40/31 31/39/30 33/41/32
f 28/42/29 33/65/32 34/43/33
f 27/34/27 34/43/33 35/44/34
f 35/44/34 32/66/43 30/45/25
f 41/46/35 43/59/46 44/47/36
f 39/49/38 41/46/35 42/48/37
f 39/49/38 40/50/39 38/51/40
f 36/53/42 38/51/40 33/41/32
f 37/52/41 36/53/42 31/39/30
f 32/54/43 35/57/34 39/49/38
f 40/50/39 34/56/33 33/41/32
f 40/50/39 42/48/37 45/55/44
f 35/57/34 46/58/45 41/46/35
f 44/47/36 47/60/47 45/55/44
f 46/58/45 48/67/48 43/59/46
f 43/59/46 48/67/48 47/60/47
f 47/61/47 48/68/48 46/62/45
f 35/44/34 34/43/33 45/63/44
f 6/64/6 4/4/4 8/10/9
f 3/1/1 10/9/8 4/4/4
