# Blender v2.79 (sub 0) OBJ File: 'staff.blend'
# www.blender.org
mtllib staff.mtl
o Wizard_Plane.002
v -0.000136 -1.078988 0.014678
v 0.012729 -1.078988 0.007251
v 0.012729 -1.078988 -0.007604
v -0.000136 -1.078988 -0.015032
v -0.013001 -1.078988 -0.007604
v -0.013001 -1.078988 0.007251
v -0.000136 0.477334 0.032913
v 0.028520 0.477334 0.016368
v 0.028520 0.477334 -0.016722
v -0.000136 0.477334 -0.033266
v -0.028793 0.477334 -0.016722
v -0.028793 0.477334 0.016368
v 0.000392 0.479136 0.051430
v 0.048820 0.479136 0.016245
v 0.030322 0.479136 -0.040686
v -0.029538 0.479136 -0.040686
v -0.048036 0.479136 0.016245
v 0.000392 0.602990 0.080087
v 0.076074 0.602990 0.025101
v 0.047166 0.602990 -0.063870
v -0.046383 0.602990 -0.063870
v -0.075291 0.602990 0.025101
v 0.000392 0.457734 0.000510
v 0.000392 0.680967 0.000510
vt 0.240329 0.266634
vt 0.192333 0.084312
vt 0.182531 0.087586
vt 0.285540 0.383375
vt 0.246499 0.235076
vt 0.238527 0.237739
vt 0.282143 0.379565
vt 0.248730 0.252643
vt 0.241908 0.254922
vt 0.230359 0.254006
vt 0.186736 0.088291
vt 0.177827 0.091266
vt 0.273452 0.383146
vt 0.238882 0.251829
vt 0.231823 0.254187
vt 0.187800 0.083947
vt 0.253489 0.248842
vt 0.197031 0.080863
vt 0.237224 0.099342
vt 0.226528 0.099342
vt 0.226528 0.117868
vt 0.556602 0.293156
vt 0.568515 0.313789
vt 0.604254 0.293156
vt 0.440597 0.518378
vt 0.435676 0.452779
vt 0.413976 0.468326
vt 0.500847 0.461730
vt 0.463354 0.407677
vt 0.452530 0.432078
vt 0.388955 0.477628
vt 0.362369 0.480031
vt 0.401494 0.532914
vt 0.552013 0.436591
vt 0.564658 0.402106
vt 0.528028 0.404822
vt 0.598924 0.388880
vt 0.590848 0.427858
vt 0.547065 0.369864
vt 0.586764 0.372773
vt 0.664021 0.356732
vt 0.601874 0.370782
vt 0.652820 0.409046
vt 0.541387 0.350756
vt 0.577970 0.311720
vt 0.631406 0.314324
vt 0.605701 0.434383
vt 0.252268 0.262646
vt 0.295252 0.380132
vt 0.290454 0.376789
vt 0.241210 0.250381
vt 0.282051 0.380273
vt 0.242243 0.252599
vt 0.237224 0.117868
vt 0.242572 0.108605
vt 0.221180 0.108605
vt 0.592341 0.272522
vt 0.568515 0.272522
vt 0.592341 0.313789
vt 0.474508 0.494081
vt 0.517764 0.423596
vt 0.359946 0.536669
vn -0.9999 -0.0101 0.0000
vn 0.5000 -0.0101 -0.8660
vn 0.5000 -0.0101 0.8660
vn -0.5000 -0.0101 0.8660
vn -0.5000 -0.0101 -0.8660
vn 0.9999 -0.0101 0.0000
vn 0.0000 -1.0000 0.0000
vn 0.0000 1.0000 0.0000
vn -0.5778 -0.1840 0.7952
vn 0.0000 -0.1840 -0.9829
vn 0.5778 -0.1840 0.7952
vn -0.9348 -0.1840 -0.3037
vn 0.9348 -0.1840 -0.3037
vn -0.2710 -0.8874 0.3730
vn 0.0000 -0.8874 -0.4610
vn 0.2710 -0.8874 0.3730
vn -0.4385 -0.8874 -0.1425
vn 0.4385 -0.8874 -0.1425
vn -0.7334 0.6367 -0.2383
vn 0.7334 0.6367 -0.2383
vn -0.4533 0.6367 0.6239
vn -0.0000 0.6367 -0.7711
vn 0.4533 0.6367 0.6239
vn -0.5777 -0.1840 0.7952
usemtl wizard
s off
f 12/1/1 5/2/1 6/3/1
f 10/4/2 3/5/2 4/6/2
f 8/7/3 1/8/3 2/9/3
f 7/10/4 6/11/4 1/12/4
f 11/13/5 4/14/5 5/15/5
f 3/16/6 8/17/6 2/18/6
f 6/19/7 5/20/7 3/21/7
f 10/22/8 11/23/8 7/24/8
f 18/25/9 17/26/9 13/27/9
f 21/28/10 15/29/10 16/30/10
f 14/31/11 18/25/11 13/27/11
f 17/26/12 21/28/12 16/30/12
f 15/32/13 19/33/13 14/31/13
f 17/34/14 23/35/14 13/36/14
f 15/37/15 23/35/15 16/38/15
f 13/36/16 23/35/16 14/39/16
f 16/38/17 23/35/17 17/34/17
f 14/39/18 23/35/18 15/40/18
f 22/41/19 24/42/19 21/43/19
f 20/44/20 24/42/20 19/45/20
f 18/46/21 24/42/21 22/41/21
f 21/43/22 24/42/22 20/47/22
f 19/45/23 24/42/23 18/46/23
f 12/1/1 11/48/1 5/2/1
f 10/4/2 9/49/2 3/5/2
f 8/7/3 7/50/3 1/8/3
f 7/10/4 12/51/4 6/11/4
f 11/13/5 10/52/5 4/14/5
f 3/16/6 9/53/6 8/17/6
f 3/21/7 2/54/7 1/55/7
f 1/55/7 6/19/7 3/21/7
f 5/20/7 4/56/7 3/21/7
f 7/24/8 8/57/8 9/58/8
f 9/58/8 10/22/8 7/24/8
f 11/23/8 12/59/8 7/24/8
f 18/25/24 22/60/24 17/26/24
f 21/28/10 20/61/10 15/29/10
f 14/31/11 19/33/11 18/25/11
f 17/26/12 22/60/12 21/28/12
f 15/32/13 20/62/13 19/33/13
