# Blender v2.79 (sub 0) OBJ File: 'banner.blend'
# www.blender.org
mtllib banner.mtl
o Estandarte_Cube.006
v 1.515397 -0.046396 0.034697
v 1.515397 0.222455 0.303547
v 1.515397 0.222455 -0.234154
v 1.515397 0.491305 0.034697
v 1.702444 0.151360 0.034697
v 1.702444 0.222455 0.105791
v 1.702444 0.222455 -0.036398
v 1.702444 0.293549 0.034697
v 1.734291 0.001553 0.034697
v 1.734291 0.222455 0.172671
v 1.734291 0.222455 -0.103278
v 1.734291 0.443356 0.034697
v 1.796517 0.049026 0.034697
v 1.796517 0.222455 0.143020
v 1.796517 0.222455 -0.073627
v 1.796517 0.395884 0.034697
v 1.832907 0.107802 0.034697
v 1.832907 0.222455 0.106309
v 1.832907 0.222455 -0.036915
v 1.832907 0.337107 0.034697
v 1.869501 0.176684 0.034697
v 1.869501 0.222455 0.063285
v 1.869501 0.222455 0.006109
v 1.869501 0.268225 0.034697
v 1.880131 0.222455 0.034697
v 1.424492 -3.627370 0.595909
v 1.424492 0.208140 -0.310213
v 1.424492 -2.858731 0.561385
v 1.424492 0.253773 0.332394
v 1.424492 0.512940 0.034747
v 1.424492 -0.105665 0.065085
v 1.424492 -0.105665 0.065085
v 1.424492 0.182128 0.284681
v 1.558843 0.222455 0.104014
v 1.558843 0.291772 0.034697
v 1.558843 0.222455 -0.034621
v 1.558843 0.153137 0.034697
v 1.600052 0.222455 0.104524
v 1.600052 0.152627 0.034697
v 1.600052 0.292282 0.034697
v 1.600052 0.222455 -0.035131
v 1.651248 0.222455 0.105157
v 1.651248 0.151994 0.034697
v 1.651248 0.292915 0.034697
v 1.651248 0.222455 -0.035764
v 1.600052 0.152627 -0.609415
v 1.600052 0.292282 -0.609415
v 1.600052 0.222455 -0.679242
v 1.651248 0.151994 -0.609415
v 1.651248 0.292915 -0.609415
v 1.651248 0.222455 -0.679876
v 0.000000 -0.046396 0.034697
v 0.000000 0.222455 0.303547
v 0.000000 0.222455 -0.234154
v 0.000000 0.491305 0.034697
v -1.515396 -0.046396 0.034697
v -1.515396 0.222455 0.303547
v -1.515396 0.222455 -0.234154
v -1.515396 0.491305 0.034697
v -1.702444 0.151360 0.034697
v -1.702444 0.222455 0.105791
v -1.702444 0.222455 -0.036398
v -1.702444 0.293549 0.034697
v -1.734290 0.001553 0.034697
v -1.734290 0.222455 0.172671
v -1.734290 0.222455 -0.103278
v -1.734290 0.443356 0.034697
v -1.796517 0.049026 0.034697
v -1.796517 0.222455 0.143020
v -1.796517 0.222455 -0.073627
v -1.796517 0.395884 0.034697
v -1.832907 0.107802 0.034697
v -1.832907 0.222455 0.106309
v -1.832907 0.222455 -0.036915
v -1.832907 0.337107 0.034697
v -1.869501 0.176684 0.034697
v -1.869501 0.222455 0.063285
v -1.869501 0.222455 0.006109
v -1.869501 0.268225 0.034697
v -1.880131 0.222455 0.034697
v 0.000000 0.208140 -0.310213
v -1.424492 -3.627370 0.595909
v 0.000000 -5.413220 0.595909
v -1.424492 0.208140 -0.310213
v -1.424492 -2.858731 0.561385
v -1.424492 0.253773 0.332394
v -1.424492 0.512940 0.034747
v 0.000000 0.512940 0.034747
v 0.000000 0.253773 0.332394
v 0.000000 -4.472450 0.561385
v 0.000000 -0.105665 0.065085
v -1.424492 -0.105665 0.065085
v 0.000000 -0.105665 0.065085
v -1.424492 -0.105665 0.065085
v 0.000000 0.182128 0.284681
v -1.424492 0.182128 0.284681
v -1.558843 0.222455 0.104014
v -1.558843 0.291772 0.034697
v -1.558843 0.222455 -0.034621
v -1.558843 0.153137 0.034697
v -1.600052 0.222455 0.104524
v -1.600052 0.152627 0.034697
v -1.600052 0.292282 0.034697
v -1.600052 0.222455 -0.035131
v -1.651248 0.222455 0.105157
v -1.651248 0.151994 0.034697
v -1.651248 0.292915 0.034697
v -1.651248 0.222455 -0.035764
v -1.600052 0.152627 -0.609415
v -1.600052 0.292282 -0.609415
v -1.600052 0.222455 -0.679242
v -1.651248 0.151994 -0.609415
v -1.651248 0.292915 -0.609415
v -1.651248 0.222455 -0.679876
vt 0.560886 0.639630
vt 0.753363 0.788867
vt 0.529927 0.717538
vt 0.850667 0.783630
vt 0.835969 0.795020
vt 0.841755 0.785017
vt 0.745302 0.880453
vt 0.508602 0.799089
vt 0.736885 0.830205
vt 0.506272 0.972508
vt 0.815607 0.936701
vt 0.874320 0.797997
vt 0.816097 0.826882
vt 0.839965 0.775799
vt 0.830146 0.770312
vt 0.849218 0.775044
vt 0.860392 0.789260
vt 0.854964 0.765270
vt 0.819088 0.383945
vt 0.866144 0.385978
vt 0.833484 0.395439
vt 0.816097 0.761346
vt 0.875049 0.733834
vt 0.839165 0.419769
vt 0.831490 0.429383
vt 0.878546 0.431416
vt 0.878546 0.370444
vt 0.819088 0.444917
vt 0.864150 0.419922
vt 0.857058 0.414260
vt 0.845648 0.411650
vt 0.851250 0.409623
vt 0.858468 0.395592
vt 0.840575 0.401100
vt 0.846384 0.405738
vt 0.851986 0.403711
vt 0.848817 0.407680
vt 0.999688 0.069393
vt 0.750988 0.149450
vt 0.750988 0.069143
vt 0.501730 0.313967
vt 0.251002 0.165743
vt 0.251019 0.000245
vt 0.501704 0.449202
vt 0.250920 0.997486
vt 0.999755 0.000472
vt 0.750988 0.000245
vt 0.999591 0.149780
vt 0.750988 0.234709
vt 0.999470 0.239518
vt 0.750988 0.239045
vt 0.750988 0.302179
vt 0.772422 0.836296
vt 0.783392 0.858591
vt 0.815607 0.758732
vt 0.776317 0.813708
vt 0.809738 0.869919
vt 0.845003 0.779429
vt 0.846913 0.778270
vt 0.846175 0.779426
vt 0.847214 0.781267
vt 0.846205 0.780622
vt 0.845054 0.780569
vt 0.843767 0.778738
vt 0.844338 0.781469
vt 0.828486 0.839762
vt 0.929318 0.827412
vt 0.941698 0.839801
vt 0.929309 0.852181
vt 0.816097 0.852142
vt 0.932310 0.530124
vt 0.949813 0.538990
vt 0.932300 0.539123
vt 0.946676 0.937136
vt 0.929309 0.928005
vt 0.946823 0.928138
vt 0.828371 0.890205
vt 0.929309 0.877931
vt 0.941582 0.890205
vt 0.929309 0.902478
vt 0.816097 0.902478
vt 0.816097 0.928137
vt 0.929320 0.937004
vt 0.816108 0.937136
vt 0.819098 0.529992
vt 0.819088 0.538992
vt 0.885915 0.369953
vt 0.819088 0.303126
vt 0.885915 0.303126
vt 0.575271 0.437656
vt 0.778300 0.303126
vt 0.803387 0.383118
vt 0.854479 0.701257
vt 0.839912 0.689701
vt 0.848807 0.691189
vt 0.818597 0.466027
vt 0.576509 0.529588
vt 0.588634 0.480104
vt 0.808042 0.639140
vt 0.502221 0.580459
vt 0.816097 0.703798
vt 0.830123 0.695220
vt 0.850702 0.681992
vt 0.841458 0.681132
vt 0.860583 0.676617
vt 0.878546 0.506380
vt 0.866144 0.460942
vt 0.878546 0.445407
vt 0.874732 0.667811
vt 0.835824 0.671293
vt 0.839165 0.494733
vt 0.864150 0.494886
vt 0.831490 0.504346
vt 0.819088 0.458908
vt 0.819088 0.519880
vt 0.840575 0.476064
vt 0.845648 0.486613
vt 0.833484 0.470402
vt 0.858468 0.470555
vt 0.851250 0.484586
vt 0.848817 0.482644
vt 0.851986 0.478675
vt 0.857058 0.489224
vt 0.846384 0.480702
vt 0.502287 0.069393
vt 0.000245 0.313918
vt 0.000245 0.449153
vt 0.502221 0.000472
vt 0.502384 0.149780
vt 0.502506 0.239518
vt 0.502535 0.235205
vt 0.552742 0.483539
vt 0.540147 0.504957
vt 0.550535 0.460724
vt 0.515437 0.402982
vt 0.513032 0.514298
vt 0.843726 0.684384
vt 0.845623 0.685564
vt 0.844451 0.685548
vt 0.843391 0.687378
vt 0.844408 0.686744
vt 0.846234 0.687542
vt 0.845559 0.686704
vt 0.846265 0.687611
vt 0.845533 0.686712
vt 0.828482 0.865056
vt 0.929309 0.877441
vt 0.816097 0.877441
vt 0.929309 0.852672
vt 0.816097 0.852672
vt 0.929309 0.937627
vt 0.946676 0.946758
vt 0.929320 0.946626
vt 0.949666 0.520371
vt 0.932299 0.529502
vt 0.932310 0.520503
vt 0.828371 0.915241
vt 0.929309 0.927515
vt 0.816097 0.927515
vt 0.929309 0.902968
vt 0.816097 0.902968
vt 0.819088 0.529370
vt 0.819098 0.520371
vt 0.816108 0.946758
vt 0.816097 0.937759
vt 0.502221 0.884782
vt 0.501267 0.997686
vt 0.999441 0.235205
vt 0.999354 0.302635
vt 0.798054 0.804590
vt 0.844369 0.781399
vt 0.816106 0.827373
vt 0.949666 0.529992
vt 0.816097 0.877931
vt 0.819088 0.369953
vt 0.818597 0.551957
vt 0.873987 0.733343
vt 0.816097 0.639630
vt 0.000574 0.997636
vt 0.502621 0.302635
vt 0.529536 0.450017
vt 0.846867 0.684887
vt 0.941694 0.865056
vt 0.946823 0.937760
vt 0.949813 0.529369
vt 0.941582 0.915241
vn 0.0000 0.7071 -0.7071
vn -0.0088 0.7071 0.7071
vn 0.0000 -0.7071 0.7071
vn 0.0000 -0.7071 -0.7071
vn 0.0000 0.7071 0.7071
vn -0.9281 0.1973 0.3159
vn -0.0088 0.7071 -0.7071
vn -0.0088 -0.7071 0.7071
vn -0.0087 -0.7071 -0.7071
vn 0.3747 -0.4912 0.7864
vn -0.8295 0.3950 -0.3950
vn -0.8295 -0.3950 0.3950
vn -0.9281 -0.1973 -0.3159
vn 0.6501 0.4025 0.6444
vn 0.3747 -0.4912 -0.7864
vn 0.3747 0.4912 0.7864
vn 0.3747 0.4912 -0.7864
vn 0.7061 0.3751 -0.6006
vn 0.6501 0.4025 -0.6444
vn 0.6501 -0.4025 0.6444
vn 0.6501 -0.4025 -0.6444
vn 0.9159 -0.2127 0.3405
vn 0.7061 -0.3751 0.6006
vn 0.7061 -0.3751 -0.6006
vn 0.7061 0.3751 0.6006
vn 0.9159 -0.2127 -0.3405
vn 0.9159 0.2127 0.3405
vn 0.9159 0.2127 -0.3405
vn -0.0000 0.7494 -0.6621
vn -0.0459 0.0366 0.9983
vn -0.0547 0.0483 0.9973
vn 0.0000 0.7542 0.6567
vn 0.0000 -0.7672 -0.6415
vn 0.0000 0.0000 1.0000
vn 0.0000 -0.6066 0.7950
vn 0.9557 -0.2081 -0.2081
vn 0.9557 -0.2081 0.2081
vn 0.9557 0.2081 -0.2081
vn 0.9557 0.2081 0.2081
vn -0.0087 0.7071 0.7071
vn 1.0000 0.0000 0.0000
vn -0.0087 -0.7071 0.7071
vn -0.0088 -0.7071 -0.7071
vn -1.0000 -0.0000 0.0000
vn -0.0124 0.9999 0.0000
vn -0.0124 -0.9999 0.0000
vn 0.0088 0.7071 0.7071
vn 0.8295 0.3950 0.3950
vn 0.0087 0.7071 -0.7071
vn 0.0088 -0.7071 0.7071
vn 0.0088 -0.7071 -0.7071
vn -0.3747 -0.4912 0.7864
vn 0.8295 0.3950 -0.3950
vn 0.8295 -0.3950 0.3950
vn 0.8295 -0.3950 -0.3950
vn -0.6501 0.4025 0.6444
vn -0.3747 -0.4912 -0.7864
vn -0.3747 0.4912 0.7864
vn -0.3747 0.4912 -0.7864
vn -0.7061 0.3751 -0.6006
vn -0.6501 0.4025 -0.6444
vn -0.6501 -0.4025 0.6444
vn -0.6501 -0.4025 -0.6444
vn -0.9159 -0.2127 0.3405
vn -0.7061 -0.3751 0.6006
vn -0.7061 -0.3751 -0.6006
vn -0.7061 0.3751 0.6006
vn -0.9159 -0.2127 -0.3405
vn -0.9159 0.2127 0.3405
vn -0.9159 0.2127 -0.3405
vn 0.0459 0.0366 0.9983
vn 0.0547 0.0483 0.9973
vn -0.9557 -0.2081 -0.2081
vn -0.9557 -0.2081 0.2081
vn -0.9557 0.2081 -0.2081
vn -0.9557 0.2081 0.2081
vn 0.0087 -0.7071 -0.7071
vn 0.0087 0.7071 0.7071
vn 0.0087 -0.7071 0.7071
vn 0.0124 0.9999 0.0000
vn 0.0124 -0.9999 0.0000
vn -0.8295 0.3950 0.3950
vn -0.0087 0.7071 -0.7071
vn -0.9281 0.1973 -0.3159
vn -0.9281 -0.1973 0.3159
vn -0.8295 -0.3950 -0.3950
vn -0.0508 0.0448 0.9977
vn 0.0000 0.0734 0.9973
vn 0.9281 0.1973 0.3159
vn 0.0088 0.7071 -0.7071
vn 0.9281 0.1973 -0.3159
vn 0.9281 -0.1973 0.3159
vn 0.9281 -0.1973 -0.3159
vn 0.0508 0.0448 0.9977
usemtl Material.001
s off
f 55/1/1 3/2/1 54/3/1
f 42/4/2 8/5/2 44/6/2
f 2/7/3 52/8/3 1/9/3
f 3/2/4 52/8/4 54/3/4
f 55/10/5 2/7/5 4/11/5
f 8/5/6 10/12/6 12/13/6
f 45/14/7 8/5/7 7/15/7
f 43/16/8 6/17/8 42/4/8
f 45/14/9 5/18/9 43/16/9
f 10/19/10 13/20/10 14/21/10
f 8/5/11 11/22/11 7/15/11
f 5/18/12 10/12/12 6/17/12
f 5/18/13 11/22/13 9/23/13
f 14/21/14 20/24/14 16/25/14
f 11/26/15 13/20/15 9/27/15
f 10/19/16 16/25/16 12/28/16
f 11/26/17 16/25/17 15/29/17
f 19/30/18 24/31/18 23/32/18
f 15/29/19 20/24/19 19/30/19
f 14/21/20 17/33/20 18/34/20
f 15/29/21 17/33/21 13/20/21
f 22/35/22 21/36/22 25/37/22
f 18/34/23 21/36/23 22/35/23
f 19/30/24 21/36/24 17/33/24
f 18/34/25 24/31/25 20/24/25
f 21/36/26 23/32/26 25/37/26
f 24/31/27 22/35/27 25/37/27
f 23/32/28 24/31/28 25/37/28
f 30/38/29 81/39/29 88/40/29
f 26/41/30 90/42/30 83/43/30
f 28/44/31 89/45/31 90/42/31
f 29/46/32 88/40/32 89/47/32
f 27/48/33 91/49/33 81/39/33
f 91/49/34 32/50/34 93/51/34
f 32/50/35 95/52/35 93/51/35
f 3/2/36 37/53/36 1/9/36
f 2/7/37 37/53/37 34/54/37
f 4/55/38 36/56/38 3/2/38
f 2/7/39 35/57/39 4/11/39
f 36/58/9 39/59/9 37/60/9
f 37/60/8 38/61/8 34/62/8
f 35/63/7 41/64/7 36/58/7
f 34/62/40 40/65/40 35/63/40
f 45/66/41 49/67/41 51/68/41
f 39/59/42 42/4/42 38/61/42
f 45/66/41 50/69/41 44/70/41
f 38/61/2 44/6/2 40/65/2
f 46/71/43 51/72/43 49/73/43
f 48/74/7 50/75/7 51/76/7
f 41/77/44 47/78/44 48/79/44
f 41/77/44 46/80/44 39/81/44
f 44/82/45 47/83/45 40/84/45
f 39/85/46 49/73/46 43/86/46
f 54/87/41 53/88/41 52/89/41
f 58/90/1 55/91/1 54/92/1
f 63/93/47 105/94/47 107/95/47
f 52/96/3 57/97/3 56/98/3
f 52/96/4 58/90/4 54/92/4
f 57/97/5 55/99/5 59/100/5
f 63/93/48 65/101/48 61/102/48
f 108/103/49 63/93/49 107/95/49
f 61/102/50 106/104/50 105/94/50
f 106/104/51 62/105/51 108/103/51
f 65/106/52 68/107/52 64/108/52
f 66/109/53 63/93/53 62/105/53
f 65/101/54 60/110/54 61/102/54
f 60/110/55 66/109/55 62/105/55
f 75/111/56 69/112/56 71/113/56
f 68/107/57 66/114/57 64/108/57
f 71/113/58 65/106/58 67/115/58
f 66/114/59 71/113/59 67/115/59
f 74/116/60 79/117/60 75/111/60
f 70/118/61 75/111/61 71/113/61
f 69/112/62 72/119/62 68/107/62
f 72/119/63 70/118/63 68/107/63
f 77/120/64 80/121/64 76/122/64
f 73/123/65 76/122/65 72/119/65
f 76/122/66 74/116/66 72/119/66
f 79/117/67 73/123/67 75/111/67
f 76/122/68 80/121/68 78/124/68
f 79/117/69 80/121/69 77/120/69
f 78/124/70 80/121/70 79/117/70
f 81/39/29 87/125/29 88/40/29
f 90/42/71 82/126/71 83/43/71
f 89/45/72 85/127/72 90/42/72
f 88/40/32 86/128/32 89/47/32
f 91/49/33 84/129/33 81/39/33
f 91/49/34 94/130/34 92/131/34
f 95/52/35 94/130/35 93/51/35
f 100/132/73 58/90/73 56/98/73
f 97/133/74 56/98/74 57/97/74
f 99/134/75 59/135/75 58/90/75
f 98/136/76 57/97/76 59/100/76
f 102/137/77 99/138/77 100/139/77
f 101/140/50 100/139/50 97/141/50
f 99/138/49 103/142/49 98/143/49
f 103/144/78 97/141/78 98/145/78
f 108/146/44 112/147/44 106/148/44
f 105/94/79 102/137/79 101/140/79
f 113/149/44 108/146/44 107/150/44
f 107/95/47 101/140/47 103/144/47
f 112/151/51 111/152/51 109/153/51
f 111/154/49 113/155/49 110/156/49
f 104/157/41 110/158/41 103/159/41
f 109/160/41 104/157/41 102/161/41
f 110/156/80 107/162/80 103/163/80
f 112/151/81 102/164/81 106/165/81
f 55/1/1 4/55/1 3/2/1
f 42/4/40 6/17/40 8/5/40
f 2/7/3 53/166/3 52/8/3
f 3/2/4 1/9/4 52/8/4
f 55/10/5 53/166/5 2/7/5
f 8/5/82 6/17/82 10/12/82
f 45/14/83 44/6/83 8/5/83
f 43/16/42 5/18/42 6/17/42
f 45/14/43 7/15/43 5/18/43
f 10/19/10 9/27/10 13/20/10
f 8/5/84 12/13/84 11/22/84
f 5/18/85 9/23/85 10/12/85
f 5/18/86 7/15/86 11/22/86
f 14/21/14 18/34/14 20/24/14
f 11/26/15 15/29/15 13/20/15
f 10/19/16 14/21/16 16/25/16
f 11/26/17 12/28/17 16/25/17
f 19/30/18 20/24/18 24/31/18
f 15/29/19 16/25/19 20/24/19
f 14/21/20 13/20/20 17/33/20
f 15/29/21 19/30/21 17/33/21
f 18/34/23 17/33/23 21/36/23
f 19/30/24 23/32/24 21/36/24
f 18/34/25 22/35/25 24/31/25
f 30/38/29 27/48/29 81/39/29
f 26/41/87 28/44/87 90/42/87
f 28/44/88 29/167/88 89/45/88
f 29/46/32 30/38/32 88/40/32
f 27/48/33 31/168/33 91/49/33
f 91/49/34 31/168/34 32/50/34
f 32/50/35 33/169/35 95/52/35
f 3/2/36 36/56/36 37/53/36
f 2/7/37 1/9/37 37/53/37
f 4/55/38 35/170/38 36/56/38
f 2/7/39 34/54/39 35/57/39
f 36/58/9 41/64/9 39/59/9
f 37/60/42 39/59/42 38/61/42
f 35/63/83 40/171/83 41/64/83
f 34/62/2 38/61/2 40/65/2
f 45/66/41 43/172/41 49/67/41
f 39/59/8 43/16/8 42/4/8
f 45/66/41 51/68/41 50/69/41
f 38/61/40 42/4/40 44/6/40
f 46/71/43 48/173/43 51/72/43
f 48/74/83 47/83/83 50/75/83
f 41/77/44 40/174/44 47/78/44
f 41/77/44 48/79/44 46/80/44
f 44/82/45 50/75/45 47/83/45
f 39/85/46 46/71/46 49/73/46
f 54/87/41 55/175/41 53/88/41
f 58/90/1 59/135/1 55/91/1
f 63/93/78 61/102/78 105/94/78
f 52/96/3 53/176/3 57/97/3
f 52/96/4 56/98/4 58/90/4
f 57/97/5 53/176/5 55/99/5
f 63/93/89 67/177/89 65/101/89
f 108/103/90 62/105/90 63/93/90
f 61/102/79 60/110/79 106/104/79
f 106/104/77 60/110/77 62/105/77
f 65/106/52 69/112/52 68/107/52
f 66/109/91 67/177/91 63/93/91
f 65/101/92 64/178/92 60/110/92
f 60/110/93 64/178/93 66/109/93
f 75/111/56 73/123/56 69/112/56
f 68/107/57 70/118/57 66/114/57
f 71/113/58 69/112/58 65/106/58
f 66/114/59 70/118/59 71/113/59
f 74/116/60 78/124/60 79/117/60
f 70/118/61 74/116/61 75/111/61
f 69/112/62 73/123/62 72/119/62
f 72/119/63 74/116/63 70/118/63
f 73/123/65 77/120/65 76/122/65
f 76/122/66 78/124/66 74/116/66
f 79/117/67 77/120/67 73/123/67
f 81/39/29 84/129/29 87/125/29
f 90/42/94 85/127/94 82/126/94
f 89/45/88 86/179/88 85/127/88
f 88/40/32 87/125/32 86/128/32
f 91/49/33 92/131/33 84/129/33
f 91/49/34 93/51/34 94/130/34
f 95/52/35 96/180/35 94/130/35
f 100/132/73 99/134/73 58/90/73
f 97/133/74 100/132/74 56/98/74
f 99/134/75 98/181/75 59/135/75
f 98/136/76 97/133/76 57/97/76
f 102/137/51 104/182/51 99/138/51
f 101/140/79 102/137/79 100/139/79
f 99/138/90 104/182/90 103/142/90
f 103/144/47 101/140/47 97/141/47
f 108/146/44 114/183/44 112/147/44
f 105/94/50 106/104/50 102/137/50
f 113/149/44 114/183/44 108/146/44
f 107/95/78 105/94/78 101/140/78
f 112/151/51 114/184/51 111/152/51
f 111/154/90 114/185/90 113/155/90
f 104/157/41 111/186/41 110/158/41
f 109/160/41 111/186/41 104/157/41
f 110/156/80 113/155/80 107/162/80
f 112/151/81 109/153/81 102/164/81
