# Blender v2.79 (sub 0) OBJ File: 'barrel.blend'
# www.blender.org
mtllib barrel.mtl
o Barril_Circle.006
v -0.000000 0.698660 0.486190
v 0.421053 0.698660 0.243095
v 0.421053 0.698660 -0.243095
v -0.000000 0.698660 -0.486190
v -0.421053 0.698660 -0.243095
v -0.421053 0.698660 0.243095
v -0.000000 0.573664 0.515792
v 0.446689 0.573664 0.257896
v 0.446689 0.573664 -0.257896
v -0.000000 0.573664 -0.515792
v -0.446689 0.573664 -0.257896
v -0.446689 0.573664 0.257896
v -0.000000 0.355930 0.565127
v 0.489414 0.355930 0.282563
v 0.489414 0.355930 -0.282564
v -0.000000 0.355930 -0.565127
v -0.489414 0.355930 -0.282563
v -0.489414 0.355930 0.282563
v -0.000000 0.089811 0.601852
v 0.521219 0.089811 0.300926
v 0.521219 0.089811 -0.300926
v -0.000000 0.089811 -0.601852
v -0.521219 0.089811 -0.300926
v -0.521219 0.089811 0.300926
v -0.000000 -0.176308 0.601852
v 0.521219 -0.176308 0.300926
v 0.521219 -0.176308 -0.300926
v -0.000000 -0.176308 -0.601852
v -0.521219 -0.176308 -0.300926
v -0.521219 -0.176308 0.300926
v -0.000000 -0.377913 0.579845
v 0.502161 -0.377913 0.289923
v 0.502161 -0.377913 -0.289923
v -0.000000 -0.377913 -0.579845
v -0.502161 -0.377913 -0.289923
v -0.502161 -0.377913 0.289923
v -0.000000 -0.531133 0.552413
v 0.478403 -0.531133 0.276206
v 0.478403 -0.531133 -0.276206
v -0.000000 -0.531133 -0.552413
v -0.478403 -0.531133 -0.276206
v -0.478403 -0.531133 0.276206
v -0.000000 -0.676289 0.501364
v 0.434194 -0.676289 0.250682
v 0.434194 -0.676289 -0.250682
v -0.000000 -0.676289 -0.501364
v -0.434194 -0.676289 -0.250682
v -0.434194 -0.676289 0.250682
v 0.485419 0.573664 0.280257
v -0.000000 0.573664 0.560514
v 0.485419 0.573664 -0.280257
v -0.000000 0.573664 -0.560514
v -0.485419 0.573664 -0.280257
v -0.485419 0.573664 0.280257
v 0.531849 0.355930 0.307063
v -0.000000 0.355930 0.614126
v 0.531849 0.355930 -0.307063
v -0.000000 0.355930 -0.614126
v -0.531849 0.355930 -0.307063
v -0.531849 0.355930 0.307063
v 0.546279 -0.377913 0.315394
v -0.000000 -0.377913 0.630788
v 0.546279 -0.377913 -0.315394
v -0.000000 -0.377913 -0.630788
v -0.546279 -0.377913 -0.315394
v -0.546279 -0.377913 0.315394
v 0.520434 -0.531133 0.300473
v -0.000000 -0.531133 0.600945
v 0.520434 -0.531133 -0.300473
v -0.000000 -0.531133 -0.600945
v -0.520434 -0.531133 -0.300473
v -0.520434 -0.531133 0.300473
vt 0.834867 0.918868
vt 0.963063 0.893511
vt 0.836298 0.955599
vt 0.748225 0.767075
vt 0.840009 0.681804
vt 0.841735 0.719300
vt 0.711863 0.890510
vt 0.743201 0.869104
vt 0.931777 0.773417
vt 0.929719 0.875559
vt 0.963063 0.752520
vt 0.715178 0.749306
vt 0.118462 0.745657
vt 0.203478 0.692240
vt 0.202935 0.701115
vt 0.037323 0.890043
vt 0.198698 0.966491
vt 0.199273 0.983545
vt 0.361223 0.703040
vt 0.199848 0.626592
vt 0.199273 0.609539
vt 0.114800 0.841084
vt 0.111047 0.740749
vt 0.346166 0.882015
vt 0.361223 0.890044
vt 0.283746 0.752000
vt 0.287499 0.852335
vt 0.280084 0.847427
vt 0.281900 0.237155
vt 0.344825 0.288559
vt 0.302743 0.289577
vt 0.195707 0.280219
vt 0.205189 0.198552
vt 0.227529 0.233383
vt 0.273006 0.337658
vt 0.198998 0.367988
vt 0.218850 0.331852
vt 0.301335 0.201256
vt 0.153994 0.281554
vt 0.295376 0.371997
vt 0.333768 0.143205
vt 0.087042 0.282662
vt 0.330074 0.428780
vt 0.411851 0.287561
vt 0.170482 0.141498
vt 0.166431 0.426260
vt 0.127882 0.071407
vt 0.126617 0.498076
vt 0.373711 0.071407
vt 0.005118 0.284194
vt 0.372797 0.498855
vt 0.493363 0.286074
vt 0.468026 0.554946
vt 0.563175 0.492067
vt 0.562755 0.502331
vt 0.653887 0.666407
vt 0.558738 0.729286
vt 0.559158 0.719022
vt 0.402667 0.519286
vt 0.416954 0.693218
vt 0.402666 0.702063
vt 0.664786 0.553294
vt 0.655686 0.558062
vt 0.719248 0.519290
vt 0.704441 0.694115
vt 0.704959 0.528136
vt 0.457128 0.668060
vt 0.466227 0.663291
vt 0.624467 0.009979
vt 0.534146 0.105148
vt 0.494788 0.085720
vt 0.620833 0.318779
vt 0.711153 0.223611
vt 0.750512 0.243039
vt 0.531934 0.213913
vt 0.494788 0.236541
vt 0.750512 0.092218
vt 0.626097 0.054076
vt 0.713366 0.114846
vt 0.619202 0.274683
vt 0.975435 0.486575
vt 0.804123 0.585482
vt 0.918331 0.387668
vt 0.823893 0.320948
vt 0.823893 0.129120
vt 0.990021 0.225034
vt 0.291704 0.748033
vt 0.346741 0.712065
vt 0.106842 0.845051
vt 0.052380 0.711069
vt 0.195068 0.900844
vt 0.051805 0.881019
vt 0.195611 0.891969
vt 0.037324 0.703040
vt 0.417472 0.527238
vt 0.561475 0.444695
vt 0.560439 0.776657
vt 0.459347 0.549450
vt 0.662567 0.671903
vt 0.560955 0.793455
vt 0.560958 0.427898
vt 0.719246 0.702067
vt 0.804123 0.387668
vt 0.918331 0.585482
vt 0.747019 0.486575
vt 0.934645 0.320947
vt 0.768517 0.225034
vt 0.934645 0.129120
vn 0.9796 0.2009 -0.0000
vn -0.9796 0.2009 0.0000
vn 0.4898 0.2009 -0.8484
vn 0.4898 0.2009 0.8484
vn -0.4898 0.2009 0.8484
vn -0.4898 0.2009 -0.8484
vn 0.0000 1.0000 -0.0000
vn 0.0000 -1.0000 0.0000
vn -0.4965 0.1187 0.8599
vn -0.4965 0.1187 -0.8599
vn 0.9929 0.1187 0.0000
vn -0.9929 0.1187 0.0000
vn 0.4965 0.1187 -0.8599
vn 0.4965 0.1187 0.8599
vn -1.0000 0.0000 0.0000
vn 0.5000 0.0000 -0.8660
vn 0.5000 0.0000 0.8660
vn -0.5000 0.0000 0.8660
vn -0.5000 0.0000 -0.8660
vn 1.0000 0.0000 0.0000
vn -0.4978 -0.0941 -0.8622
vn 0.9956 -0.0941 0.0000
vn -0.9956 -0.0941 0.0000
vn 0.4978 -0.0941 -0.8622
vn 0.4978 -0.0941 0.8622
vn -0.4978 -0.0941 0.8622
vn 0.9566 -0.2914 0.0000
vn -0.9566 -0.2914 0.0000
vn 0.4783 -0.2914 -0.8285
vn 0.4783 -0.2914 0.8285
vn -0.4783 -0.2914 0.8285
vn -0.4783 -0.2914 -0.8285
vn -0.9780 0.2086 0.0000
vn 0.4890 0.2086 -0.8470
vn 0.4890 0.2086 0.8470
vn -0.4890 0.2086 0.8470
vn -0.4890 0.2086 -0.8470
vn 0.9780 0.2086 -0.0000
vn 0.4930 -0.1663 -0.8540
vn 0.4930 -0.1663 0.8540
vn -0.4930 -0.1663 0.8540
vn -0.4930 -0.1663 -0.8540
vn 0.9861 -0.1663 0.0000
vn -0.9861 -0.1663 0.0000
usemtl Material.001
s off
f 3/1/1 8/2/1 9/3/1
f 5/4/2 12/5/2 6/6/2
f 3/1/3 10/7/3 4/8/3
f 1/9/4 8/2/4 2/10/4
f 1/9/5 12/5/5 7/11/5
f 5/4/6 10/7/6 11/12/6
f 10/13/7 53/14/7 11/15/7
f 15/16/8 55/17/8 14/18/8
f 18/19/8 59/20/8 17/21/8
f 9/22/7 52/23/7 10/13/7
f 14/18/8 56/24/8 13/25/8
f 12/26/7 50/27/7 7/28/7
f 18/29/9 19/30/9 13/31/9
f 16/32/10 23/33/10 17/34/10
f 14/35/11 21/36/11 15/37/11
f 17/34/12 24/38/12 18/29/12
f 15/37/13 22/39/13 16/32/13
f 13/31/14 20/40/14 14/35/14
f 23/33/15 30/41/15 24/38/15
f 21/36/16 28/42/16 22/39/16
f 19/30/17 26/43/17 20/40/17
f 24/38/18 25/44/18 19/30/18
f 22/39/19 29/45/19 23/33/19
f 20/40/20 27/46/20 21/36/20
f 28/42/21 35/47/21 29/45/21
f 26/43/22 33/48/22 27/46/22
f 29/45/23 36/49/23 30/41/23
f 27/46/24 34/50/24 28/42/24
f 25/44/25 32/51/25 26/43/25
f 30/41/26 31/52/26 25/44/26
f 39/53/8 67/54/8 38/55/8
f 42/56/8 71/57/8 41/58/8
f 33/59/7 64/60/7 34/61/7
f 38/55/8 68/62/8 37/63/8
f 31/64/7 66/65/7 62/66/7
f 41/58/8 70/67/8 40/68/8
f 38/69/27 45/70/27 39/71/27
f 41/72/28 48/73/28 42/74/28
f 39/71/29 46/75/29 40/76/29
f 37/77/30 44/78/30 38/69/30
f 37/77/31 48/73/31 43/79/31
f 40/76/32 47/80/32 41/72/32
f 43/81/8 47/82/8 44/83/8
f 3/84/7 5/85/7 1/86/7
f 54/87/33 59/20/33 60/88/33
f 51/89/34 58/90/34 52/23/34
f 50/27/35 55/17/35 49/91/35
f 54/87/36 56/24/36 50/27/36
f 52/23/37 59/20/37 53/14/37
f 49/91/38 57/92/38 51/89/38
f 13/25/8 60/88/8 18/19/8
f 7/28/7 49/91/7 8/93/7
f 16/94/8 57/92/8 15/16/8
f 11/15/7 54/87/7 12/26/7
f 8/93/7 51/89/7 9/22/7
f 17/21/8 58/90/8 16/94/8
f 63/95/39 70/67/39 64/60/39
f 61/96/40 68/62/40 67/54/40
f 66/65/41 68/62/41 62/66/41
f 65/97/42 70/67/42 71/57/42
f 61/96/43 69/98/43 63/95/43
f 65/97/44 72/99/44 66/65/44
f 34/61/7 65/97/7 35/100/7
f 37/63/8 72/99/8 42/56/8
f 31/64/7 61/96/7 32/101/7
f 40/68/8 69/98/8 39/53/8
f 36/102/7 65/97/7 66/65/7
f 32/101/7 63/95/7 33/59/7
f 3/1/1 2/10/1 8/2/1
f 5/4/2 11/12/2 12/5/2
f 3/1/3 9/3/3 10/7/3
f 1/9/4 7/11/4 8/2/4
f 1/9/5 6/6/5 12/5/5
f 5/4/6 4/8/6 10/7/6
f 10/13/7 52/23/7 53/14/7
f 15/16/8 57/92/8 55/17/8
f 18/19/8 60/88/8 59/20/8
f 9/22/7 51/89/7 52/23/7
f 14/18/8 55/17/8 56/24/8
f 12/26/7 54/87/7 50/27/7
f 18/29/9 24/38/9 19/30/9
f 16/32/10 22/39/10 23/33/10
f 14/35/11 20/40/11 21/36/11
f 17/34/12 23/33/12 24/38/12
f 15/37/13 21/36/13 22/39/13
f 13/31/14 19/30/14 20/40/14
f 23/33/15 29/45/15 30/41/15
f 21/36/16 27/46/16 28/42/16
f 19/30/17 25/44/17 26/43/17
f 24/38/18 30/41/18 25/44/18
f 22/39/19 28/42/19 29/45/19
f 20/40/20 26/43/20 27/46/20
f 28/42/21 34/50/21 35/47/21
f 26/43/22 32/51/22 33/48/22
f 29/45/23 35/47/23 36/49/23
f 27/46/24 33/48/24 34/50/24
f 25/44/25 31/52/25 32/51/25
f 30/41/26 36/49/26 31/52/26
f 39/53/8 69/98/8 67/54/8
f 42/56/8 72/99/8 71/57/8
f 33/59/7 63/95/7 64/60/7
f 38/55/8 67/54/8 68/62/8
f 31/64/7 36/102/7 66/65/7
f 41/58/8 71/57/8 70/67/8
f 38/69/27 44/78/27 45/70/27
f 41/72/28 47/80/28 48/73/28
f 39/71/29 45/70/29 46/75/29
f 37/77/30 43/79/30 44/78/30
f 37/77/31 42/74/31 48/73/31
f 40/76/32 46/75/32 47/80/32
f 45/103/8 44/83/8 47/82/8
f 43/81/8 48/104/8 47/82/8
f 47/82/8 46/105/8 45/103/8
f 1/86/7 2/106/7 3/84/7
f 3/84/7 4/107/7 5/85/7
f 5/85/7 6/108/7 1/86/7
f 54/87/33 53/14/33 59/20/33
f 51/89/34 57/92/34 58/90/34
f 50/27/35 56/24/35 55/17/35
f 54/87/36 60/88/36 56/24/36
f 52/23/37 58/90/37 59/20/37
f 49/91/38 55/17/38 57/92/38
f 13/25/8 56/24/8 60/88/8
f 7/28/7 50/27/7 49/91/7
f 16/94/8 58/90/8 57/92/8
f 11/15/7 53/14/7 54/87/7
f 8/93/7 49/91/7 51/89/7
f 17/21/8 59/20/8 58/90/8
f 63/95/39 69/98/39 70/67/39
f 61/96/40 62/66/40 68/62/40
f 66/65/41 72/99/41 68/62/41
f 65/97/42 64/60/42 70/67/42
f 61/96/43 67/54/43 69/98/43
f 65/97/44 71/57/44 72/99/44
f 34/61/7 64/60/7 65/97/7
f 37/63/8 68/62/8 72/99/8
f 31/64/7 62/66/7 61/96/7
f 40/68/8 70/67/8 69/98/8
f 36/102/7 35/100/7 65/97/7
f 32/101/7 61/96/7 63/95/7
