# Blender v2.79 (sub 0) OBJ File: 'book.blend'
# www.blender.org
mtllib book.mtl
o Libro.002_Cube.012
v -0.231376 -0.050999 0.301318
v -0.231376 0.050999 0.301318
v -0.231376 -0.050999 -0.301318
v -0.231376 0.050999 -0.301318
v 0.214925 -0.050999 0.301318
v 0.214925 0.050999 0.301318
v 0.214925 -0.050999 -0.301318
v 0.214925 0.050999 -0.301318
v -0.231376 -0.031360 0.301318
v -0.231376 0.031360 0.301318
v -0.231376 0.031360 -0.301318
v -0.231376 -0.031360 -0.301318
v 0.214925 0.031360 -0.301318
v 0.214925 -0.031360 -0.301318
v 0.214925 0.031360 0.301318
v 0.214925 -0.031360 0.301318
v -0.218873 -0.050999 -0.301318
v -0.218873 0.050999 -0.301318
v -0.218873 -0.050999 0.301318
v -0.218873 0.050999 0.301318
v -0.218873 -0.031360 0.301318
v -0.218873 0.031360 0.301318
v -0.218873 -0.031360 -0.301318
v -0.218873 0.031360 -0.301318
v -0.231353 0.032572 0.312957
v -0.231353 0.052969 0.312957
v -0.231353 -0.032572 -0.312957
v -0.231353 -0.052969 -0.312957
v -0.224298 -0.052969 -0.312957
v -0.224298 0.052969 -0.312957
v 0.226257 0.052969 -0.312957
v 0.226257 -0.032572 -0.312957
v 0.226257 -0.052969 -0.312957
v 0.226257 -0.052969 0.312957
v 0.226257 0.052969 0.312957
v 0.226257 -0.032572 0.312957
v -0.224298 -0.052969 0.312957
v -0.224298 0.052969 0.312957
v -0.231353 -0.052969 0.312957
v -0.231353 -0.032572 0.312957
v -0.231353 0.052969 -0.312957
v -0.231353 0.032572 -0.312957
v 0.226257 0.032572 -0.312957
v 0.226257 0.032572 0.312957
v -0.224298 -0.032572 0.312957
v -0.224298 0.032572 0.312957
v -0.224298 -0.032572 -0.312957
v -0.224298 0.032572 -0.312957
vt 0.383681 0.023413
vt 0.371921 0.443704
vt 0.369303 0.018121
vt 0.743315 0.517588
vt 0.256925 0.525423
vt 0.257550 0.518305
vt 0.664127 0.038638
vt 0.676350 0.419346
vt 0.669039 0.412608
vt 0.304447 0.021919
vt 0.299040 0.014362
vt 0.303231 0.015402
vt 0.025411 0.422975
vt 0.296026 0.022334
vt 0.297172 0.437886
vt 0.385090 0.439692
vt 0.392366 0.023726
vt 0.393510 0.439278
vt 0.256685 0.469528
vt 0.743074 0.461693
vt 0.742449 0.468811
vt 0.013184 0.042267
vt 0.020496 0.049006
vt 0.390496 0.447250
vt 0.386305 0.446210
vt 0.375261 0.453416
vt 0.993282 0.507460
vt 0.994379 0.484773
vt 0.317616 0.017908
vt 0.305856 0.438199
vt 0.320234 0.443491
vt 0.300057 0.445824
vt 0.016670 0.430626
vt 0.006718 0.479655
vt 0.373116 0.007362
vt 0.689453 0.431748
vt 0.378765 0.460803
vt 0.689456 0.017688
vt 0.389480 0.015787
vt 0.376502 0.000082
vt 0.314276 0.008196
vt 0.310771 0.000808
vt 0.000082 0.443925
vt 0.316422 0.454250
vt 0.304536 0.444442
vt 0.000082 0.029866
vt 0.005621 0.502343
vt 0.000214 0.474755
vt 0.385001 0.017170
vt 0.672867 0.030987
vt 0.999918 0.480353
vt 0.256225 0.461693
vt 0.999786 0.512361
vt 0.743775 0.525423
vt 0.000082 0.506763
vt 0.313035 0.461530
vn -1.0000 0.0000 0.0000
vn 0.1063 -0.9943 0.0000
vn -0.1713 0.9852 0.0000
vn 0.0000 -0.9860 -0.1669
vn 0.0000 -1.0000 0.0000
vn 0.0000 1.0000 0.0000
vn 0.1063 0.9943 0.0000
vn -0.1713 -0.9852 0.0000
vn 0.0000 0.9860 0.1669
vn 1.0000 0.0000 0.0000
vn -1.0000 0.0000 -0.0020
vn 0.0000 0.0000 -1.0000
vn 0.0000 -0.9860 0.1669
vn 0.0000 0.0000 1.0000
vn -1.0000 0.0000 0.0020
vn 0.9064 0.0000 0.4224
vn 0.0000 0.9860 -0.1669
vn 0.0000 0.9946 -0.1035
vn 0.0000 0.9946 0.1035
vn 0.0000 -0.9946 -0.1035
vn 0.0000 -0.9946 0.1035
vn 0.9064 0.0000 -0.4224
usemtl Material
s off
f 2/1/1 11/2/1 10/3/1
f 13/4/2 44/5/2 15/6/2
f 6/7/3 31/8/3 8/9/3
f 1/10/4 37/11/4 39/12/4
f 7/13/5 19/14/5 17/15/5
f 4/16/6 20/17/6 18/18/6
f 16/19/7 32/20/7 14/21/7
f 7/13/8 34/22/8 5/23/8
f 4/16/9 30/24/9 41/25/9
f 13/4/10 16/19/10 14/21/10
f 4/16/11 42/26/11 11/2/11
f 24/27/12 14/21/12 23/28/12
f 9/29/1 3/30/1 1/10/1
f 10/3/1 12/31/1 9/29/1
f 7/13/13 29/32/13 33/33/13
f 15/6/14 21/34/14 16/19/14
f 9/29/15 25/35/15 10/3/15
f 18/18/6 6/7/6 8/9/6
f 17/15/5 1/10/5 3/30/5
f 8/9/9 30/24/9 18/18/9
f 30/24/12 43/36/12 48/37/12
f 31/8/10 44/38/10 43/36/10
f 38/39/14 25/35/14 46/40/14
f 37/11/14 40/41/14 39/12/14
f 46/40/14 40/41/14 45/42/14
f 32/43/10 34/22/10 33/33/10
f 29/32/12 32/43/12 33/33/12
f 27/44/12 29/32/12 28/45/12
f 36/46/14 37/11/14 34/22/14
f 44/38/14 38/39/14 46/40/14
f 42/26/12 30/24/12 48/37/12
f 22/47/16 45/48/16 21/34/16
f 2/1/15 25/35/15 26/49/15
f 6/7/17 38/39/17 35/50/17
f 14/21/18 47/51/18 23/28/18
f 16/19/19 45/48/19 36/52/19
f 5/23/4 37/11/4 19/14/4
f 13/4/20 48/53/20 43/54/20
f 3/30/11 27/44/11 28/45/11
f 15/6/21 46/55/21 22/47/21
f 2/1/17 38/39/17 20/17/17
f 3/30/13 29/32/13 17/15/13
f 1/10/15 40/41/15 9/29/15
f 42/26/12 47/56/12 27/44/12
f 23/28/22 48/53/22 24/27/22
f 11/2/11 27/44/11 12/31/11
f 2/1/1 4/16/1 11/2/1
f 13/4/2 43/54/2 44/5/2
f 6/7/3 35/50/3 31/8/3
f 1/10/4 19/14/4 37/11/4
f 7/13/5 5/23/5 19/14/5
f 4/16/6 2/1/6 20/17/6
f 16/19/7 36/52/7 32/20/7
f 7/13/8 33/33/8 34/22/8
f 4/16/9 18/18/9 30/24/9
f 13/4/10 15/6/10 16/19/10
f 4/16/11 41/25/11 42/26/11
f 24/27/12 13/4/12 14/21/12
f 9/29/1 12/31/1 3/30/1
f 10/3/1 11/2/1 12/31/1
f 7/13/13 17/15/13 29/32/13
f 15/6/14 22/47/14 21/34/14
f 9/29/15 40/41/15 25/35/15
f 18/18/6 20/17/6 6/7/6
f 17/15/5 19/14/5 1/10/5
f 8/9/9 31/8/9 30/24/9
f 30/24/12 31/8/12 43/36/12
f 31/8/10 35/50/10 44/38/10
f 38/39/14 26/49/14 25/35/14
f 37/11/14 45/42/14 40/41/14
f 46/40/14 25/35/14 40/41/14
f 32/43/10 36/46/10 34/22/10
f 29/32/12 47/56/12 32/43/12
f 27/44/12 47/56/12 29/32/12
f 36/46/14 45/42/14 37/11/14
f 44/38/14 35/50/14 38/39/14
f 42/26/12 41/25/12 30/24/12
f 22/47/16 46/55/16 45/48/16
f 2/1/15 10/3/15 25/35/15
f 6/7/17 20/17/17 38/39/17
f 14/21/18 32/20/18 47/51/18
f 16/19/19 21/34/19 45/48/19
f 5/23/4 34/22/4 37/11/4
f 13/4/20 24/27/20 48/53/20
f 3/30/11 12/31/11 27/44/11
f 15/6/21 44/5/21 46/55/21
f 2/1/17 26/49/17 38/39/17
f 3/30/13 28/45/13 29/32/13
f 1/10/15 39/12/15 40/41/15
f 42/26/12 48/37/12 47/56/12
f 23/28/22 47/51/22 48/53/22
f 11/2/11 42/26/11 27/44/11
