# Blender v2.79 (sub 0) OBJ File: 'button.blend'
# www.blender.org
mtllib button.mtl
o Cube.001
v -0.191875 -0.500000 0.246306
v -0.191875 -0.246306 0.500000
v -0.191875 -0.466011 0.373153
v -0.191875 -0.373153 0.466011
v -0.191875 -0.246306 -0.500000
v -0.191875 -0.500000 -0.246306
v -0.191875 -0.373153 -0.466011
v -0.191875 -0.466011 -0.373153
v 0.338682 -0.500000 -0.246306
v 0.338682 -0.246306 -0.500000
v 0.338682 -0.466011 -0.373153
v 0.338682 -0.373153 -0.466011
v 0.338682 -0.246306 0.500000
v 0.338682 -0.500000 0.246306
v 0.338682 -0.373153 0.466011
v 0.338682 -0.466011 0.373153
v -0.191875 0.246306 0.500000
v -0.191875 0.500000 0.246305
v -0.191875 0.373153 0.466011
v -0.191875 0.466011 0.373153
v -0.191875 0.500000 -0.246306
v -0.191875 0.246306 -0.500000
v -0.191875 0.466011 -0.373153
v -0.191875 0.373153 -0.466012
v 0.338682 0.246306 -0.500000
v 0.338682 0.500000 -0.246306
v 0.338682 0.373153 -0.466011
v 0.338682 0.466011 -0.373153
v 0.338682 0.500000 0.246306
v 0.338682 0.246306 0.500000
v 0.338682 0.466011 0.373153
v 0.338682 0.373153 0.466011
v -0.191875 -0.338731 0.271235
v -0.191875 -0.363437 0.179033
v -0.191875 -0.271235 0.338731
v -0.191875 -0.179033 0.363436
v -0.191875 -0.271235 -0.338731
v -0.191875 -0.179033 -0.363437
v -0.191875 -0.338731 -0.271235
v -0.191875 -0.363437 -0.179033
v -0.191875 0.271235 0.338731
v -0.191875 0.179033 0.363436
v -0.191875 0.338731 0.271235
v -0.191875 0.363437 0.179033
v -0.191875 0.338731 -0.271235
v -0.191875 0.363437 -0.179033
v -0.191875 0.271235 -0.338731
v -0.191875 0.179033 -0.363437
v -0.159925 -0.316916 0.253766
v -0.159925 -0.340030 0.167503
v -0.159925 -0.253766 0.316916
v -0.159925 -0.167503 0.340030
v -0.159925 -0.253766 -0.316916
v -0.159925 -0.167503 -0.340030
v -0.159925 -0.316916 -0.253766
v -0.159925 -0.340030 -0.167503
v -0.159925 0.253766 0.316916
v -0.159925 0.167503 0.340030
v -0.159925 0.316916 0.253766
v -0.159925 0.340030 0.167502
v -0.159925 0.316916 -0.253767
v -0.159925 0.340030 -0.167503
v -0.159925 0.253766 -0.316916
v -0.159925 0.167503 -0.340030
v -0.368933 -0.316916 0.253766
v -0.368933 -0.340030 0.167503
v -0.368933 -0.253766 0.316916
v -0.368933 -0.167503 0.340030
v -0.368933 -0.253766 -0.316916
v -0.368933 -0.167503 -0.340030
v -0.368933 -0.316916 -0.253766
v -0.368933 -0.340030 -0.167503
v -0.368933 0.253766 0.316916
v -0.368933 0.167503 0.340030
v -0.368933 0.316916 0.253766
v -0.368933 0.340030 0.167502
v -0.368933 0.316916 -0.253766
v -0.368933 0.340030 -0.167503
v -0.368933 0.253766 -0.316916
v -0.368933 0.167503 -0.340030
vt 0.453650 0.128523
vt 0.453650 0.036241
vt 0.591977 0.036241
vt 0.591977 0.128523
vt 0.742995 0.188696
vt 0.742995 0.060586
vt 0.881323 0.060586
vt 0.881323 0.188696
vt 0.205866 0.285727
vt 0.238937 0.294731
vt 0.263148 0.319332
vt 0.272009 0.352938
vt 0.272009 0.483445
vt 0.263148 0.517050
vt 0.238937 0.541651
vt 0.205866 0.550655
vt 0.077431 0.550655
vt 0.044360 0.541651
vt 0.020149 0.517050
vt 0.011288 0.483445
vt 0.011288 0.352938
vt 0.020149 0.319332
vt 0.044360 0.294731
vt 0.077431 0.285727
vt 0.453650 0.223573
vt 0.591977 0.223573
vt 0.591977 0.315856
vt 0.453650 0.315856
vt 0.591977 0.197683
vt 0.591977 0.069573
vt 0.730305 0.069573
vt 0.730305 0.197683
vt 0.881323 0.223402
vt 0.742995 0.223402
vt 0.881323 0.252244
vt 0.742995 0.252244
vt 0.453650 0.018845
vt 0.591977 0.018845
vt 0.730305 0.232389
vt 0.591977 0.232389
vt 0.730305 0.261231
vt 0.591977 0.261231
vt 0.742995 0.029315
vt 0.881323 0.029315
vt 0.591977 0.158653
vt 0.453650 0.158653
vt 0.591977 0.193444
vt 0.453650 0.193444
vt 0.591977 0.333251
vt 0.453650 0.333251
vt 0.591977 0.018845
vt 0.730305 0.018845
vt 0.730305 0.038302
vt 0.591977 0.038302
vt 0.263148 0.054404
vt 0.272009 0.088009
vt 0.236404 0.105832
vt 0.229963 0.081405
vt 0.053334 0.225120
vt 0.046893 0.200693
vt 0.052995 0.197639
vt 0.059022 0.220493
vt 0.020149 0.252121
vt 0.011288 0.218516
vt 0.205866 0.020798
vt 0.238938 0.029803
vt 0.212365 0.063523
vt 0.188326 0.056978
vt 0.077431 0.285727
vt 0.044360 0.276722
vt 0.070932 0.243002
vt 0.094971 0.249547
vt 0.263148 0.252121
vt 0.238937 0.276722
vt 0.212365 0.243002
vt 0.229963 0.225120
vt 0.044360 0.029803
vt 0.077431 0.020798
vt 0.094971 0.056978
vt 0.070932 0.063523
vt 0.011288 0.088009
vt 0.020149 0.054404
vt 0.053334 0.081405
vt 0.046893 0.105832
vt 0.272009 0.218516
vt 0.236404 0.200693
vt 0.205866 0.285727
vt 0.188326 0.249547
vt 0.913620 0.790772
vt 0.913620 0.759680
vt 1.000000 0.759680
vt 1.000000 0.790772
vt 0.929562 0.298069
vt 0.929562 0.272781
vt 0.937892 0.273595
vt 0.937892 0.297255
vt 0.185320 0.063179
vt 0.097977 0.063179
vt 0.929562 0.250880
vt 0.937892 0.253105
vt 0.955049 0.161292
vt 0.955049 0.068172
vt 0.963379 0.069988
vt 0.963379 0.157111
vt 0.955049 0.042945
vt 0.963379 0.046386
vt 0.963379 0.206752
vt 0.963379 0.299872
vt 0.955049 0.298057
vt 0.955049 0.210934
vt 0.207811 0.237223
vt 0.224275 0.220493
vt 0.207811 0.069302
vt 0.052995 0.108886
vt 0.963379 0.184022
vt 0.955049 0.189668
vt 0.224275 0.086033
vt 0.963379 0.325099
vt 0.955049 0.321659
vt 0.955049 0.184022
vt 0.963379 0.178377
vt 0.075486 0.237223
vt 0.929562 0.319970
vt 0.937892 0.317745
vt 0.734658 0.616201
vt 0.770310 0.625908
vt 0.796409 0.652428
vt 0.805961 0.688655
vt 0.805961 0.829343
vt 0.796409 0.865570
vt 0.770310 0.892089
vt 0.734658 0.901796
vt 0.596205 0.901796
vt 0.560553 0.892089
vt 0.534454 0.865569
vt 0.524901 0.829343
vt 0.524901 0.688655
vt 0.534454 0.652428
vt 0.560553 0.625908
vt 0.596205 0.616201
vt 0.914775 0.820180
vt 0.914775 0.838932
vt 0.828394 0.838932
vt 0.828394 0.820180
vt 0.914775 0.500000
vt 0.914775 0.518752
vt 0.828394 0.518752
vt 0.828394 0.500000
vt 0.913620 0.759680
vt 0.913620 0.738706
vt 1.000000 0.738706
vt 1.000000 0.759680
vt 0.913620 0.566891
vt 0.913620 0.529478
vt 1.000000 0.529478
vt 1.000000 0.566891
vt 0.913620 0.704996
vt 1.000000 0.704996
vt 0.913620 0.498386
vt 1.000000 0.498386
vt 0.913620 0.966290
vt 0.913620 0.828185
vt 1.000000 0.828185
vt 1.000000 0.966290
vt 0.913620 1.000000
vt 1.000000 1.000000
vt 0.914775 0.618234
vt 0.828394 0.618234
vt 0.914775 0.650714
vt 0.828394 0.650714
vt 0.914775 0.720699
vt 0.828394 0.720699
vt 0.914775 0.688219
vt 0.828394 0.688219
vn -0.0000 0.0000 1.0000
vn 0.0000 -1.0000 0.0000
vn 1.0000 -0.0000 -0.0000
vn 0.0000 1.0000 0.0000
vn 0.0000 -0.0000 -1.0000
vn 0.0000 -0.9659 0.2588
vn -0.0000 -0.7071 0.7071
vn 0.0000 -0.2588 0.9659
vn -0.0000 -0.2588 -0.9659
vn -0.0000 -0.7071 -0.7071
vn -0.0000 -0.9659 -0.2588
vn -0.0000 0.2588 0.9659
vn -0.0000 0.7071 0.7071
vn -0.0000 0.9659 0.2588
vn 0.0000 0.9659 -0.2588
vn 0.0000 0.7071 -0.7071
vn 0.0000 0.2588 -0.9659
vn -1.0000 -0.0000 0.0000
vn -0.6252 -0.2020 0.7539
vn -0.6561 0.5336 0.5336
vn -0.5910 0.8067 0.0000
vn -0.6252 0.7539 0.2020
vn -0.5910 -0.0000 -0.8067
vn -0.6252 -0.2020 -0.7539
vn -0.5910 -0.8067 -0.0000
vn -0.6561 -0.5336 -0.5336
vn -0.6252 0.7539 -0.2020
vn -0.5910 0.0000 0.8067
vn -0.6252 -0.7539 -0.2020
vn -0.6561 0.5336 -0.5336
vn -0.6252 -0.7539 0.2020
vn -0.6252 0.2020 -0.7539
vn -0.6561 -0.5336 0.5336
vn -0.6252 0.2020 0.7539
usemtl Material
s off
f 17/1/1 2/2/1 13/3/1 30/4/1
f 1/5/2 6/6/2 9/7/2 14/8/2
f 9/9/3 11/10/3 12/11/3 10/12/3 25/13/3 27/14/3 28/15/3 26/16/3 29/17/3 31/18/3 32/19/3 30/20/3 13/21/3 15/22/3 16/23/3 14/24/3
f 18/25/4 29/26/4 26/27/4 21/28/4
f 5/29/5 22/30/5 25/31/5 10/32/5
f 1/5/6 14/8/6 16/33/6 3/34/6
f 3/34/7 16/33/7 15/35/7 4/36/7
f 4/37/8 15/38/8 13/3/8 2/2/8
f 5/29/9 10/32/9 12/39/9 7/40/9
f 7/40/10 12/39/10 11/41/10 8/42/10
f 8/43/11 11/44/11 9/7/11 6/6/11
f 17/1/12 30/4/12 32/45/12 19/46/12
f 19/46/13 32/45/13 31/47/13 20/48/13
f 20/48/14 31/47/14 29/26/14 18/25/14
f 21/28/15 26/27/15 28/49/15 23/50/15
f 23/51/16 28/52/16 27/53/16 24/54/16
f 24/54/17 27/53/17 25/31/17 22/30/17
f 4/55/18 2/56/18 36/57/18 35/58/18
f 47/59/19 48/60/19 64/61/19 63/62/19
f 24/63/18 22/64/18 48/60/18 47/59/18
f 1/65/18 3/66/18 33/67/18 34/68/18
f 21/69/18 23/70/18 45/71/18 46/72/18
f 19/73/18 20/74/18 43/75/18 41/76/18
f 8/77/18 6/78/18 40/79/18 39/80/18
f 5/81/18 7/82/18 37/83/18 38/84/18
f 6/78/18 1/65/18 34/68/18 40/79/18
f 2/56/18 17/85/18 42/86/18 36/57/18
f 3/66/18 4/55/18 35/58/18 33/67/18
f 23/70/18 24/63/18 47/59/18 45/71/18
f 20/74/18 18/87/18 44/88/18 43/75/18
f 18/87/18 21/69/18 46/72/18 44/88/18
f 17/85/18 19/73/18 41/76/18 42/86/18
f 22/64/18 5/81/18 38/84/18 48/60/18
f 7/82/18 8/77/18 39/80/18 37/83/18
f 49/89/7 51/90/7 67/91/7 65/92/7
f 37/93/20 39/94/20 55/95/20 53/96/20
f 40/79/21 34/68/21 50/97/21 56/98/21
f 39/94/22 40/99/22 56/100/22 55/95/22
f 36/101/23 42/102/23 58/103/23 52/104/23
f 42/102/24 41/105/24 57/106/24 58/103/24
f 44/107/25 46/108/25 62/109/25 60/110/25
f 41/76/26 43/75/26 59/111/26 57/112/26
f 34/68/27 33/67/27 49/113/27 50/97/27
f 48/60/28 38/84/28 54/114/28 64/61/28
f 43/115/29 44/107/29 60/110/29 59/116/29
f 33/67/30 35/58/30 51/117/30 49/113/30
f 46/108/31 45/118/31 61/119/31 62/109/31
f 35/120/32 36/101/32 52/104/32 51/121/32
f 45/71/33 47/59/33 63/62/33 61/122/33
f 38/123/34 37/93/34 53/96/34 54/124/34
f 66/125/18 65/126/18 67/127/18 68/128/18 74/129/18 73/130/18 75/131/18 76/132/18 78/133/18 77/134/18 79/135/18 80/136/18 70/137/18 69/138/18 71/139/18 72/140/18
f 62/141/15 61/142/15 77/143/15 78/144/15
f 51/145/8 52/146/8 68/147/8 67/148/8
f 61/149/16 63/150/16 79/151/16 77/152/16
f 54/153/9 53/154/9 69/155/9 70/156/9
f 63/150/17 64/157/17 80/158/17 79/151/17
f 53/154/10 55/159/10 71/160/10 69/155/10
f 56/161/2 50/162/2 66/163/2 72/164/2
f 55/165/11 56/161/11 72/164/11 71/166/11
f 52/146/1 58/167/1 74/168/1 68/147/1
f 58/167/12 57/169/12 73/170/12 74/168/12
f 60/171/4 62/141/4 78/144/4 76/172/4
f 57/169/13 59/173/13 75/174/13 73/170/13
f 50/162/6 49/89/6 65/92/6 66/163/6
f 64/157/5 54/153/5 70/156/5 80/158/5
f 59/173/14 60/171/14 76/172/14 75/174/14
