# Blender v2.79 (sub 0) OBJ File: 'button.blend'
# www.blender.org
mtllib button.mtl
o Cube.001
v 0.246306 -0.500000 0.191875
v 0.500000 -0.246306 0.191875
v 0.373153 -0.466011 0.191875
v 0.466011 -0.373153 0.191875
v -0.500000 -0.246306 0.191875
v -0.246306 -0.500000 0.191875
v -0.466011 -0.373153 0.191875
v -0.373153 -0.466011 0.191875
v -0.246306 -0.500000 -0.338682
v -0.500000 -0.246306 -0.338682
v -0.373153 -0.466011 -0.338682
v -0.466011 -0.373153 -0.338682
v 0.500000 -0.246306 -0.338681
v 0.246306 -0.500000 -0.338682
v 0.466012 -0.373153 -0.338681
v 0.373153 -0.466011 -0.338681
v 0.500000 0.246306 0.191875
v 0.246305 0.500000 0.191875
v 0.466011 0.373153 0.191875
v 0.373153 0.466011 0.191875
v -0.246306 0.500000 0.191875
v -0.500000 0.246306 0.191875
v -0.373153 0.466011 0.191875
v -0.466012 0.373153 0.191875
v -0.500000 0.246306 -0.338682
v -0.246305 0.500000 -0.338682
v -0.466011 0.373153 -0.338682
v -0.373153 0.466011 -0.338682
v 0.246306 0.500000 -0.338682
v 0.500000 0.246306 -0.338682
v 0.373153 0.466011 -0.338682
v 0.466011 0.373153 -0.338682
v 0.271235 -0.338731 0.191875
v 0.179033 -0.363437 0.191875
v 0.338731 -0.271235 0.191875
v 0.363436 -0.179033 0.191875
v -0.338731 -0.271235 0.191875
v -0.363437 -0.179033 0.191875
v -0.271235 -0.338731 0.191875
v -0.179033 -0.363437 0.191875
v 0.338731 0.271235 0.191875
v 0.363436 0.179033 0.191875
v 0.271235 0.338731 0.191875
v 0.179033 0.363437 0.191875
v -0.271235 0.338731 0.191875
v -0.179033 0.363437 0.191875
v -0.338731 0.271235 0.191875
v -0.363437 0.179033 0.191875
v 0.253766 -0.316916 0.159925
v 0.167503 -0.340030 0.159925
v 0.316916 -0.253766 0.159925
v 0.340030 -0.167503 0.159925
v -0.316916 -0.253766 0.159925
v -0.340030 -0.167503 0.159925
v -0.253766 -0.316916 0.159925
v -0.167503 -0.340030 0.159925
v 0.316916 0.253766 0.159925
v 0.340030 0.167503 0.159925
v 0.253766 0.316916 0.159925
v 0.167502 0.340030 0.159925
v -0.253767 0.316916 0.159925
v -0.167503 0.340030 0.159925
v -0.316916 0.253766 0.159925
v -0.340030 0.167503 0.159925
v 0.253766 -0.316916 0.368933
v 0.167503 -0.340030 0.368933
v 0.316916 -0.253766 0.368933
v 0.340030 -0.167503 0.368933
v -0.316916 -0.253766 0.368933
v -0.340030 -0.167503 0.368933
v -0.253766 -0.316916 0.368933
v -0.167503 -0.340030 0.368933
v 0.316915 0.253766 0.368933
v 0.340030 0.167503 0.368933
v 0.253766 0.316916 0.368933
v 0.167502 0.340030 0.368933
v -0.253767 0.316916 0.368933
v -0.167503 0.340030 0.368933
v -0.316916 0.253766 0.368933
v -0.340030 0.167503 0.368933
vt 0.453650 0.036241
vt 0.591977 0.128523
vt 0.453650 0.128523
vt 0.742995 0.060586
vt 0.881323 0.188696
vt 0.742995 0.188696
vt 0.205866 0.550655
vt 0.011288 0.483445
vt 0.077431 0.285727
vt 0.453650 0.223573
vt 0.591977 0.315856
vt 0.453650 0.315856
vt 0.591977 0.069573
vt 0.730305 0.197683
vt 0.591977 0.197683
vt 0.742995 0.223402
vt 0.881323 0.223402
vt 0.742995 0.252244
vt 0.591977 0.018845
vt 0.453650 0.018845
vt 0.730305 0.232389
vt 0.591977 0.232389
vt 0.591977 0.261231
vt 0.881323 0.029315
vt 0.742995 0.029315
vt 0.453650 0.158653
vt 0.591977 0.193444
vt 0.453650 0.193444
vt 0.591977 0.223573
vt 0.591977 0.333251
vt 0.453650 0.333251
vt 0.591977 0.018845
vt 0.730305 0.038302
vt 0.591977 0.038302
vt 0.272009 0.088009
vt 0.229963 0.081405
vt 0.263148 0.054404
vt 0.046893 0.200693
vt 0.059022 0.220493
vt 0.053334 0.225120
vt 0.011288 0.218516
vt 0.020149 0.252121
vt 0.205866 0.020798
vt 0.212365 0.063523
vt 0.188326 0.056978
vt 0.077431 0.285727
vt 0.070932 0.243002
vt 0.094971 0.249547
vt 0.238937 0.276722
vt 0.229963 0.225120
vt 0.263148 0.252121
vt 0.077431 0.020798
vt 0.070932 0.063523
vt 0.044360 0.029803
vt 0.011288 0.088009
vt 0.053334 0.081405
vt 0.046893 0.105832
vt 0.094971 0.056978
vt 0.272009 0.218516
vt 0.236404 0.105832
vt 0.238938 0.029803
vt 0.044360 0.276722
vt 0.205866 0.285727
vt 0.212365 0.243002
vt 0.188326 0.249547
vt 0.236404 0.200693
vt 0.020149 0.054404
vt 0.913620 0.759680
vt 1.000000 0.790772
vt 0.913620 0.790772
vt 0.929562 0.298069
vt 0.937892 0.273595
vt 0.937892 0.297255
vt 0.097977 0.063179
vt 0.929562 0.250880
vt 0.929562 0.272781
vt 0.955049 0.068172
vt 0.963379 0.157111
vt 0.955049 0.161292
vt 0.963379 0.046386
vt 0.963379 0.069988
vt 0.963379 0.206752
vt 0.955049 0.298057
vt 0.955049 0.210934
vt 0.207811 0.237223
vt 0.224275 0.220493
vt 0.207811 0.069302
vt 0.185320 0.063179
vt 0.052995 0.197639
vt 0.955049 0.189668
vt 0.963379 0.184022
vt 0.963379 0.299872
vt 0.955049 0.321659
vt 0.963379 0.178377
vt 0.955049 0.184022
vt 0.075486 0.237223
vt 0.929562 0.319970
vt 0.937892 0.317745
vt 0.734658 0.901796
vt 0.524901 0.829343
vt 0.596205 0.616201
vt 0.914775 0.820180
vt 0.828394 0.838932
vt 0.828394 0.820180
vt 0.914775 0.518752
vt 0.828394 0.500000
vt 0.914775 0.500000
vt 0.913620 0.738706
vt 1.000000 0.759680
vt 0.913620 0.759680
vt 0.913620 0.529478
vt 1.000000 0.566891
vt 0.913620 0.566891
vt 0.913620 0.704996
vt 1.000000 0.738706
vt 0.913620 0.498386
vt 1.000000 0.529478
vt 0.913620 0.828185
vt 1.000000 0.966290
vt 0.913620 0.966290
vt 0.913620 1.000000
vt 1.000000 1.000000
vt 0.914775 0.618234
vt 0.828394 0.518752
vt 0.914775 0.650714
vt 0.828394 0.618234
vt 0.914775 0.720699
vt 0.828394 0.720699
vt 0.914775 0.688219
vt 0.828394 0.650714
vt 1.000000 0.828185
vt 1.000000 0.704996
vt 0.828394 0.688219
vt 0.591977 0.036241
vt 0.881323 0.060586
vt 0.205866 0.285727
vt 0.272009 0.352938
vt 0.238937 0.294731
vt 0.263148 0.319332
vt 0.272009 0.483445
vt 0.263148 0.517050
vt 0.238937 0.541651
vt 0.077431 0.550655
vt 0.044360 0.541651
vt 0.020149 0.517050
vt 0.011288 0.352938
vt 0.020149 0.319332
vt 0.044360 0.294731
vt 0.730305 0.069573
vt 0.881323 0.252244
vt 0.730305 0.261231
vt 0.591977 0.158653
vt 0.730305 0.018845
vt 1.000000 0.759680
vt 0.937892 0.253105
vt 0.955049 0.042945
vt 0.052995 0.108886
vt 0.224275 0.086033
vt 0.963379 0.325099
vt 0.734658 0.616201
vt 0.805961 0.688655
vt 0.770310 0.625908
vt 0.796409 0.652428
vt 0.805961 0.829343
vt 0.796409 0.865570
vt 0.770310 0.892089
vt 0.596205 0.901796
vt 0.560553 0.892089
vt 0.534454 0.865569
vt 0.524901 0.688655
vt 0.534454 0.652428
vt 0.560553 0.625908
vt 0.914775 0.838932
vt 1.000000 0.498386
vn 0.7280 -0.0958 0.6789
vn 0.7280 0.0958 -0.6789
vn 0.7280 0.0958 0.6789
vn -0.0958 -0.7280 0.6789
vn 0.0958 -0.7280 -0.6789
vn 0.0958 -0.7280 0.6789
vn -0.0958 0.7280 -0.6789
vn 0.0958 0.7280 0.6789
vn -0.0958 0.7280 0.6789
vn -0.7280 0.0958 0.6789
vn -0.7280 -0.0958 -0.6789
vn -0.7280 -0.0958 0.6789
vn 0.3786 -0.6557 0.6532
vn 0.3786 -0.6557 -0.6532
vn 0.6557 -0.3786 0.6532
vn 0.6557 -0.3786 -0.6532
vn -0.6557 -0.3786 -0.6532
vn -0.6557 -0.3786 0.6532
vn -0.3786 -0.6557 0.6532
vn -0.3786 -0.6557 -0.6532
vn 0.6557 0.3786 0.6532
vn 0.3786 0.6557 -0.6532
vn 0.3786 0.6557 0.6532
vn 0.0958 0.7280 -0.6789
vn -0.3786 0.6557 -0.6532
vn -0.3786 0.6557 0.6532
vn -0.6557 0.3786 -0.6532
vn -0.6557 0.3786 0.6532
vn -0.3049 0.1819 0.9348
vn 0.4046 -0.0598 0.9125
vn -0.1606 0.1183 0.9799
vn 0.3049 -0.1819 0.9348
vn -0.1819 0.3049 0.9348
vn -0.0598 0.4046 0.9125
vn 0.1819 -0.3049 0.9348
vn 0.0598 -0.4046 0.9125
vn -0.3049 -0.1819 0.9348
vn 0.1819 0.3049 0.9348
vn 0.3049 0.1819 0.9348
vn 0.4046 0.0598 0.9125
vn 0.0598 0.4046 0.9125
vn -0.4046 0.0598 0.9125
vn -0.1819 -0.3049 0.9348
vn -0.0598 -0.4046 0.9125
vn -0.4046 -0.0598 0.9125
vn 0.1606 -0.1183 0.9799
vn 0.1183 -0.1606 0.9799
vn -0.1183 -0.1606 0.9799
vn -0.1606 -0.1183 0.9799
vn -0.0553 -0.2427 0.9685
vn 0.2427 -0.0553 0.9685
vn 0.1606 0.1183 0.9799
vn 0.2427 0.0553 0.9685
vn -0.0553 0.2427 0.9685
vn 0.0553 0.2427 0.9685
vn 0.1183 0.1606 0.9799
vn 0.0553 -0.2427 0.9685
vn -0.2427 0.0553 0.9685
vn -0.1183 0.1606 0.9799
vn -0.2427 -0.0553 0.9685
vn 0.7280 -0.0958 -0.6789
vn -0.0958 -0.7280 -0.6789
vn -0.7280 0.0958 -0.6789
vn 0.6557 0.3786 -0.6532
usemtl Material
s 1
f 2/1/1 30/2/2 17/3/3
f 6/4/4 14/5/5 1/6/6
f 26/7/7 30/8/2 14/9/5
f 18/10/8 26/11/7 21/12/9
f 22/13/10 10/14/11 5/15/12
f 14/5/5 3/16/13 1/6/6
f 16/17/14 4/18/15 3/16/13
f 15/19/16 2/1/1 4/20/15
f 5/15/12 12/21/17 7/22/18
f 12/21/17 8/23/19 7/22/18
f 11/24/20 6/4/4 8/25/19
f 30/2/2 19/26/21 17/3/3
f 19/26/21 31/27/22 20/28/23
f 20/28/23 29/29/24 18/10/8
f 21/12/9 28/30/25 23/31/26
f 23/32/26 27/33/27 24/34/28
f 27/33/27 22/13/10 24/34/28
f 2/35/1 35/36/29 4/37/15
f 48/38/30 63/39/31 47/40/32
f 22/41/10 47/40/32 24/42/28
f 1/43/6 33/44/33 34/45/34
f 21/46/9 45/47/35 46/48/36
f 20/49/23 41/50/37 19/51/21
f 6/52/4 39/53/38 8/54/19
f 5/55/12 37/56/39 38/57/40
f 6/52/4 34/45/34 40/58/41
f 17/59/3 36/60/42 2/35/1
f 4/37/15 33/44/33 3/61/13
f 24/42/28 45/47/35 23/62/26
f 18/63/8 43/64/43 20/49/23
f 18/63/8 46/48/36 44/65/44
f 17/59/3 41/50/37 42/66/45
f 5/55/12 48/38/30 22/41/10
f 8/54/19 37/56/39 7/67/18
f 51/68/46 65/69/13 49/70/47
f 37/71/39 55/72/48 53/73/49
f 34/45/34 56/74/50 40/58/41
f 40/75/41 55/72/48 39/76/38
f 42/77/45 52/78/51 36/79/42
f 42/77/45 57/80/52 58/81/53
f 44/82/44 62/83/54 60/84/55
f 41/50/37 59/85/56 57/86/52
f 34/45/34 49/87/47 50/88/57
f 38/57/40 64/89/58 48/38/30
f 44/82/44 59/90/56 43/91/43
f 35/36/29 49/87/47 33/44/33
f 46/92/36 61/93/59 62/83/54
f 36/79/42 51/94/46 35/95/29
f 47/40/32 61/96/59 45/47/35
f 38/97/40 53/73/49 54/98/60
f 76/99/8 80/100/10 72/101/4
f 62/102/54 77/103/26 78/104/9
f 52/105/51 67/106/15 51/107/46
f 63/108/31 77/109/26 61/110/59
f 53/111/49 70/112/12 54/113/60
f 64/114/58 79/115/28 63/108/31
f 55/116/48 69/117/18 53/111/49
f 50/118/57 72/119/4 56/120/50
f 55/121/48 72/119/4 71/122/19
f 58/123/53 68/124/1 52/105/51
f 57/125/52 74/126/3 58/123/53
f 60/127/55 78/104/9 76/128/8
f 59/129/56 73/130/21 57/125/52
f 49/70/47 66/131/6 50/118/57
f 54/113/60 80/132/10 64/114/58
f 59/129/56 76/128/8 75/133/23
f 2/1/1 13/134/61 30/2/2
f 6/4/4 9/135/62 14/5/5
f 14/9/5 9/136/62 10/137/11
f 11/138/20 12/139/17 10/137/11
f 10/137/11 25/140/63 26/7/7
f 27/141/27 28/142/25 26/7/7
f 26/7/7 29/143/24 30/8/2
f 31/144/22 32/145/64 30/8/2
f 30/8/2 13/146/61 14/9/5
f 15/147/16 16/148/14 14/9/5
f 9/136/62 11/138/20 10/137/11
f 25/140/63 27/141/27 26/7/7
f 29/143/24 31/144/22 30/8/2
f 13/146/61 15/147/16 14/9/5
f 14/9/5 10/137/11 26/7/7
f 18/10/8 29/29/24 26/11/7
f 22/13/10 25/149/63 10/14/11
f 14/5/5 16/17/14 3/16/13
f 16/17/14 15/150/16 4/18/15
f 15/19/16 13/134/61 2/1/1
f 5/15/12 10/14/11 12/21/17
f 12/21/17 11/151/20 8/23/19
f 11/24/20 9/135/62 6/4/4
f 30/2/2 32/152/64 19/26/21
f 19/26/21 32/152/64 31/27/22
f 20/28/23 31/27/22 29/29/24
f 21/12/9 26/11/7 28/30/25
f 23/32/26 28/153/25 27/33/27
f 27/33/27 25/149/63 22/13/10
f 2/35/1 36/60/42 35/36/29
f 48/38/30 64/89/58 63/39/31
f 22/41/10 48/38/30 47/40/32
f 1/43/6 3/61/13 33/44/33
f 21/46/9 23/62/26 45/47/35
f 20/49/23 43/64/43 41/50/37
f 6/52/4 40/58/41 39/53/38
f 5/55/12 7/67/18 37/56/39
f 6/52/4 1/43/6 34/45/34
f 17/59/3 42/66/45 36/60/42
f 4/37/15 35/36/29 33/44/33
f 24/42/28 47/40/32 45/47/35
f 18/63/8 44/65/44 43/64/43
f 18/63/8 21/46/9 46/48/36
f 17/59/3 19/51/21 41/50/37
f 5/55/12 38/57/40 48/38/30
f 8/54/19 39/53/38 37/56/39
f 51/68/46 67/154/15 65/69/13
f 37/71/39 39/76/38 55/72/48
f 34/45/34 50/88/57 56/74/50
f 40/75/41 56/155/50 55/72/48
f 42/77/45 58/81/53 52/78/51
f 42/77/45 41/156/37 57/80/52
f 44/82/44 46/92/36 62/83/54
f 41/50/37 43/64/43 59/85/56
f 34/45/34 33/44/33 49/87/47
f 38/57/40 54/157/60 64/89/58
f 44/82/44 60/84/55 59/90/56
f 35/36/29 51/158/46 49/87/47
f 46/92/36 45/159/35 61/93/59
f 36/79/42 52/78/51 51/94/46
f 47/40/32 63/39/31 61/96/59
f 38/97/40 37/71/39 53/73/49
f 72/101/4 66/160/6 68/161/1
f 65/162/13 67/163/15 68/161/1
f 68/161/1 74/164/3 76/99/8
f 73/165/21 75/166/23 76/99/8
f 76/99/8 78/167/9 80/100/10
f 77/168/26 79/169/28 80/100/10
f 80/100/10 70/170/12 72/101/4
f 69/171/18 71/172/19 72/101/4
f 66/160/6 65/162/13 68/161/1
f 74/164/3 73/165/21 76/99/8
f 78/167/9 77/168/26 80/100/10
f 70/170/12 69/171/18 72/101/4
f 72/101/4 68/161/1 76/99/8
f 62/102/54 61/173/59 77/103/26
f 52/105/51 68/124/1 67/106/15
f 63/108/31 79/115/28 77/109/26
f 53/111/49 69/117/18 70/112/12
f 64/114/58 80/132/10 79/115/28
f 55/116/48 71/174/19 69/117/18
f 50/118/57 66/131/6 72/119/4
f 55/121/48 56/120/50 72/119/4
f 58/123/53 74/126/3 68/124/1
f 57/125/52 73/130/21 74/126/3
f 60/127/55 62/102/54 78/104/9
f 59/129/56 75/133/23 73/130/21
f 49/70/47 65/69/13 66/131/6
f 54/113/60 70/112/12 80/132/10
f 59/129/56 60/127/55 76/128/8
