# Blender v2.79 (sub 0) OBJ File: 'death_fountain.blend'
# www.blender.org
mtllib death_fountain.mtl
o Circle.004_Circle.040
v 0.000000 -0.828559 -6.279828
v -3.843092 -0.828559 -3.139914
v -3.843092 -0.828559 3.139914
v 0.000000 -0.828559 6.279828
v 3.843092 -0.828559 3.139913
v 3.843092 -0.828559 -3.139913
v 0.000000 0.914793 -6.279828
v -3.843092 0.914793 -3.139914
v -3.843092 0.914793 3.139914
v 0.000000 0.914793 6.279828
v 3.843092 0.914793 3.139913
v 3.843092 0.914793 -3.139913
v 0.000000 0.914793 -5.286979
v -3.235494 0.914793 -2.643489
v -3.235494 0.914793 2.643490
v 0.000000 0.914793 5.286979
v 3.235494 0.914793 2.643489
v 3.235494 0.914793 -2.643489
v 0.000000 -0.584196 -5.286979
v -3.235494 -0.584196 -2.643489
v -3.235494 -0.584196 2.643490
v 0.000000 -0.584196 5.286979
v 3.235494 -0.584196 2.643489
v 3.235494 -0.584196 -2.643489
vt 0.494258 0.000174
vt 0.527287 0.213227
vt 0.440405 0.077098
vt 0.619031 0.227198
vt 0.426916 0.357725
vt 0.142284 0.435386
vt 0.097158 0.219313
vt 0.196529 0.356733
vt 0.176330 0.000174
vt 0.211959 0.083736
vt 0.464188 0.441559
vt 0.000174 0.202291
vt 0.560505 0.646992
vt 0.456494 0.441909
vt 0.610515 0.647081
vt 0.161111 0.441907
vt 0.051708 0.640642
vt 0.000174 0.640995
vt 0.187354 0.814022
vt 0.457597 0.843673
vt 0.164783 0.841610
vt 0.433581 0.469462
vt 0.394171 0.530643
vt 0.182752 0.467610
vt 0.131018 0.647164
vt 0.409369 0.755176
vt 0.436349 0.818335
vt 0.481846 0.641272
vt 0.211131 0.532191
vt 0.225750 0.751619
vt 0.619379 0.200575
vt 0.783113 0.000174
vt 0.783113 0.334350
vt 0.999826 0.679942
vt 0.805345 0.838839
vt 0.805345 0.441907
vt 0.946846 0.301037
vt 0.946846 0.133949
vt 0.619379 0.033487
vt 0.610864 0.600804
vt 0.999826 0.481477
vt 0.610864 0.799270
vn -0.6327 0.0000 -0.7744
vn 0.6327 0.0000 -0.7744
vn 0.6327 0.0000 0.7744
vn -1.0000 0.0000 0.0000
vn 1.0000 0.0000 0.0000
vn -0.6327 0.0000 0.7744
vn 0.0000 1.0000 0.0000
vn 0.0000 -1.0000 0.0000
usemtl Material.001
s off
f 8/1/1 1/2/1 2/3/1
f 7/4/2 6/5/2 1/2/2
f 11/6/3 4/7/3 5/8/3
f 9/9/4 2/3/4 3/10/4
f 12/11/5 5/8/5 6/5/5
f 10/12/6 3/10/6 4/7/6
f 13/13/7 12/14/7 7/15/7
f 11/16/7 16/17/7 10/18/7
f 15/19/7 8/20/7 9/21/7
f 18/22/7 11/16/7 12/14/7
f 16/17/7 9/21/7 10/18/7
f 8/20/7 13/13/7 7/15/7
f 24/23/4 17/24/4 18/22/4
f 22/25/2 15/19/2 16/17/2
f 20/26/3 13/13/3 14/27/3
f 19/28/6 18/22/6 13/13/6
f 23/29/1 16/17/1 17/24/1
f 21/30/5 14/27/5 15/19/5
f 21/31/7 23/32/7 20/33/7
f 6/34/8 5/35/8 2/36/8
f 8/1/1 7/4/1 1/2/1
f 7/4/2 12/11/2 6/5/2
f 11/6/3 10/12/3 4/7/3
f 9/9/4 8/1/4 2/3/4
f 12/11/5 11/6/5 5/8/5
f 10/12/6 9/9/6 3/10/6
f 13/13/7 18/22/7 12/14/7
f 11/16/7 17/24/7 16/17/7
f 15/19/7 14/27/7 8/20/7
f 18/22/7 17/24/7 11/16/7
f 16/17/7 15/19/7 9/21/7
f 8/20/7 14/27/7 13/13/7
f 24/23/4 23/29/4 17/24/4
f 22/25/2 21/30/2 15/19/2
f 20/26/3 19/28/3 13/13/3
f 19/28/6 24/23/6 18/22/6
f 23/29/1 22/25/1 16/17/1
f 21/30/5 20/26/5 14/27/5
f 19/37/7 20/33/7 24/38/7
f 21/31/7 22/39/7 23/32/7
f 23/32/7 24/38/7 20/33/7
f 3/40/8 2/36/8 5/35/8
f 1/41/8 6/34/8 2/36/8
f 5/35/8 4/42/8 3/40/8
