# Blender v2.79 (sub 0) OBJ File: 'grail.blend'
# www.blender.org
mtllib grail.mtl
o grail_Cube
v 0.708414 0.743029 0.000000
v 0.708414 0.508068 0.000000
v 0.118987 0.537438 0.206092
v 0.205647 0.566808 0.356191
v 0.292307 0.654919 0.506291
v 0.354207 0.743029 0.613505
v 0.403727 0.831140 0.699276
v 0.416107 0.977991 0.720719
v 0.465627 0.977991 0.806490
v 0.453247 0.860510 0.785047
v 0.428487 0.684289 0.742161
v 0.391347 0.566808 0.677833
v 0.354207 0.508068 0.613505
v 0.275472 0.403720 0.477131
v 0.193267 0.331847 0.334749
v 0.143747 0.243736 0.248977
v 0.118987 0.096885 0.206092
v 0.094227 -0.049966 0.163206
v 0.081847 -0.255558 0.141764
v 0.081847 -0.461149 0.141764
v 0.118987 -0.666740 0.206092
v 0.168507 -0.725481 0.291863
v 0.255167 -0.813591 0.441962
v 0.354207 -0.872332 0.613505
v 0.391347 -0.901702 0.677833
v 0.391347 -0.989813 0.677833
v 0.230407 -0.931072 0.399077
v 0.044707 -0.901702 0.077435
v -0.118987 0.537438 0.206092
v -0.205647 0.566808 0.356191
v -0.292307 0.654919 0.506291
v -0.354207 0.743029 0.613505
v -0.403727 0.831140 0.699276
v -0.416107 0.977991 0.720719
v -0.465627 0.977991 0.806490
v -0.453247 0.860510 0.785047
v -0.428487 0.684289 0.742161
v -0.391347 0.566808 0.677833
v -0.354207 0.508068 0.613505
v -0.275472 0.403720 0.477131
v -0.193267 0.331847 0.334749
v -0.143747 0.243736 0.248977
v -0.118987 0.096885 0.206092
v -0.094227 -0.049966 0.163206
v -0.081847 -0.255558 0.141764
v -0.081847 -0.461149 0.141764
v -0.118987 -0.666740 0.206092
v -0.168507 -0.725481 0.291863
v -0.255167 -0.813591 0.441962
v -0.354207 -0.872332 0.613505
v -0.391347 -0.901702 0.677833
v -0.391347 -0.989813 0.677833
v -0.230407 -0.931072 0.399077
v -0.044707 -0.901702 0.077435
v -0.237974 0.537438 -0.000000
v -0.411294 0.566808 -0.000000
v -0.584614 0.654919 -0.000000
v -0.708414 0.743029 -0.000000
v -0.807454 0.831140 -0.000000
v -0.832214 0.977991 -0.000000
v -0.931254 0.977991 -0.000000
v -0.906494 0.860510 -0.000000
v -0.856974 0.684289 -0.000000
v -0.782694 0.566808 -0.000000
v -0.708414 0.508068 -0.000000
v -0.550943 0.403720 -0.000000
v -0.386534 0.331847 -0.000000
v -0.287494 0.243736 -0.000000
v -0.237974 0.096885 -0.000000
v -0.188454 -0.049966 -0.000000
v -0.163694 -0.255558 -0.000000
v -0.163694 -0.461149 -0.000000
v -0.237974 -0.666740 -0.000000
v -0.337014 -0.725481 -0.000000
v -0.510334 -0.813591 -0.000000
v -0.708414 -0.872332 -0.000000
v -0.782694 -0.901702 -0.000000
v -0.782694 -0.989813 -0.000000
v -0.460814 -0.931072 -0.000000
v -0.089415 -0.901702 -0.000000
v -0.118987 0.537438 -0.206092
v -0.205647 0.566808 -0.356191
v -0.292307 0.654919 -0.506291
v -0.354207 0.743029 -0.613505
v -0.403727 0.831140 -0.699276
v -0.416107 0.977991 -0.720719
v -0.465627 0.977991 -0.806490
v -0.453247 0.860510 -0.785047
v -0.428487 0.684289 -0.742161
v -0.391347 0.566808 -0.677833
v -0.354207 0.508068 -0.613505
v -0.275471 0.403720 -0.477131
v -0.193267 0.331847 -0.334749
v -0.143747 0.243736 -0.248977
v -0.118987 0.096885 -0.206092
v -0.094227 -0.049966 -0.163206
v -0.081847 -0.255558 -0.141764
v -0.081847 -0.461149 -0.141764
v -0.118987 -0.666740 -0.206092
v -0.168507 -0.725481 -0.291863
v -0.255167 -0.813591 -0.441962
v -0.354207 -0.872332 -0.613505
v -0.391347 -0.901702 -0.677833
v -0.391347 -0.989813 -0.677833
v -0.230407 -0.931072 -0.399077
v -0.044707 -0.901702 -0.077435
v 0.118987 0.537438 -0.206092
v 0.205647 0.566808 -0.356191
v 0.292307 0.654919 -0.506291
v 0.354207 0.743029 -0.613505
v 0.403727 0.831140 -0.699276
v 0.416107 0.977991 -0.720718
v 0.465627 0.977991 -0.806490
v 0.453247 0.860510 -0.785047
v 0.428487 0.684289 -0.742161
v 0.391347 0.566808 -0.677833
v 0.354207 0.508068 -0.613505
v 0.275472 0.403720 -0.477131
v 0.193267 0.331847 -0.334748
v 0.143747 0.243736 -0.248977
v 0.118987 0.096885 -0.206092
v 0.094227 -0.049966 -0.163206
v 0.081847 -0.255558 -0.141764
v 0.081847 -0.461149 -0.141764
v 0.118987 -0.666740 -0.206092
v 0.168507 -0.725481 -0.291863
v 0.255167 -0.813591 -0.441962
v 0.354207 -0.872332 -0.613505
v 0.391347 -0.901702 -0.677833
v 0.391347 -0.989813 -0.677833
v 0.230407 -0.931072 -0.399077
v 0.044707 -0.901702 -0.077435
v 0.237974 0.537438 0.000000
v 0.411294 0.566808 0.000000
v 0.584614 0.654919 0.000000
v 0.807454 0.831140 0.000000
v 0.832214 0.977991 0.000000
v 0.931254 0.977991 0.000000
v 0.906494 0.860510 0.000000
v 0.856974 0.684289 0.000000
v 0.782694 0.566808 0.000000
v 0.550943 0.403720 0.000000
v 0.386534 0.331847 0.000000
v 0.287494 0.243736 0.000000
v 0.237974 0.096885 0.000000
v 0.188454 -0.049966 0.000000
v 0.163695 -0.255558 0.000000
v 0.163695 -0.461149 0.000000
v 0.237974 -0.666740 0.000000
v 0.337014 -0.725481 0.000000
v 0.510334 -0.813591 0.000000
v 0.708414 -0.872332 0.000000
v 0.782694 -0.901702 0.000000
v 0.782694 -0.989813 0.000000
v 0.460814 -0.931072 0.000000
v 0.089415 -0.901702 0.000000
vt 0.686741 1.552187
vt 0.528133 1.708239
vt 0.525094 1.839759
vt 0.750540 1.617947
vt 1.052663 0.401240
vt 1.088837 0.414401
vt 1.093826 0.283633
vt 1.057652 0.270472
vt 0.541580 -0.461846
vt 0.239035 -0.169760
vt 0.269089 -0.145339
vt 0.542922 -0.409705
vt 0.956808 1.552187
vt 1.133959 1.727027
vt 1.135294 1.445198
vt 1.100920 1.411273
vt 0.522056 1.933702
vt 0.795243 1.664919
vt 1.082084 0.155194
vt 1.029496 0.136061
vt 0.332344 -0.092221
vt 0.545307 -0.297823
vt 0.519017 2.008857
vt 0.830397 1.702497
vt -0.125105 1.587481
vt -0.216876 1.677773
vt -0.214850 1.752927
vt -0.084887 1.625059
vt 0.397537 -0.034292
vt 0.546950 -0.178539
vt 0.093059 1.228407
vt 0.093058 1.841128
vt 0.147399 1.850522
vt 0.147399 1.219013
vt -0.211812 1.884447
vt -0.015011 1.690819
vt 0.437834 -0.002383
vt 0.548963 -0.109671
vt -0.472412 -0.119160
vt -0.151484 -0.434915
vt -0.151484 -0.510069
vt -0.510605 -0.156738
vt -0.209786 2.034756
vt 0.063401 1.765973
vt 1.222332 0.071501
vt 1.286611 0.046245
vt 1.264467 -0.046855
vt 1.211260 -0.025949
vt 1.593484 1.136747
vt 1.545275 0.783415
vt 1.501386 0.802204
vt 1.548312 1.146142
vt -0.208773 2.091122
vt 0.093058 1.794156
vt 1.242323 -0.139955
vt 1.200189 -0.123400
vt 1.435551 0.839781
vt 1.479914 1.164930
vt 1.435022 -0.507310
vt 1.417823 -0.208549
vt 1.450878 -0.211308
vt 1.468076 -0.510069
vt 0.620916 1.486427
vt 0.529146 1.576718
vt 1.231252 -0.270295
vt 1.194653 -0.255915
vt 0.538895 -0.510069
vt 0.207638 -0.190264
vt 0.830397 1.674314
vt 1.131289 1.971280
vt 1.048833 0.735864
vt 1.177122 0.749960
vt 1.169742 0.652573
vt 1.063551 0.640905
vt 0.870153 -0.510069
vt 0.870153 0.196595
vt 0.915096 0.187200
vt 0.915096 -0.500675
vt -0.482973 1.765973
vt -0.510605 1.794156
vt 1.162364 0.555186
vt 1.078269 0.545946
vt 0.982919 0.168411
vt 0.982919 -0.481886
vt 1.435022 0.384666
vt 1.468076 0.381906
vt 0.437375 1.486427
vt 0.369525 1.552187
vt 1.161881 0.422427
vt 1.029496 0.140229
vt 1.029496 -0.453704
vt 1.432179 1.674313
vt 1.311109 1.552187
vt 0.299649 1.617947
vt 1.166871 0.291659
vt 0.239035 0.420925
vt 0.269089 0.389288
vt 1.169667 1.411273
vt 0.248869 1.664919
vt 1.188275 0.166863
vt 0.332344 0.323565
vt 0.207637 1.702496
vt -0.308647 1.587481
vt -0.344814 1.625059
vt 0.397537 0.257418
vt 0.119704 2.147488
vt 0.174862 2.166277
vt -0.408613 1.690819
vt 0.437834 0.214583
vt 0.169444 -0.119160
vt 0.207637 -0.156738
vt 0.989741 2.497537
vt 1.043504 2.500021
vt 1.047737 2.402095
vt 1.005162 2.400128
vt 0.945010 0.531138
vt 1.011199 0.493560
vt 1.319705 0.677795
vt 1.345534 0.380829
vt 1.312439 0.380829
vt 1.286611 0.677795
vt 0.437375 1.305845
vt 0.369525 1.240085
vt 1.204812 0.549275
vt 1.198753 0.417293
vt 0.207637 0.456479
vt 0.538895 0.783415
vt 0.541580 0.719524
vt 1.432179 1.080381
vt 1.311109 1.202507
vt 0.299649 1.174325
vt 1.203743 0.286525
vt 0.542922 0.659549
vt 1.169667 1.343422
vt 0.248869 1.127353
vt 1.241879 0.159398
vt 0.545307 0.533751
vt 0.207637 1.089776
vt -0.308647 1.406899
vt -0.344814 1.369322
vt 0.546950 0.404882
vt 1.166914 1.980674
vt 1.166914 2.593395
vt 1.220495 2.602789
vt 1.220495 1.971280
vt -0.408613 1.303562
vt 0.548963 0.324263
vt 0.169444 0.512349
vt 0.207637 0.549926
vt -0.482973 1.228407
vt 1.241879 0.740943
vt 1.223346 0.645109
vt 0.900884 0.549927
vt -0.510605 1.200224
vt 1.345534 -0.213103
vt 1.312439 -0.213103
vt 0.529146 1.215554
vt 0.528133 1.084033
vt 1.131409 2.385073
vt 1.116623 2.254704
vt 1.043945 2.269490
vt 0.943164 1.999463
vt 0.943164 2.649760
vt 0.989741 2.621578
vt 0.989741 2.027645
vt 1.131289 0.783415
vt 1.133959 1.027668
vt 0.525094 0.952513
vt 1.107431 2.124594
vt 1.034753 2.139380
vt 0.844125 0.427438
vt 0.816755 0.395183
vt 1.135294 1.309497
vt 0.522056 0.858570
vt 1.115021 1.995259
vt 1.009363 2.016754
vt 0.758270 0.328149
vt 0.519017 0.783415
vt -0.216876 1.316608
vt -0.214850 1.241454
vt 0.696362 0.260635
vt 1.363276 -0.486704
vt 1.345534 -0.178492
vt 1.399536 -0.192406
vt 1.417823 -0.510069
vt -0.211812 1.109933
vt 0.660092 0.216976
vt -0.151484 0.828104
vt -0.151484 0.903258
vt -0.209786 0.959624
vt 1.039271 2.597947
vt 1.166914 2.571979
vt 1.149161 2.478526
vt 0.830397 1.971280
vt 0.830397 2.677943
vt 0.875341 2.668549
vt 0.875341 1.980674
vt -0.208773 0.903258
vt 0.870153 0.463610
vt 0.870153 -0.183133
vt 0.844125 -0.163247
vt 0.830397 1.080381
vt 0.956808 1.202507
vt 0.686741 1.240085
vt 0.750540 1.174324
vt 1.152319 2.238209
vt 1.143127 2.108099
vt 0.816755 -0.139444
vt 1.100920 1.343422
vt 0.795243 1.127353
vt 1.166914 1.971280
vt 0.758270 -0.087637
vt 0.830397 1.089776
vt -0.125105 1.406899
vt -0.084887 1.369322
vt 0.696362 -0.031076
vt 1.363276 0.433489
vt 1.417823 0.438340
vt -0.015011 1.303562
vt 0.660092 0.000009
vt -0.472412 0.512349
vt -0.510605 0.549926
vt 0.063401 1.228407
vt 1.029496 0.046245
vt 1.093775 0.071501
vt 1.104846 -0.025949
vt 1.051639 -0.046855
vt 1.545275 2.196743
vt 1.593484 1.843411
vt 1.548312 1.834017
vt 1.501386 2.177955
vt 0.093058 1.200224
vt 1.115918 -0.123400
vt 1.073783 -0.139955
vt 1.479914 1.815228
vt 1.435551 2.140377
vt 1.319705 -0.510069
vt 1.286611 -0.510069
vt 0.620916 1.305845
vt 1.121454 -0.255915
vt 1.084855 -0.270295
vt 1.121454 -0.386255
vt 1.194653 -0.386255
vt 1.211260 -0.510069
vt 1.104846 -0.510069
vt 0.119704 0.922047
vt 0.174862 0.903258
vt 1.071631 0.136061
vt 1.244476 0.136061
vt 1.274796 0.729994
vt 1.274796 0.136061
vt 1.241879 0.136061
vt 1.241879 0.729994
vt 1.432179 1.193113
vt 1.432179 1.787045
vn -0.4384 0.8624 -0.2531
vn 0.8660 0.0000 0.5000
vn 0.5840 -0.7385 0.3372
vn -0.0788 -0.9959 -0.0455
vn -0.5499 0.7726 -0.3175
vn 0.8265 0.2986 0.4772
vn 0.5263 -0.7942 0.3038
vn -0.6206 0.6975 -0.3583
vn 0.4893 0.8251 0.2825
vn 0.3903 -0.8927 0.2253
vn -0.8569 0.1445 -0.4948
vn 0.4384 0.8624 0.2531
vn 0.6206 -0.6975 0.3583
vn 0.0000 1.0000 0.0000
vn 0.2806 0.9461 0.1620
vn 0.8313 -0.2803 0.4800
vn 0.8520 -0.1796 0.4919
vn 0.3597 0.9097 0.2077
vn 0.8415 -0.2365 0.4858
vn -0.1663 0.9814 -0.0960
vn 0.8614 -0.1037 0.4973
vn 0.7596 -0.4803 0.4386
vn -0.1786 -0.9785 -0.1031
vn -0.0000 -0.2803 0.9599
vn -0.0000 -0.1796 0.9837
vn 0.0000 0.9097 0.4153
vn 0.0000 -0.2365 0.9716
vn -0.0000 0.0000 1.0000
vn 0.0000 0.9814 -0.1920
vn 0.0000 -0.1037 0.9946
vn -0.0000 -0.4803 0.8771
vn 0.0000 -0.9785 -0.2062
vn 0.0000 0.8624 -0.5062
vn 0.0000 -0.7385 0.6743
vn 0.0000 -0.9959 -0.0909
vn 0.0000 0.7726 -0.6349
vn 0.0000 0.2986 0.9544
vn 0.0000 -0.7942 0.6077
vn 0.0000 0.6975 -0.7166
vn 0.0000 0.8251 0.5650
vn -0.0000 -0.8927 0.4506
vn 0.0000 0.1445 -0.9895
vn -0.0000 0.8624 0.5062
vn -0.0000 -0.6975 0.7166
vn 0.0000 0.9461 0.3240
vn -0.8313 -0.2803 0.4800
vn -0.8415 -0.2365 0.4858
vn -0.8660 0.0000 0.5000
vn 0.1663 0.9814 -0.0960
vn -0.8614 -0.1037 0.4973
vn -0.7596 -0.4803 0.4386
vn 0.1786 -0.9785 -0.1031
vn 0.4384 0.8624 -0.2531
vn -0.5840 -0.7385 0.3372
vn 0.0788 -0.9959 -0.0455
vn 0.5499 0.7726 -0.3175
vn -0.8265 0.2986 0.4772
vn -0.5263 -0.7942 0.3038
vn 0.6206 0.6975 -0.3583
vn -0.4893 0.8251 0.2825
vn -0.3903 -0.8927 0.2253
vn 0.8569 0.1445 -0.4948
vn -0.4384 0.8624 0.2531
vn -0.6206 -0.6975 0.3583
vn -0.2806 0.9461 0.1620
vn -0.8520 -0.1796 0.4919
vn -0.3597 0.9097 0.2077
vn -0.8660 0.0000 -0.5000
vn 0.1663 0.9814 0.0960
vn -0.8614 -0.1037 -0.4973
vn -0.7596 -0.4803 -0.4386
vn 0.1786 -0.9785 0.1031
vn -0.5840 -0.7385 -0.3372
vn 0.0788 -0.9959 0.0455
vn 0.5499 0.7726 0.3175
vn -0.8265 0.2986 -0.4772
vn -0.5263 -0.7942 -0.3038
vn 0.6206 0.6975 0.3583
vn -0.4893 0.8251 -0.2825
vn -0.3903 -0.8927 -0.2253
vn 0.8569 0.1445 0.4948
vn -0.6206 -0.6975 -0.3583
vn -0.2806 0.9461 -0.1620
vn -0.8313 -0.2803 -0.4800
vn -0.8520 -0.1796 -0.4919
vn -0.3597 0.9097 -0.2077
vn -0.8415 -0.2365 -0.4858
vn 0.0000 -0.4803 -0.8771
vn -0.0000 -0.9785 0.2062
vn 0.0000 0.0000 -1.0000
vn 0.0000 -0.7385 -0.6743
vn -0.0000 -0.9959 0.0909
vn -0.0000 0.7726 0.6349
vn 0.0000 0.2986 -0.9544
vn 0.0000 -0.7942 -0.6077
vn -0.0000 0.6975 0.7166
vn 0.0000 0.8251 -0.5650
vn 0.0000 -0.8927 -0.4506
vn -0.0000 0.1445 0.9895
vn 0.0000 -0.6975 -0.7166
vn 0.0000 0.9461 -0.3240
vn 0.0000 -0.2803 -0.9599
vn 0.0000 -0.1796 -0.9837
vn 0.0000 0.9097 -0.4153
vn 0.0000 -0.2365 -0.9716
vn -0.0000 0.9814 0.1920
vn 0.0000 -0.1037 -0.9946
vn 0.5840 -0.7385 -0.3372
vn -0.0788 -0.9959 0.0455
vn -0.5499 0.7726 0.3175
vn 0.8265 0.2986 -0.4772
vn 0.5263 -0.7942 -0.3038
vn -0.6206 0.6975 0.3583
vn 0.4893 0.8251 -0.2825
vn 0.3903 -0.8927 -0.2253
vn -0.8569 0.1445 0.4948
vn 0.6206 -0.6975 -0.3583
vn 0.2806 0.9461 -0.1620
vn 0.8313 -0.2803 -0.4800
vn 0.8520 -0.1796 -0.4919
vn 0.3597 0.9097 -0.2077
vn 0.8415 -0.2365 -0.4858
vn 0.8660 0.0000 -0.5000
vn -0.1663 0.9814 0.0960
vn 0.8614 -0.1037 -0.4973
vn 0.7596 -0.4803 -0.4386
vn -0.1786 -0.9785 0.1031
vn 0.0000 -1.0000 -0.0000
usemtl Material
s off
f 134/1/1 4/2/1 5/3/1 135/4/1
f 147/5/2 19/6/2 20/7/2 148/8/2
f 141/9/3 12/10/3 13/11/3 2/12/3
f 155/13/4 27/14/4 28/15/4 156/16/4
f 135/4/5 5/3/5 6/17/5 1/18/5
f 148/8/6 20/7/6 21/19/6 149/20/6
f 2/12/7 13/11/7 14/21/7 142/22/7
f 1/18/8 6/17/8 7/23/8 136/24/8
f 149/25/9 21/26/9 22/27/9 150/28/9
f 142/22/10 14/21/10 15/29/10 143/30/10
f 136/31/11 7/32/11 8/33/11 137/34/11
f 150/28/12 22/27/12 23/35/12 151/36/12
f 143/30/13 15/29/13 16/37/13 144/38/13
f 137/39/14 8/40/14 9/41/14 138/42/14
f 151/36/15 23/35/15 24/43/15 152/44/15
f 144/45/16 16/46/16 17/47/16 145/48/16
f 138/49/17 9/50/17 10/51/17 139/52/17
f 152/44/18 24/43/18 25/53/18 153/54/18
f 145/48/16 17/47/16 18/55/16 146/56/16
f 139/52/19 10/51/19 11/57/19 140/58/19
f 153/59/2 25/60/2 26/61/2 154/62/2
f 133/63/20 3/64/20 4/2/20 134/1/20
f 146/56/21 18/55/21 19/65/21 147/66/21
f 140/67/22 11/68/22 12/10/22 141/9/22
f 154/69/23 26/70/23 27/14/23 155/13/23
f 16/71/24 42/72/24 43/73/24 17/74/24
f 9/75/25 35/76/25 36/77/25 10/78/25
f 24/43/26 50/79/26 51/80/26 25/53/26
f 17/74/24 43/73/24 44/81/24 18/82/24
f 10/78/27 36/77/27 37/83/27 11/84/27
f 25/60/28 51/85/28 52/86/28 26/61/28
f 3/64/29 29/87/29 30/88/29 4/2/29
f 18/82/30 44/81/30 45/89/30 19/6/30
f 11/84/31 37/83/31 38/90/31 12/91/31
f 26/70/32 52/92/32 53/93/32 27/14/32
f 4/2/33 30/88/33 31/94/33 5/3/33
f 19/6/28 45/89/28 46/95/28 20/7/28
f 12/10/34 38/96/34 39/97/34 13/11/34
f 27/14/35 53/93/35 54/98/35 28/15/35
f 5/3/36 31/94/36 32/99/36 6/17/36
f 20/7/37 46/95/37 47/100/37 21/19/37
f 13/11/38 39/97/38 40/101/38 14/21/38
f 6/17/39 32/99/39 33/102/39 7/23/39
f 21/26/40 47/103/40 48/104/40 22/27/40
f 14/21/41 40/101/41 41/105/41 15/29/41
f 7/32/42 33/106/42 34/107/42 8/33/42
f 22/27/43 48/104/43 49/108/43 23/35/43
f 15/29/44 41/105/44 42/109/44 16/37/44
f 8/40/14 34/110/14 35/111/14 9/41/14
f 23/35/45 49/108/45 50/79/45 24/43/45
f 43/112/46 69/113/46 70/114/46 44/115/46
f 36/77/47 62/116/47 63/117/47 37/83/47
f 51/118/48 77/119/48 78/120/48 52/121/48
f 29/87/49 55/122/49 56/123/49 30/88/49
f 44/81/50 70/124/50 71/125/50 45/89/50
f 37/126/51 63/127/51 64/128/51 38/96/51
f 52/92/52 78/129/52 79/130/52 53/93/52
f 30/88/53 56/123/53 57/131/53 31/94/53
f 45/89/48 71/125/48 72/132/48 46/95/48
f 38/96/54 64/128/54 65/133/54 39/97/54
f 53/93/55 79/130/55 80/134/55 54/98/55
f 31/94/56 57/131/56 58/135/56 32/99/56
f 46/95/57 72/132/57 73/136/57 47/100/57
f 39/97/58 65/133/58 66/137/58 40/101/58
f 32/99/59 58/135/59 59/138/59 33/102/59
f 47/103/60 73/139/60 74/140/60 48/104/60
f 40/101/61 66/137/61 67/141/61 41/105/61
f 33/142/62 59/143/62 60/144/62 34/145/62
f 48/104/63 74/140/63 75/146/63 49/108/63
f 41/105/64 67/141/64 68/147/64 42/109/64
f 34/110/14 60/148/14 61/149/14 35/111/14
f 49/108/65 75/146/65 76/150/65 50/79/65
f 42/72/46 68/151/46 69/152/46 43/73/46
f 35/76/66 61/153/66 62/116/66 36/77/66
f 50/79/67 76/150/67 77/154/67 51/80/67
f 77/119/68 103/155/68 104/156/68 78/120/68
f 55/122/69 81/157/69 82/158/69 56/123/69
f 70/114/70 96/159/70 97/160/70 71/161/70
f 63/162/71 89/163/71 90/164/71 64/165/71
f 78/129/72 104/166/72 105/167/72 79/130/72
f 56/123/12 82/158/12 83/168/12 57/131/12
f 71/161/68 97/160/68 98/169/68 72/170/68
f 64/128/73 90/171/73 91/172/73 65/133/73
f 79/130/74 105/167/74 106/173/74 80/134/74
f 57/131/75 83/168/75 84/174/75 58/135/75
f 72/170/76 98/169/76 99/175/76 73/176/76
f 65/133/77 91/172/77 92/177/77 66/137/77
f 58/135/78 84/174/78 85/178/78 59/138/78
f 73/139/79 99/179/79 100/180/79 74/140/79
f 66/137/80 92/177/80 93/181/80 67/141/80
f 59/182/81 85/183/81 86/184/81 60/185/81
f 74/140/1 100/180/1 101/186/1 75/146/1
f 67/141/82 93/181/82 94/187/82 68/147/82
f 60/148/14 86/188/14 87/189/14 61/149/14
f 75/146/83 101/186/83 102/190/83 76/150/83
f 68/191/84 94/192/84 95/193/84 69/113/84
f 61/194/85 87/195/85 88/196/85 62/197/85
f 76/150/86 102/190/86 103/198/86 77/154/86
f 69/113/84 95/193/84 96/159/84 70/114/84
f 62/197/87 88/196/87 89/163/87 63/162/87
f 89/199/88 115/200/88 116/201/88 90/171/88
f 104/166/89 130/202/89 131/203/89 105/167/89
f 82/158/43 108/204/43 109/205/43 83/168/43
f 97/160/90 123/206/90 124/207/90 98/169/90
f 90/171/91 116/201/91 117/208/91 91/172/91
f 105/167/92 131/203/92 132/209/92 106/173/92
f 83/168/93 109/205/93 110/210/93 84/174/93
f 98/169/94 124/207/94 125/211/94 99/175/94
f 91/172/95 117/208/95 118/212/95 92/177/95
f 84/174/96 110/210/96 111/213/96 85/178/96
f 99/179/97 125/214/97 126/215/97 100/180/97
f 92/177/98 118/212/98 119/216/98 93/181/98
f 85/183/99 111/217/99 112/218/99 86/184/99
f 100/180/33 126/215/33 127/219/33 101/186/33
f 93/181/100 119/216/100 120/220/100 94/187/100
f 86/188/14 112/221/14 113/222/14 87/189/14
f 101/186/101 127/219/101 128/223/101 102/190/101
f 94/224/102 120/225/102 121/226/102 95/227/102
f 87/228/103 113/229/103 114/230/103 88/231/103
f 102/190/104 128/223/104 129/232/104 103/198/104
f 95/227/102 121/226/102 122/233/102 96/234/102
f 88/231/105 114/230/105 115/235/105 89/236/105
f 103/155/90 129/237/90 130/238/90 104/156/90
f 81/157/106 107/239/106 108/204/106 82/158/106
f 96/234/107 122/233/107 123/240/107 97/241/107
f 116/201/108 141/9/108 2/12/108 117/208/108
f 131/203/109 155/13/109 156/16/109 132/209/109
f 109/205/110 135/4/110 1/18/110 110/210/110
f 124/242/111 148/243/111 149/244/111 125/245/111
f 117/208/112 2/12/112 142/22/112 118/212/112
f 110/210/113 1/18/113 136/24/113 111/213/113
f 125/214/114 149/25/114 150/28/114 126/215/114
f 118/212/115 142/22/115 143/30/115 119/216/115
f 111/246/116 136/31/116 137/34/116 112/247/116
f 126/215/53 150/28/53 151/36/53 127/219/53
f 119/248/117 143/249/117 144/45/117 120/225/117
f 112/221/14 137/39/14 138/42/14 113/222/14
f 127/219/118 151/36/118 152/44/118 128/223/118
f 120/225/119 144/45/119 145/48/119 121/226/119
f 113/229/120 138/49/120 139/52/120 114/230/120
f 128/223/121 152/44/121 153/54/121 129/232/121
f 121/226/119 145/48/119 146/56/119 122/233/119
f 114/230/122 139/52/122 140/58/122 115/235/122
f 129/250/123 153/251/123 154/252/123 130/253/123
f 107/239/124 133/63/124 134/1/124 108/204/124
f 122/233/125 146/56/125 147/66/125 123/240/125
f 115/235/126 140/58/126 141/254/126 116/255/126
f 130/202/127 154/69/127 155/13/127 131/203/127
f 108/204/63 134/1/63 135/4/63 109/205/63
f 123/240/123 147/66/123 148/243/123 124/242/123
f 29/87/14 3/64/14 81/157/14 55/122/14
f 28/15/128 54/98/128 132/209/128 156/16/128
f 54/98/128 80/134/128 106/173/128 132/209/128
f 3/64/14 133/63/14 107/239/14 81/157/14
