# Blender v2.79 (sub 0) OBJ File: 'handcuffs.blend'
# www.blender.org
mtllib handcuffs.mtl
o Grillete.009_Circle.049
v 0.011920 0.533045 -0.010962
v -0.028876 0.530847 0.085214
v 0.156534 0.344465 -0.026624
v 0.082020 0.534915 0.072407
v 0.115739 0.342267 0.069552
v 0.219306 0.347847 0.056845
v 0.033429 0.133834 -0.010962
v -0.007367 0.131636 0.085214
v 0.103529 0.135705 0.072407
v -0.077466 0.129766 0.001845
v -0.151981 0.320216 0.100876
v -0.111186 0.322414 0.004700
v -0.214753 0.316834 0.017407
v -0.098976 0.528977 0.001845
v -0.004262 0.452608 -0.118415
v -0.007520 0.557042 -0.119733
v 0.091286 0.504938 -0.118748
v -0.103067 0.504712 -0.119400
v -0.004262 0.452607 -0.516928
v -0.007520 0.557042 -0.518246
v 0.091286 0.504937 -0.517261
v -0.103067 0.504711 -0.517913
v -0.004262 0.385850 -0.043233
v -0.007519 0.483106 -0.005162
v 0.091286 0.434460 -0.023853
v -0.103067 0.434496 -0.024542
v -0.004262 0.393170 0.174676
v -0.007519 0.475785 0.110778
v 0.091286 0.434764 0.142920
v -0.103067 0.434191 0.142535
v -0.004262 0.690965 0.172269
v -0.007519 0.604840 0.113186
v 0.091286 0.647998 0.142396
v -0.103067 0.647807 0.143059
v -0.004508 0.690866 -0.137492
v -0.007766 0.620842 -0.060002
v 0.091040 0.655538 -0.098886
v -0.103313 0.656170 -0.098608
v -0.005731 0.527140 -0.179839
v -0.007134 0.527013 -0.134872
v 0.035406 0.526935 -0.157309
v -0.048271 0.527218 -0.157402
v -0.033005 0.248772 0.138378
v -0.017442 0.036630 0.254156
v -0.030149 0.042210 0.150588
v 0.066026 0.040012 0.191383
v -0.033005 -0.150438 0.116869
v 0.037558 -0.144500 -0.064126
v 0.050364 -0.148568 0.046769
v -0.045811 -0.146370 0.005974
v 0.021995 0.067642 -0.179903
v 0.034702 0.062062 -0.076336
v 0.037558 0.254710 -0.042617
v -0.061473 0.064260 -0.117131
v 0.050364 0.250642 0.068278
v -0.045811 0.252840 0.027483
v -0.017442 -0.496996 0.254156
v -0.033005 -0.284854 0.138378
v -0.098976 0.005653 0.001845
v -0.214753 -0.206489 0.017407
v -0.111186 -0.200909 0.004700
v -0.151981 -0.203107 0.100876
v -0.077466 -0.393557 0.001845
v 0.103529 -0.387619 0.072407
v -0.007366 -0.391687 0.085214
v 0.033429 -0.389489 -0.010962
v 0.219306 -0.175477 0.056845
v 0.115739 -0.181057 0.069552
v 0.082020 0.011591 0.072407
v 0.156534 -0.178859 -0.026623
v -0.045811 -0.280785 0.027483
v 0.050364 -0.282983 0.068278
v -0.028876 0.007523 0.085214
v -0.061473 -0.469365 -0.117131
v 0.011920 0.009721 -0.010962
v 0.037558 -0.278915 -0.042617
v 0.034702 -0.471563 -0.076336
v 0.021995 -0.465983 -0.179903
v -0.045811 -0.679996 0.005974
v 0.050364 -0.682194 0.046769
v 0.066026 -0.493614 0.191383
v -0.030149 -0.491416 0.150589
v 0.037558 -0.678125 -0.064126
v -0.033005 -0.684064 0.116869
v 0.011920 -0.536184 -0.010962
v -0.028875 -0.538382 0.085214
v 0.156534 -0.724764 -0.026623
v 0.082020 -0.534314 0.072407
v 0.115739 -0.726962 0.069552
v 0.219306 -0.721382 0.056845
v 0.033429 -0.935394 -0.010961
v -0.007366 -0.937592 0.085214
v 0.103529 -0.933524 0.072408
v -0.077466 -0.939462 0.001845
v -0.151981 -0.749012 0.100876
v -0.111186 -0.746814 0.004700
v -0.214753 -0.752394 0.017407
v -0.098975 -0.540252 0.001845
vt 0.538410 0.740262
vt 0.559747 0.624081
vt 0.594848 0.742801
vt 0.804052 0.208159
vt 0.817967 0.107512
vt 0.872238 0.108437
vt 0.359692 0.260050
vt 0.206490 0.299760
vt 0.000517 0.260050
vt 0.807592 0.000517
vt 0.538355 0.502715
vt 0.505430 0.624090
vt 0.428661 0.208251
vt 0.389431 0.249872
vt 0.390065 0.207503
vt 0.655639 0.119237
vt 0.634301 0.003056
vt 0.690739 0.000517
vt 0.545997 0.743834
vt 0.559911 0.844481
vt 0.487970 0.743834
vt 0.193158 0.336825
vt 0.549536 0.951477
vt 0.491510 0.951477
vt 0.634247 0.240603
vt 0.601321 0.119228
vt 0.305525 0.438486
vt 0.217627 0.329507
vt 0.341089 0.379004
vt 0.289926 0.933757
vt 0.338323 0.901744
vt 0.338323 0.958334
vt 0.970481 0.317673
vt 0.970481 0.374262
vt 0.922084 0.342250
vt 0.355133 0.319743
vt 0.318585 0.161009
vt 0.391319 0.163923
vt 0.440256 0.163452
vt 0.392375 0.111586
vt 0.455583 0.123435
vt 0.455583 0.079841
vt 0.412081 0.062323
vt 0.220032 0.077702
vt 0.316487 0.095784
vt 0.345671 0.032924
vt 0.314885 0.252221
vt 0.317430 0.206526
vt 0.201672 0.201630
vt 0.047421 0.237455
vt 0.079008 0.175362
vt 0.200263 0.259017
vt 0.212498 0.147684
vt 0.225276 0.000517
vt 0.060831 0.129425
vt 0.102575 0.137128
vt 0.097051 0.074580
vt 0.050194 0.009063
vt 0.047254 0.134605
vt 0.050316 0.117615
vt 0.000517 0.124978
vt 0.866780 0.784398
vt 0.856405 0.677402
vt 0.921051 0.785323
vt 0.393705 0.740262
vt 0.415042 0.624081
vt 0.450143 0.742801
vt 0.709962 0.119240
vt 0.690737 0.241375
vt 0.614071 0.624078
vt 0.594845 0.501942
vt 0.649101 0.502071
vt 0.794839 0.886078
vt 0.843236 0.918091
vt 0.794839 0.942668
vt 0.744993 0.000650
vt 0.852865 0.885045
vt 0.393651 0.502715
vt 0.360725 0.624090
vt 0.893699 0.942668
vt 0.893699 0.886078
vt 0.942096 0.910655
vt 0.289926 0.506501
vt 0.347952 0.506501
vt 0.321146 0.553700
vt 0.109158 0.625225
vt 0.089932 0.747360
vt 0.054834 0.625222
vt 0.033442 0.746587
vt 0.000517 0.625213
vt 0.289926 0.699427
vt 0.347952 0.699427
vt 0.316732 0.746626
vt 0.033497 0.509041
vt 0.089935 0.506501
vt 0.708161 0.743834
vt 0.722075 0.844482
vt 0.650134 0.743834
vt 0.469366 0.624078
vt 0.450141 0.501942
vt 0.504396 0.502071
vt 0.772832 0.209193
vt 0.804052 0.256391
vt 0.746026 0.256391
vt 0.144188 0.506635
vt 0.711700 0.951477
vt 0.653674 0.951477
vt 0.199539 0.625222
vt 0.178147 0.746587
vt 0.145221 0.625213
vt 0.072457 0.849040
vt 0.062082 0.956036
vt 0.004056 0.956036
vt 0.058543 0.748393
vt 0.000517 0.748393
vt 0.178201 0.509041
vt 0.234639 0.506501
vt 0.489542 0.001289
vt 0.510934 0.122655
vt 0.456616 0.122664
vt 0.866780 0.367046
vt 0.856405 0.260050
vt 0.921051 0.367971
vt 0.852865 0.467693
vt 0.489596 0.238836
vt 0.546034 0.241375
vt 0.289926 0.650163
vt 0.321146 0.602964
vt 0.347952 0.650163
vt 0.393651 0.260823
vt 0.415042 0.382189
vt 0.360725 0.382198
vt 0.418751 0.951477
vt 0.432665 0.850830
vt 0.486937 0.851755
vt 0.393705 0.498370
vt 0.450143 0.500909
vt 0.422291 0.743834
vt 0.922084 0.456231
vt 0.972541 0.430608
vt 0.972541 0.484888
vt 0.565258 0.122652
vt 0.253862 0.625225
vt 0.288893 0.506635
vt 0.289926 0.844122
vt 0.338323 0.876135
vt 0.289926 0.900711
vt 0.546032 0.000517
vt 0.600288 0.000646
vt 0.234637 0.747360
vt 0.831892 0.209193
vt 0.863112 0.256391
vt 0.805085 0.256391
vt 0.922084 0.485921
vt 0.972541 0.514578
vt 0.922084 0.540200
vt 0.289926 0.554733
vt 0.347952 0.554733
vt 0.321146 0.601931
vt 0.758775 0.378774
vt 0.739550 0.500909
vt 0.704452 0.378771
vt 0.683060 0.500136
vt 0.650134 0.378762
vt 0.289926 0.747659
vt 0.347952 0.747659
vt 0.316732 0.794857
vt 0.683114 0.262590
vt 0.739552 0.260050
vt 0.185788 0.748393
vt 0.199702 0.849041
vt 0.127762 0.748393
vt 0.469366 0.382186
vt 0.450141 0.260050
vt 0.504396 0.260179
vt 0.316732 0.795890
vt 0.347952 0.843089
vt 0.289926 0.843089
vt 0.793806 0.260184
vt 0.189328 0.956036
vt 0.131301 0.956036
vt 0.289926 0.698394
vt 0.321146 0.651196
vt 0.347952 0.698394
vt 0.704452 0.620663
vt 0.683060 0.742028
vt 0.650134 0.620654
vt 0.945212 0.101164
vt 0.934837 0.208159
vt 0.876810 0.208159
vt 0.931298 0.000517
vt 0.873271 0.000517
vt 0.683114 0.504482
vt 0.739552 0.501942
vt 0.538355 0.260823
vt 0.559747 0.382189
vt 0.505430 0.382198
vt 0.866780 0.575722
vt 0.856405 0.468726
vt 0.921051 0.576647
vt 0.852865 0.676369
vt 0.538410 0.498370
vt 0.594848 0.500909
vt 0.922084 0.400918
vt 0.972541 0.375296
vt 0.972541 0.429575
vt 0.614071 0.382186
vt 0.758775 0.620666
vt 0.793806 0.502076
vt 0.844269 0.886078
vt 0.892666 0.918091
vt 0.844269 0.942668
vt 0.594845 0.260050
vt 0.649101 0.260179
vt 0.739550 0.742801
vt 0.970481 0.260050
vt 0.970481 0.316640
vt 0.922084 0.284627
vt 0.922084 0.541234
vt 0.972541 0.569890
vt 0.922084 0.595513
vt 0.746026 0.208159
vt 0.749565 0.000517
vt 0.439175 0.252965
vt 0.614183 0.843556
vt 0.237321 0.505468
vt 0.798378 0.677402
vt 0.744993 0.241247
vt 0.794839 0.885045
vt 0.649101 0.742668
vt 0.144188 0.747231
vt 0.776347 0.843556
vt 0.126729 0.848115
vt 0.798378 0.260050
vt 0.794839 0.467693
vt 0.504396 0.742668
vt 0.360725 0.951477
vt 0.364264 0.743834
vt 0.600288 0.241242
vt 0.288893 0.747231
vt 0.793806 0.500780
vt 0.253974 0.848116
vt 0.504396 0.500776
vt 0.999483 0.100239
vt 0.798378 0.468726
vt 0.794839 0.676369
vt 0.649101 0.500776
vt 0.793806 0.742672
vn 0.6400 0.5365 -0.5501
vn 0.1214 0.0065 0.9926
vn 0.4804 -0.8771 0.0000
vn 0.7277 -0.4360 -0.5296
vn 0.4579 -0.6648 -0.5903
vn -0.6400 -0.5365 0.5501
vn -0.1145 -0.0053 -0.9934
vn 0.0034 -0.0125 -0.9999
vn -0.1145 -0.0070 -0.9934
vn -0.7277 0.4360 0.5296
vn -0.4804 0.8771 -0.0000
vn -0.0358 0.9993 0.0077
vn 0.0358 -0.9993 -0.0077
vn -0.4665 -0.8845 0.0000
vn 0.4665 0.8845 0.0000
vn -0.4420 -0.8970 -0.0016
vn -0.4166 0.7638 0.4929
vn -0.3856 -0.7416 -0.5489
vn 0.4529 0.7157 0.5316
vn -0.3223 0.0177 -0.9465
vn 0.3839 0.9234 -0.0017
vn -0.4617 0.8853 0.0559
vn 0.4075 -0.9127 0.0307
vn 0.3470 0.9379 -0.0006
vn 0.3016 0.0077 0.9534
vn -0.3102 -0.0023 0.9507
vn 0.2844 -0.0024 -0.9587
vn -0.4232 0.2201 -0.8789
vn -0.4080 0.9124 0.0320
vn 0.3207 -0.9467 -0.0299
vn -0.4301 -0.8990 -0.0825
vn -0.0034 -1.0000 -0.0029
vn 0.4649 -0.5250 0.7129
vn -0.3954 -0.5745 0.7167
vn 0.4697 0.2178 -0.8556
vn 0.9926 0.0065 -0.1214
vn -0.5501 0.5365 -0.6400
vn 0.8231 -0.4559 0.3387
vn -0.8231 0.4559 -0.3387
vn 0.7608 0.5556 0.3354
vn -0.7608 -0.5556 -0.3354
vn -0.5296 -0.4360 -0.7277
vn -0.0077 -0.9993 -0.0358
vn 0.3387 -0.4559 -0.8231
vn 0.5296 0.4360 0.7277
vn 0.0077 0.9993 0.0358
vn 0.5501 -0.5365 0.6400
vn -0.9934 -0.0053 0.1145
vn -0.3387 0.4559 0.8231
vn 0.3354 0.5556 -0.7608
vn -0.9934 -0.0070 0.1145
vn -0.3354 -0.5556 0.7608
vn 0.6661 0.5323 -0.5225
vn 0.1145 0.0053 0.9934
vn 0.1145 0.0070 0.9934
vn 0.6901 -0.4457 -0.5702
vn 0.4009 -0.7355 -0.5462
vn -0.6661 -0.5323 0.5225
vn -0.1214 -0.0065 -0.9926
vn -0.6901 0.4457 0.5702
vn -0.3918 -0.9195 0.0309
vn -0.4680 0.7103 0.5258
vn -0.4427 -0.6705 -0.5954
vn 0.4010 0.7697 0.4967
vn -0.2974 0.0023 -0.9547
vn 0.4496 0.8915 0.0563
vn -0.3987 0.9171 0.0017
vn 0.4532 -0.8914 0.0016
vn 0.4172 0.9084 0.0280
vn 0.3145 0.0023 0.9493
vn -0.2866 0.0077 0.9580
vn 0.3159 0.0177 -0.9486
vn -0.4541 0.2263 -0.8617
vn -0.3313 0.9435 -0.0000
vn 0.4196 -0.9038 -0.0841
vn -0.3351 -0.9416 -0.0322
vn 0.3808 -0.5752 0.7240
vn -0.4785 -0.5251 0.7038
vn 0.4323 0.2112 -0.8766
vn 0.9934 0.0070 -0.1145
vn -0.5225 0.5323 -0.6661
vn 0.9934 0.0053 -0.1145
vn -0.5702 -0.4457 -0.6901
vn 0.5702 0.4457 0.6901
vn 0.5225 -0.5323 0.6661
vn -0.9926 -0.0065 0.1214
usemtl Material.001
s off
f 4/1/1 3/2/1 1/3/1
f 4/4/2 5/5/2 6/6/2
f 17/7/3 19/8/3 21/9/3
f 5/5/2 9/10/2 6/6/2
f 9/11/4 3/2/4 6/12/4
f 15/13/5 25/14/5 23/15/5
f 11/16/6 10/17/6 8/18/6
f 10/19/7 12/20/7 7/21/7
f 19/8/8 20/22/8 21/9/8
f 12/20/9 14/23/9 1/24/9
f 11/16/10 14/25/10 13/26/10
f 16/27/11 22/28/11 18/29/11
f 1/30/12 14/31/12 2/32/12
f 8/33/13 10/34/13 7/35/13
f 18/29/14 19/8/14 15/36/14
f 16/27/15 21/9/15 20/22/15
f 23/15/16 30/37/16 26/38/16
f 18/39/17 24/40/17 16/41/17
f 15/13/18 26/38/18 18/39/18
f 17/42/19 24/40/19 25/43/19
f 30/37/20 32/44/20 28/45/20
f 25/43/21 28/45/21 29/46/21
f 26/38/22 28/45/22 24/40/22
f 23/15/23 29/47/23 27/48/23
f 31/49/24 37/50/24 35/51/24
f 27/48/25 33/52/25 31/49/25
f 27/48/26 34/53/26 30/37/26
f 29/46/27 32/44/27 33/54/27
f 35/51/28 42/55/28 38/56/28
f 31/49/29 38/56/29 34/53/29
f 33/54/30 36/57/30 37/58/30
f 34/53/31 36/57/31 32/44/31
f 39/59/32 40/60/32 42/55/32
f 36/57/33 41/61/33 37/58/33
f 36/57/34 42/55/34 40/60/34
f 35/51/35 41/61/35 39/59/35
f 52/62/36 48/63/36 51/64/36
f 53/65/37 54/66/37 56/67/37
f 12/68/38 2/69/38 11/16/38
f 5/70/39 7/71/39 8/72/39
f 9/73/13 8/74/13 7/75/13
f 12/68/40 8/18/40 7/76/40
f 53/77/36 52/62/36 51/64/36
f 5/70/41 1/3/41 3/2/41
f 48/78/42 54/66/42 51/79/42
f 4/80/12 1/81/12 2/82/12
f 48/83/43 49/84/43 50/85/43
f 45/86/44 55/87/44 46/88/44
f 46/88/45 43/89/45 44/90/45
f 56/91/46 43/92/46 55/93/46
f 46/88/47 47/94/47 49/95/47
f 47/96/48 45/97/48 50/98/48
f 52/99/49 50/100/49 49/101/49
f 49/102/43 47/103/43 50/104/43
f 45/86/50 49/95/50 50/105/50
f 45/97/51 43/106/51 56/107/51
f 62/108/10 59/109/10 60/110/10
f 61/111/9 59/112/9 75/113/9
f 63/114/7 61/111/7 66/115/7
f 62/108/6 63/116/6 65/117/6
f 64/118/4 70/119/4 67/120/4
f 68/121/2 64/122/2 67/123/2
f 69/124/2 68/121/2 67/123/2
f 69/125/1 70/119/1 75/126/1
f 53/127/46 56/128/46 55/129/46
f 52/99/52 56/67/52 54/66/52
f 83/130/42 74/131/42 78/132/42
f 76/133/36 77/134/36 78/135/36
f 76/136/37 74/131/37 71/137/37
f 77/134/36 83/138/36 78/135/36
f 69/139/12 75/140/12 73/141/12
f 68/142/41 75/126/41 70/119/41
f 61/143/40 65/117/40 66/144/40
f 64/145/13 65/146/13 66/147/13
f 68/142/39 66/148/39 65/149/39
f 61/143/38 73/150/38 62/108/38
f 65/151/13 63/152/13 66/153/13
f 75/154/12 59/155/12 73/156/12
f 83/157/43 80/158/43 79/159/43
f 82/160/44 72/161/44 81/162/44
f 81/162/45 58/163/45 57/164/45
f 71/165/46 58/166/46 72/167/46
f 81/162/47 84/168/47 80/169/47
f 84/170/48 82/171/48 79/172/48
f 77/173/49 79/174/49 80/175/49
f 80/176/43 84/177/43 79/178/43
f 82/160/50 80/169/50 79/179/50
f 82/171/51 58/180/51 71/181/51
f 76/182/46 71/183/46 72/184/46
f 77/173/52 71/137/52 74/131/52
f 95/185/10 98/186/10 97/187/10
f 96/188/9 98/189/9 85/190/9
f 94/191/7 96/188/7 91/192/7
f 95/185/6 94/193/6 92/194/6
f 93/195/4 87/196/4 90/197/4
f 89/198/2 93/199/2 90/200/2
f 88/201/2 89/198/2 90/200/2
f 88/202/1 87/196/1 85/203/1
f 88/204/12 85/205/12 86/206/12
f 89/207/41 85/203/41 87/196/41
f 96/208/40 92/194/40 91/209/40
f 93/210/13 92/211/13 91/212/13
f 89/207/39 91/213/39 92/214/39
f 96/208/38 86/215/38 95/185/38
f 92/216/13 94/217/13 91/218/13
f 85/219/12 98/220/12 86/221/12
f 4/1/53 6/12/53 3/2/53
f 4/4/54 2/222/54 5/5/54
f 17/7/3 15/36/3 19/8/3
f 5/5/55 8/223/55 9/10/55
f 9/11/56 7/71/56 3/2/56
f 15/13/57 17/224/57 25/14/57
f 11/16/58 13/26/58 10/17/58
f 10/19/59 13/225/59 12/20/59
f 19/8/8 22/28/8 20/22/8
f 12/20/59 13/225/59 14/23/59
f 11/16/60 2/69/60 14/25/60
f 16/27/11 20/22/11 22/28/11
f 18/29/14 22/28/14 19/8/14
f 16/27/15 17/226/15 21/9/15
f 23/15/61 27/48/61 30/37/61
f 18/39/62 26/38/62 24/40/62
f 15/13/63 23/15/63 26/38/63
f 17/42/64 16/41/64 24/40/64
f 30/37/65 34/53/65 32/44/65
f 25/43/66 24/40/66 28/45/66
f 26/38/67 30/37/67 28/45/67
f 23/15/68 25/14/68 29/47/68
f 31/49/69 33/52/69 37/50/69
f 27/48/70 29/47/70 33/52/70
f 27/48/71 31/49/71 34/53/71
f 29/46/72 28/45/72 32/44/72
f 35/51/73 39/59/73 42/55/73
f 31/49/74 35/51/74 38/56/74
f 33/54/75 32/44/75 36/57/75
f 34/53/76 38/56/76 36/57/76
f 39/59/32 41/61/32 40/60/32
f 36/57/77 40/60/77 41/61/77
f 36/57/78 38/56/78 42/55/78
f 35/51/79 37/50/79 41/61/79
f 52/62/80 49/227/80 48/63/80
f 53/65/81 51/79/81 54/66/81
f 12/68/38 1/228/38 2/69/38
f 5/70/39 3/2/39 7/71/39
f 12/68/40 11/16/40 8/18/40
f 53/77/82 55/229/82 52/62/82
f 5/70/41 2/230/41 1/3/41
f 48/78/83 50/100/83 54/66/83
f 45/86/44 56/231/44 55/87/44
f 46/88/84 55/87/84 43/89/84
f 46/88/85 44/90/85 47/94/85
f 47/96/86 44/232/86 45/97/86
f 52/99/49 54/66/49 50/100/49
f 45/86/50 46/88/50 49/95/50
f 45/97/86 44/232/86 43/106/86
f 62/108/60 73/150/60 59/109/60
f 61/111/59 60/233/59 59/112/59
f 63/114/59 60/233/59 61/111/59
f 62/108/58 60/110/58 63/116/58
f 64/118/56 66/148/56 70/119/56
f 68/121/55 65/234/55 64/122/55
f 69/124/54 73/235/54 68/121/54
f 69/125/53 67/120/53 70/119/53
f 52/99/52 55/236/52 56/67/52
f 83/130/83 79/174/83 74/131/83
f 76/133/82 72/237/82 77/134/82
f 76/136/81 78/132/81 74/131/81
f 77/134/80 80/238/80 83/138/80
f 68/142/41 73/239/41 75/126/41
f 61/143/40 62/108/40 65/117/40
f 68/142/39 70/119/39 66/148/39
f 61/143/38 75/240/38 73/150/38
f 82/160/44 71/241/44 72/161/44
f 81/162/84 72/161/84 58/163/84
f 81/162/85 57/164/85 84/168/85
f 84/170/86 57/242/86 82/171/86
f 77/173/49 74/131/49 79/174/49
f 82/160/50 81/162/50 80/169/50
f 82/171/86 57/242/86 58/180/86
f 77/173/52 72/243/52 71/137/52
f 95/185/60 86/215/60 98/186/60
f 96/188/59 97/244/59 98/189/59
f 94/191/59 97/244/59 96/188/59
f 95/185/58 97/187/58 94/193/58
f 93/195/56 91/213/56 87/196/56
f 89/198/55 92/245/55 93/199/55
f 88/201/54 86/246/54 89/198/54
f 88/202/53 90/197/53 87/196/53
f 89/207/41 86/247/41 85/203/41
f 96/208/40 95/185/40 92/194/40
f 89/207/39 87/196/39 91/213/39
f 96/208/38 85/248/38 86/215/38
