# Blender v2.79 (sub 0) OBJ File: 'open_book.blend'
# www.blender.org
mtllib open_book.mtl
o Libro_abierto_Cube.008
v 0.288049 0.050373 0.316671
v 0.444520 -0.039498 0.316671
v 0.288049 0.050373 -0.316671
v 0.444520 -0.039498 -0.316671
v 0.392677 -0.009541 -0.316671
v 0.357023 0.020416 -0.316671
v 0.392677 -0.009541 0.316671
v 0.357023 0.020416 0.316671
v 0.433442 -0.033097 -0.316671
v 0.433442 -0.033097 0.316671
v 0.453037 -0.039619 -0.328656
v 0.453037 -0.039619 0.328656
v 0.441540 -0.032976 -0.328656
v 0.441540 -0.032976 0.328656
v 0.222260 -0.039498 -0.316671
v 0.085618 0.046712 0.316671
v 0.085618 0.046712 -0.316671
v 0.222260 -0.039498 0.316671
v 0.178512 0.020416 0.316671
v 0.196339 -0.009541 0.316671
v 0.178512 0.020416 -0.316671
v 0.196339 -0.009541 -0.316671
v 0.216721 -0.033097 0.316671
v 0.216721 -0.033097 -0.316671
v 0.226518 -0.039619 -0.328656
v 0.226518 -0.039619 0.328656
v 0.220770 -0.032976 0.328656
v 0.220770 -0.032976 -0.328656
v -0.288049 0.050373 0.316671
v -0.444520 -0.039498 0.316671
v -0.288049 0.050373 -0.316671
v -0.444520 -0.039498 -0.316671
v 0.000000 0.029061 -0.316671
v 0.000000 -0.039498 -0.316671
v 0.000000 0.029061 0.316671
v 0.000000 -0.039498 0.316671
v -0.392677 -0.009541 -0.316671
v -0.357023 0.020416 -0.316671
v -0.392677 -0.009541 0.316671
v -0.357023 0.020416 0.316671
v 0.000000 -0.009541 0.316671
v 0.000000 -0.000896 0.316671
v 0.000000 -0.009541 -0.316671
v 0.000000 -0.000896 -0.316671
v -0.433442 -0.033097 -0.316671
v -0.433442 -0.033097 0.316671
v 0.000000 -0.033097 0.316671
v 0.000000 -0.033097 -0.316671
v 0.000000 -0.039619 -0.328656
v -0.453037 -0.039619 -0.328656
v -0.453037 -0.039619 0.328656
v 0.000000 -0.039619 0.328656
v -0.441540 -0.032976 -0.328656
v -0.441540 -0.032976 0.328656
v 0.000000 -0.032976 0.328656
v 0.000000 -0.032976 -0.328656
v -0.222260 -0.039498 -0.316671
v -0.085618 0.046712 0.316671
v -0.085618 0.046712 -0.316671
v -0.222260 -0.039498 0.316671
v -0.178511 0.020416 0.316671
v -0.196339 -0.009541 0.316671
v -0.178511 0.020416 -0.316671
v -0.196339 -0.009541 -0.316671
v -0.216721 -0.033097 0.316671
v -0.216721 -0.033097 -0.316671
v -0.226518 -0.039619 -0.328656
v -0.226518 -0.039619 0.328656
v -0.220770 -0.032976 0.328656
v -0.220770 -0.032976 -0.328656
vt 0.295810 0.669965
vt 0.288863 0.805340
vt 0.288243 0.667462
vt 0.710639 0.668002
vt 0.705485 0.532337
vt 0.712981 0.532467
vt 0.515230 0.468474
vt 0.395645 0.087903
vt 0.517771 0.060669
vt 0.307521 0.670825
vt 0.693829 0.532139
vt 0.691284 0.671159
vt 0.696313 0.818397
vt 0.308878 0.811566
vt 0.688300 0.812157
vt 0.570713 0.509715
vt 0.452119 0.474581
vt 0.569673 0.515620
vt 0.436348 0.491666
vt 0.389197 0.440369
vt 0.350952 0.081110
vt 0.345191 0.447061
vt 0.321458 0.071364
vt 0.456891 0.054641
vt 0.441514 0.037800
vt 0.566575 0.531818
vt 0.420012 0.503454
vt 0.317012 0.456308
vt 0.292141 0.065113
vt 0.425461 0.025957
vt 0.700678 0.811122
vt 0.698775 0.673978
vt 0.703031 0.670427
vt 0.300781 0.825767
vt 0.696300 0.826387
vt 0.298921 0.532166
vt 0.300018 0.673556
vt 0.686325 0.833101
vt 0.310631 0.832512
vt 0.306404 0.532117
vt 0.701330 0.532265
vt 0.296520 0.810463
vt 0.300793 0.817777
vt 0.567281 0.000150
vt 0.570092 0.015753
vt 0.287297 0.461994
vt 0.571053 0.021432
vt 0.573866 0.043381
vt 0.573864 0.486785
vt 0.708406 0.806081
vt 0.294775 0.532196
vt 0.287297 0.532248
vt 0.576162 0.027288
vt 0.582896 0.162673
vt 0.575326 0.165163
vt 0.997721 0.165288
vt 0.992354 0.300944
vt 0.990117 0.162852
vt 0.183223 0.089991
vt 0.059002 0.469074
vt 0.061438 0.061269
vt 0.980697 0.301124
vt 0.594609 0.161831
vt 0.978372 0.162102
vt 0.596187 0.021093
vt 0.983631 0.014869
vt 0.975608 0.021097
vt 0.003020 0.509635
vt 0.000150 0.486668
vt 0.122035 0.475951
vt 0.003988 0.515553
vt 0.227995 0.083744
vt 0.185369 0.442509
vt 0.257606 0.074358
vt 0.229290 0.449737
vt 0.122387 0.055983
vt 0.137968 0.039332
vt 0.137596 0.493227
vt 0.006889 0.531787
vt 0.286997 0.068465
vt 0.257354 0.459328
vt 0.154164 0.027685
vt 0.985867 0.159294
vt 0.987985 0.022151
vt 0.588112 0.006879
vt 0.983631 0.006879
vt 0.585789 0.300477
vt 0.581644 0.300441
vt 0.973666 0.000150
vt 0.597972 0.000150
vt 0.587110 0.159088
vt 0.588112 0.014869
vt 0.988198 0.301010
vt 0.583827 0.022176
vt 0.012670 0.000150
vt 0.009669 0.015718
vt 0.153787 0.505213
vt 0.008639 0.021384
vt 0.005558 0.043297
vt 0.995705 0.027205
vt 0.574165 0.300377
vt 0.999850 0.300826
vt 0.593272 0.300538
vt 0.286997 0.465375
vn 0.0000 0.9999 -0.0101
vn 0.0000 0.9999 0.0101
vn -0.0181 0.9998 0.0000
vn 0.0000 -1.0000 0.0000
vn -0.0142 -0.9999 0.0000
vn -0.0000 0.0000 1.0000
vn 0.3984 0.9172 0.0000
vn 0.6433 0.7656 0.0000
vn 0.0000 0.0000 -1.0000
vn 0.5003 0.8658 0.0000
vn 0.0000 -0.9999 0.0101
vn -0.0150 0.9999 0.0000
vn 0.0000 -0.9999 -0.0101
vn -0.2019 0.9794 0.0000
vn 0.0181 0.9998 0.0000
vn 0.0142 -0.9999 0.0000
vn -0.3984 0.9172 0.0000
vn -0.6433 0.7656 0.0000
vn -0.5003 0.8658 0.0000
vn 0.0150 0.9999 0.0000
vn 0.2019 0.9794 0.0000
usemtl Material.001
s off
f 27/1/1 10/2/1 23/3/1
f 24/4/2 56/5/2 48/6/2
f 16/7/3 3/8/3 17/9/3
f 18/10/4 34/11/4 15/12/4
f 11/13/5 2/14/5 4/15/5
f 16/7/6 42/16/6 19/17/6
f 19/17/6 41/18/6 20/19/6
f 1/20/7 6/21/7 3/8/7
f 8/22/8 5/23/8 6/21/8
f 3/8/9 21/24/9 17/9/9
f 6/21/9 22/25/9 21/24/9
f 20/19/6 47/26/6 23/27/6
f 7/28/10 9/29/10 5/23/10
f 5/23/9 24/30/9 22/25/9
f 13/31/9 25/32/9 28/33/9
f 14/34/10 11/13/10 13/35/10
f 27/1/6 52/36/6 26/37/6
f 25/32/11 4/15/11 15/12/11
f 14/34/12 9/38/12 10/39/12
f 18/10/13 52/36/13 36/40/13
f 2/14/13 26/37/13 18/10/13
f 49/41/11 15/12/11 34/11/11
f 14/42/6 26/37/6 12/43/6
f 28/33/9 49/41/9 56/5/9
f 22/25/9 48/44/9 43/45/9
f 7/28/6 23/27/6 10/46/6
f 21/24/9 43/45/9 44/47/9
f 17/9/9 44/47/9 33/48/9
f 8/22/6 20/19/6 7/28/6
f 1/20/6 19/17/6 8/22/6
f 2/14/4 15/12/4 4/15/4
f 35/49/14 17/9/14 33/48/14
f 9/50/2 28/33/2 24/4/2
f 55/51/1 23/3/1 47/52/1
f 46/53/1 69/54/1 65/55/1
f 66/56/2 56/57/2 70/58/2
f 31/59/15 58/60/15 59/61/15
f 34/62/4 60/63/4 57/64/4
f 30/65/16 50/66/16 32/67/16
f 58/60/6 42/68/6 35/69/6
f 61/70/6 41/71/6 42/68/6
f 38/72/17 29/73/17 31/59/17
f 37/74/18 40/75/18 38/72/18
f 63/76/9 31/59/9 59/61/9
f 64/77/9 38/72/9 63/76/9
f 62/78/6 47/79/6 41/71/6
f 45/80/19 39/81/19 37/74/19
f 66/82/9 37/74/9 64/77/9
f 67/83/9 53/84/9 70/58/9
f 50/66/19 54/85/19 53/86/19
f 69/54/6 52/87/6 55/88/6
f 32/67/11 67/83/11 57/64/11
f 45/89/20 54/85/20 46/90/20
f 60/63/13 52/87/13 68/91/13
f 30/65/13 68/91/13 51/92/13
f 57/64/11 49/93/11 34/62/11
f 54/94/6 68/91/6 69/54/6
f 49/93/9 70/58/9 56/57/9
f 48/95/9 64/77/9 43/96/9
f 39/81/6 65/97/6 62/78/6
f 43/96/9 63/76/9 44/98/9
f 44/98/9 59/61/9 33/99/9
f 40/75/6 62/78/6 61/70/6
f 29/73/6 61/70/6 58/60/6
f 57/64/4 30/65/4 32/67/4
f 59/61/21 35/69/21 33/99/21
f 45/100/2 70/58/2 53/84/2
f 65/55/1 55/88/1 47/101/1
f 27/1/1 14/42/1 10/2/1
f 24/4/2 28/33/2 56/5/2
f 16/7/3 1/20/3 3/8/3
f 18/10/4 36/40/4 34/11/4
f 11/13/5 12/43/5 2/14/5
f 16/7/6 35/49/6 42/16/6
f 19/17/6 42/16/6 41/18/6
f 1/20/7 8/22/7 6/21/7
f 8/22/8 7/28/8 5/23/8
f 3/8/9 6/21/9 21/24/9
f 6/21/9 5/23/9 22/25/9
f 20/19/6 41/18/6 47/26/6
f 7/28/10 10/46/10 9/29/10
f 5/23/9 9/29/9 24/30/9
f 13/31/9 11/13/9 25/32/9
f 14/34/10 12/43/10 11/13/10
f 27/1/6 55/51/6 52/36/6
f 25/32/11 11/13/11 4/15/11
f 14/34/12 13/35/12 9/38/12
f 18/10/13 26/37/13 52/36/13
f 2/14/13 12/43/13 26/37/13
f 49/41/11 25/32/11 15/12/11
f 14/42/6 27/1/6 26/37/6
f 28/33/9 25/32/9 49/41/9
f 22/25/9 24/30/9 48/44/9
f 7/28/6 20/19/6 23/27/6
f 21/24/9 22/25/9 43/45/9
f 17/9/9 21/24/9 44/47/9
f 8/22/6 19/17/6 20/19/6
f 1/20/6 16/7/6 19/17/6
f 2/14/4 18/10/4 15/12/4
f 35/49/14 16/7/14 17/9/14
f 9/50/2 13/31/2 28/33/2
f 55/51/1 27/1/1 23/3/1
f 46/53/1 54/94/1 69/54/1
f 66/56/2 48/102/2 56/57/2
f 31/59/15 29/73/15 58/60/15
f 34/62/4 36/103/4 60/63/4
f 30/65/16 51/92/16 50/66/16
f 58/60/6 61/70/6 42/68/6
f 61/70/6 62/78/6 41/71/6
f 38/72/17 40/75/17 29/73/17
f 37/74/18 39/81/18 40/75/18
f 63/76/9 38/72/9 31/59/9
f 64/77/9 37/74/9 38/72/9
f 62/78/6 65/97/6 47/79/6
f 45/80/19 46/104/19 39/81/19
f 66/82/9 45/80/9 37/74/9
f 67/83/9 50/66/9 53/84/9
f 50/66/19 51/92/19 54/85/19
f 69/54/6 68/91/6 52/87/6
f 32/67/11 50/66/11 67/83/11
f 45/89/20 53/86/20 54/85/20
f 60/63/13 36/103/13 52/87/13
f 30/65/13 60/63/13 68/91/13
f 57/64/11 67/83/11 49/93/11
f 54/94/6 51/92/6 68/91/6
f 49/93/9 67/83/9 70/58/9
f 48/95/9 66/82/9 64/77/9
f 39/81/6 46/104/6 65/97/6
f 43/96/9 64/77/9 63/76/9
f 44/98/9 63/76/9 59/61/9
f 40/75/6 39/81/6 62/78/6
f 29/73/6 40/75/6 61/70/6
f 57/64/4 60/63/4 30/65/4
f 59/61/21 58/60/21 35/69/21
f 45/100/2 66/56/2 70/58/2
f 65/55/1 69/54/1 55/88/1
