# Blender v2.79 (sub 0) OBJ File: 'pocion.blend'
# www.blender.org
mtllib pocion.mtl
o pocion_Cylinder
v 0.006384 -0.613036 -0.738907
v 0.636720 -0.613036 -0.374982
v 0.636720 -0.613036 0.352868
v 0.006384 -0.801232 0.534428
v 0.006384 -0.613036 0.716792
v -0.466020 -0.801232 0.261686
v -0.623952 -0.613036 0.352868
v -0.623952 -0.613036 -0.374982
v 0.382155 -0.322404 -0.228009
v 0.006384 -0.322404 -0.444960
v 0.382155 -0.322404 0.205894
v 0.006384 -0.322404 0.422846
v -0.369387 -0.322404 0.205894
v -0.369387 -0.322404 -0.228009
v 0.256476 -0.078377 -0.155448
v 0.006384 -0.078377 -0.299839
v 0.256476 -0.078377 0.133334
v 0.006384 -0.078377 0.277725
v -0.243709 -0.078377 0.133334
v -0.243709 -0.078377 -0.155448
v 0.168085 0.150334 -0.104415
v 0.006384 0.150334 -0.197774
v 0.168085 0.150334 0.082301
v 0.006384 0.150334 0.175659
v -0.155317 0.150334 0.082301
v -0.155317 0.150334 -0.104415
v 0.114121 0.376594 -0.073259
v 0.006384 0.376594 -0.135461
v 0.114121 0.376594 0.051145
v 0.006384 0.376594 0.113347
v -0.101353 0.376594 0.051145
v -0.101353 0.376594 -0.073259
v 0.141768 0.493937 -0.089221
v 0.006384 0.493937 -0.167385
v 0.141768 0.493937 0.067107
v 0.006384 0.493937 0.145271
v -0.129000 0.493937 0.067107
v -0.129000 0.493937 -0.089221
v 0.114121 0.606837 -0.073259
v 0.006384 0.606837 -0.135461
v 0.114121 0.606837 0.051145
v 0.006384 0.606837 0.113347
v -0.101353 0.606837 0.051145
v -0.101353 0.606837 -0.073259
v 0.077809 0.606837 -0.052294
v 0.006384 0.606837 -0.093532
v 0.077809 0.606837 0.030180
v 0.006384 0.606837 0.071417
v -0.065041 0.606837 0.030180
v -0.065041 0.606837 -0.052294
v 0.128809 0.795032 -0.081739
v 0.006384 0.795032 -0.152421
v 0.128809 0.795032 0.059625
v 0.006384 0.795032 0.130307
v -0.116041 0.795032 0.059625
v -0.116041 0.795032 -0.081739
v 0.006384 -0.801232 -0.556543
v 0.478788 -0.801232 -0.283800
v 0.636720 -0.613036 -0.374982
v 0.006384 -0.613036 -0.738907
v 0.478788 -0.801232 0.261686
v 0.636720 -0.613036 0.352868
v 0.006384 -0.801232 0.534428
v 0.006384 -0.613036 0.716792
v -0.466020 -0.801232 0.261686
v -0.623952 -0.613036 0.352868
v -0.466020 -0.801232 -0.283800
v -0.623952 -0.613036 -0.374982
v 0.006384 -0.801232 -0.494761
v 0.425284 -0.801232 -0.252909
v 0.425284 -0.801232 0.230795
v 0.006384 -0.801232 0.472647
v -0.412516 -0.801232 0.230795
v -0.412516 -0.801232 -0.252909
vt 0.495770 0.114083
vt 0.527053 0.095080
vt 0.527053 0.246773
vt 0.495770 0.227769
vt 0.277344 0.246773
vt 0.152489 0.322619
vt 0.152489 0.261357
vt 0.226920 0.216142
vt 0.495770 0.114083
vt 0.527053 0.095080
vt 0.277344 0.246773
vt 0.152489 0.322619
vt 0.898578 0.803125
vt 0.729075 0.771834
vt 0.772760 0.685075
vt 0.885572 0.705900
vt 0.027635 0.246773
vt 0.027635 0.095080
vt 0.078058 0.125711
vt 0.078058 0.216142
vt 0.152489 0.019234
vt 0.277344 0.095080
vt 0.226920 0.125711
vt 0.152489 0.080496
vt 0.835478 0.301782
vt 0.776649 0.305902
vt 0.832039 0.220199
vt 0.870075 0.217535
vt 0.917274 0.897108
vt 0.745637 0.883946
vt 0.780792 0.792997
vt 0.895023 0.801756
vt 0.961296 0.419832
vt 0.791793 0.388541
vt 0.948290 0.322607
vt 0.828723 0.503650
vt 0.679688 0.594186
vt 0.679688 0.533626
vt 0.778878 0.473370
vt 0.718152 0.855213
vt 0.718152 0.674140
vt 0.767997 0.704421
vt 0.767997 0.824932
vt 0.765625 0.380479
vt 0.914661 0.471015
vt 0.864815 0.501296
vt 0.765625 0.441040
vt 0.880298 0.614293
vt 0.807357 0.600828
vt 0.834358 0.514145
vt 0.882955 0.523117
vt 0.713931 0.689195
vt 0.769320 0.603492
vt 0.722656 0.803333
vt 0.769557 0.712194
vt 0.807145 0.705511
vt 0.881004 0.711174
vt 0.943016 0.231000
vt 0.897076 0.130852
vt 0.871733 0.132627
vt 0.867223 0.082577
vt 0.899070 0.080347
vt 0.825707 0.616407
vt 0.874916 0.620180
vt 0.945673 0.139824
vt 0.917274 0.723521
vt 0.899082 0.628406
vt 0.800663 0.620859
vt 0.897421 0.474914
vt 0.836352 0.463640
vt 0.849980 0.420458
vt 0.898578 0.429430
vt 0.884692 0.570689
vt 0.915059 0.581026
vt 0.791384 0.571542
vt 0.822854 0.565947
vt 0.960139 0.091621
vt 0.812152 0.921321
vt 0.812152 0.869406
vt 0.826554 0.878155
vt 0.826554 0.912572
vt 0.832278 0.521540
vt 0.881487 0.525314
vt 0.912698 0.037165
vt 0.961296 0.046137
vt 0.887355 0.038940
vt 0.905653 0.533540
vt 0.807234 0.525993
vt 0.120581 0.883158
vt 0.117920 0.917462
vt 0.040474 0.923139
vt 0.045035 0.864342
vt 0.854882 0.843449
vt 0.897612 0.869406
vt 0.883210 0.878155
vt 0.854882 0.860946
vt 0.897612 0.921321
vt 0.854882 0.947278
vt 0.854882 0.929781
vt 0.883210 0.912572
vt 0.199273 0.795094
vt 0.199273 0.854087
vt 0.150718 0.883583
vt 0.150718 0.765598
vt 0.164970 0.945097
vt 0.132259 0.945097
vt 0.120581 0.864342
vt 0.176648 0.864342
vt 0.146715 0.778966
vt 0.146715 0.813383
vt 0.069965 0.825671
vt 0.069965 0.766678
vt 0.150720 0.830592
vt 0.076829 0.855167
vt 0.120581 0.934956
vt 0.045035 0.953125
vt 0.150720 0.761757
vt 0.076829 0.737182
vt 0.027635 0.095080
vt 0.152489 0.019234
vt 0.495770 0.227769
vt 0.277344 0.095080
vt 0.527053 0.246773
vt 0.027635 0.246773
vt 0.252127 0.291134
vt 0.169380 0.329186
vt 0.169380 0.025447
vt 0.252127 0.063498
vt 0.308626 0.114083
vt 0.402198 0.019234
vt 0.402198 0.057241
vt 0.252127 0.063498
vt 0.334874 0.025447
vt 0.334874 0.329185
vt 0.252127 0.291134
vt 0.334874 0.063498
vt 0.417621 0.025447
vt 0.417621 0.329185
vt 0.334874 0.291134
vt 0.402198 0.284612
vt 0.402198 0.322619
vt 0.308626 0.227769
vt 0.308626 0.227769
vt 0.402198 0.284612
vt 0.308626 0.114083
vt 0.402198 0.057241
vt 0.495770 0.227769
vt 0.495770 0.114083
vt 0.334874 0.291134
vt 0.334874 0.063498
vt 0.252127 0.063498
vt 0.252127 0.291134
vt 0.252127 0.291134
vt 0.252127 0.063498
vt 0.102162 0.854087
vt 0.102162 0.795094
vn -0.3830 -0.6428 0.6634
vn -0.3761 0.6589 -0.6515
vn 0.0000 0.0000 1.0000
vn -0.8890 0.4579 0.0000
vn -0.3761 0.6589 0.6515
vn 0.7522 0.6589 0.0000
vn -0.7522 0.6589 0.0000
vn 0.3761 0.6589 -0.6515
vn 0.3761 0.6589 0.6515
vn -0.4664 0.3605 -0.8078
vn 0.4445 0.4579 0.7699
vn 0.4445 0.4579 -0.7699
vn -0.4445 0.4579 -0.7699
vn -0.4445 0.4579 0.7699
vn 0.8890 0.4579 0.0000
vn -0.9727 0.2320 0.0000
vn -0.4664 0.3605 0.8078
vn 0.9328 0.3605 0.0000
vn -0.9328 0.3605 0.0000
vn 0.4664 0.3605 0.8078
vn 0.4664 0.3605 -0.8078
vn -0.4867 -0.2293 -0.8429
vn 0.4864 0.2320 0.8424
vn 0.4864 0.2320 -0.8424
vn -0.4864 0.2320 -0.8424
vn -0.4864 0.2320 0.8424
vn 0.9727 0.2320 0.0000
vn -0.9713 0.2379 0.0000
vn -0.4867 -0.2293 0.8429
vn 0.9733 -0.2293 0.0000
vn -0.9733 -0.2293 0.0000
vn 0.4867 -0.2293 0.8429
vn 0.4867 -0.2293 -0.8429
vn 0.0000 1.0000 -0.0000
vn 0.4857 0.2379 0.8412
vn 0.4857 0.2379 -0.8412
vn -0.4857 0.2379 -0.8412
vn -0.4857 0.2379 0.8412
vn 0.9713 0.2379 -0.0000
vn -0.9652 -0.2616 0.0000
vn 0.4826 -0.2616 0.8359
vn 0.4826 -0.2616 -0.8359
vn -0.4826 -0.2616 -0.8359
vn -0.4826 -0.2616 0.8359
vn 0.9652 -0.2616 0.0000
vn 0.3830 -0.6428 -0.6634
vn 0.7660 -0.6428 0.0000
vn 0.3830 -0.6428 0.6634
vn -0.7660 -0.6428 0.0000
vn -0.3830 -0.6428 -0.6634
vn 0.0000 -1.0000 0.0000
usemtl Material.001
s off
f 4/1/1 5/2/1 7/3/1 6/4/1
f 1/5/2 8/6/2 14/7/2 10/8/2
f 5/2/3 4/1/3 63/9/3 64/10/3
f 8/6/3 1/5/3 60/11/3 68/12/3
f 14/13/4 13/14/4 19/15/4 20/16/4
f 7/17/5 5/18/5 12/19/5 13/20/5
f 3/21/6 2/22/6 9/23/6 11/24/6
f 8/6/7 7/17/7 13/20/7 14/7/7
f 2/22/8 1/5/8 10/8/8 9/23/8
f 5/18/9 3/21/9 11/24/9 12/19/9
f 16/25/10 20/26/10 26/27/10 22/28/10
f 12/29/11 11/30/11 17/31/11 18/32/11
f 9/33/12 10/34/12 16/25/12 15/35/12
f 10/36/13 14/37/13 20/38/13 16/39/13
f 13/40/14 12/41/14 18/42/14 19/43/14
f 11/44/15 9/45/15 15/46/15 17/47/15
f 26/48/16 25/49/16 31/50/16 32/51/16
f 19/15/17 18/52/17 24/53/17 25/49/17
f 17/31/18 15/54/18 21/55/18 23/56/18
f 20/16/19 19/15/19 25/49/19 26/48/19
f 18/32/20 17/31/20 23/56/20 24/57/20
f 15/35/21 16/25/21 22/28/21 21/58/21
f 28/59/22 32/60/22 38/61/22 34/62/22
f 24/57/23 23/56/23 29/63/23 30/64/23
f 21/58/24 22/28/24 28/59/24 27/65/24
f 22/28/25 26/27/25 32/60/25 28/59/25
f 25/66/26 24/57/26 30/64/26 31/67/26
f 23/56/27 21/55/27 27/68/27 29/63/27
f 38/69/28 37/70/28 43/71/28 44/72/28
f 31/67/29 30/64/29 36/73/29 37/74/29
f 29/63/30 27/68/30 33/75/30 35/76/30
f 32/51/31 31/50/31 37/70/31 38/69/31
f 30/64/32 29/63/32 35/76/32 36/73/32
f 27/65/33 28/59/33 34/62/33 33/77/33
f 40/78/34 44/79/34 50/80/34 46/81/34
f 36/73/35 35/76/35 41/82/35 42/83/35
f 33/77/36 34/62/36 40/84/36 39/85/36
f 34/62/37 38/61/37 44/86/37 40/84/37
f 37/74/38 36/73/38 42/83/38 43/87/38
f 35/76/39 33/75/39 39/88/39 41/82/39
f 50/89/40 49/90/40 55/91/40 56/92/40
f 43/93/34 42/94/34 48/95/34 49/96/34
f 41/97/34 39/98/34 45/99/34 47/100/34
f 44/79/34 43/93/34 49/96/34 50/80/34
f 42/94/34 41/97/34 47/100/34 48/95/34
f 39/98/34 40/78/34 46/81/34 45/99/34
f 51/101/34 52/102/34 56/103/34 53/104/34
f 48/105/41 47/106/41 53/107/41 54/108/41
f 45/109/42 46/110/42 52/111/42 51/112/42
f 46/110/43 50/113/43 56/114/43 52/111/43
f 49/90/44 48/115/44 54/116/44 55/91/44
f 47/117/45 45/109/45 51/112/45 53/118/45
f 3/21/3 5/18/3 64/119/3 62/120/3
f 4/1/3 6/4/3 65/121/3 63/9/3
f 1/5/3 2/22/3 59/122/3 60/11/3
f 6/4/3 7/3/3 66/123/3 65/121/3
f 7/17/3 8/6/3 68/12/3 66/124/3
f 2/22/3 3/21/3 62/120/3 59/122/3
f 57/125/46 60/126/46 59/127/46 58/128/46
f 58/129/47 59/122/47 62/130/47 61/131/47
f 61/132/48 62/133/48 64/134/48 63/135/48
f 65/136/49 66/137/49 68/138/49 67/139/49
f 67/140/50 68/141/50 60/11/50 57/142/50
f 67/140/51 57/142/51 69/143/51 74/144/51
f 69/143/51 70/145/51 71/146/51 74/144/51
f 63/9/51 65/121/51 73/147/51 72/148/51
f 58/129/51 61/131/51 71/146/51 70/145/51
f 65/136/51 67/139/51 74/149/51 73/150/51
f 57/125/51 58/128/51 70/151/51 69/152/51
f 61/132/51 63/135/51 72/153/51 71/154/51
f 53/104/34 56/103/34 55/155/34 54/156/34
f 74/144/51 71/146/51 72/148/51 73/147/51
