# Blender v2.79 (sub 0) OBJ File: 'regular.blend'
# www.blender.org
mtllib regular.mtl
o Cube
v -0.000000 -0.000000 -0.170989
v 0.000000 0.000000 0.170989
v 0.075465 0.000000 0.070522
v 0.075465 -0.000000 -0.070523
v -0.000000 0.064636 -0.070523
v 0.000000 0.064636 0.070523
v -0.000000 -0.064636 -0.070523
v 0.000000 -0.064636 0.070523
v -0.075465 0.000000 0.070523
v -0.075465 0.000000 -0.070522
v -0.049272 0.049272 0.070523
v -0.049272 0.049272 -0.070523
v 0.049272 0.049272 -0.070523
v 0.049272 0.049272 0.070522
v -0.049272 -0.049272 0.070523
v -0.049272 -0.049272 -0.070522
v 0.049272 -0.049272 0.070523
v 0.049272 -0.049272 -0.070523
vt 0.249814 0.254680
vt 0.125000 0.254680
vt 0.125000 0.000186
vt 0.749814 0.254680
vt 0.625000 0.254680
vt 0.625000 0.000186
vt 0.250186 0.254680
vt 0.375000 0.254680
vt 0.375000 0.000186
vt 0.000186 0.611967
vt 0.125000 0.611967
vt 0.125000 0.866462
vt 0.000186 0.254680
vt 0.375000 0.866462
vt 0.375000 0.611967
vt 0.250186 0.611967
vt 0.625000 0.866462
vt 0.625000 0.611967
vt 0.749814 0.611967
vt 0.249814 0.611968
vt 0.500186 0.611967
vt 0.875000 0.254680
vt 0.750186 0.611967
vt 0.875000 0.611967
vt 0.499814 0.254680
vt 0.999814 0.611967
vt 0.875000 0.866462
vt 0.499814 0.611967
vt 0.875000 0.000186
vt 0.750186 0.254680
vt 0.500186 0.254680
vt 0.999814 0.254680
vn 0.2537 0.8135 0.5234
vn -0.7359 -0.3912 -0.5527
vn 0.2537 -0.8135 -0.5234
vn -0.2537 0.8135 -0.5234
vn -0.2537 0.8135 0.5234
vn -0.2977 0.9547 0.0000
vn 0.2537 -0.8135 0.5234
vn 0.2977 -0.9547 -0.0000
vn -0.7359 -0.3912 0.5527
vn -0.8830 -0.4694 0.0000
vn 0.2537 0.8135 -0.5234
vn 0.2977 0.9547 -0.0000
vn -0.8830 0.4694 0.0000
vn 0.8830 0.4694 -0.0000
vn -0.2977 -0.9547 0.0000
vn 0.8830 -0.4694 -0.0000
vn -0.7359 0.3912 0.5527
vn 0.7359 -0.3912 0.5527
vn 0.7359 0.3912 0.5527
vn -0.2537 -0.8135 0.5234
vn -0.2537 -0.8135 -0.5234
vn 0.7359 0.3912 -0.5527
vn -0.7359 0.3912 -0.5527
vn 0.7359 -0.3912 -0.5527
usemtl regular
s off
f 14/1/1 6/2/1 2/3/1
f 16/4/2 10/5/2 1/6/2
f 18/7/3 7/8/3 1/9/3
f 12/10/4 5/11/4 1/12/4
f 2/3/5 6/2/5 11/13/5
f 6/2/6 12/10/6 11/13/6
f 2/14/7 8/15/7 17/16/7
f 17/16/8 7/8/8 18/7/8
f 2/17/9 9/18/9 15/19/9
f 9/18/10 16/4/10 15/19/10
f 1/12/11 5/11/11 13/20/11
f 5/11/12 14/1/12 13/20/12
f 11/21/13 10/5/13 9/18/13
f 4/22/14 14/23/14 3/24/14
f 8/15/15 16/25/15 7/8/15
f 17/26/16 4/22/16 3/24/16
f 9/18/17 2/17/17 11/21/17
f 3/24/18 2/27/18 17/26/18
f 3/24/19 14/23/19 2/27/19
f 8/15/20 2/14/20 15/28/20
f 7/8/21 16/25/21 1/9/21
f 4/22/22 1/29/22 13/30/22
f 10/5/23 12/31/23 1/6/23
f 4/22/24 18/32/24 1/29/24
f 6/2/6 5/11/6 12/10/6
f 17/16/8 8/15/8 7/8/8
f 9/18/10 10/5/10 16/4/10
f 5/11/12 6/2/12 14/1/12
f 11/21/13 12/31/13 10/5/13
f 4/22/14 13/30/14 14/23/14
f 8/15/15 15/28/15 16/25/15
f 17/26/16 18/32/16 4/22/16
