# Blender v2.79 (sub 0) OBJ File: 'shelving04.blend'
# www.blender.org
mtllib shelving04.mtl
o Estanteria.003_Cube.032
v 2.708825 1.626661 -0.318691
v -2.562085 -1.537815 0.339241
v -2.670755 1.626661 -0.318691
v 2.600155 -1.537815 0.339241
v 2.600155 1.560715 0.339241
v -2.562085 1.560715 0.339241
v -2.670755 -1.603761 -0.318691
v 2.708825 -1.603761 -0.318691
v -2.670755 -0.659484 -0.318691
v -2.670755 -0.468040 -0.318691
v -2.670755 0.570008 -0.318691
v -2.670755 0.745061 -0.318691
v -2.562085 0.811007 0.339241
v -2.562085 0.504061 0.339241
v -2.562085 -0.402094 0.339241
v -2.562085 -0.725431 0.339241
v 2.708825 -0.659484 -0.318691
v 2.708825 -0.468040 -0.318691
v 2.708825 0.570008 -0.318691
v 2.708825 0.745061 -0.318691
v 2.600155 0.811007 0.339241
v 2.600155 0.504061 0.339241
v 2.600155 -0.402094 0.339241
v 2.600155 -0.725431 0.339241
v 2.708825 1.626661 0.339241
v -2.670755 1.626661 0.339241
v 2.708825 -0.659484 0.339241
v -2.670755 -0.659484 0.339241
v 2.708825 -0.468040 0.339241
v -2.670755 -0.468040 0.339241
v 2.708825 0.570008 0.339241
v -2.670755 0.570008 0.339241
v 2.708825 0.745061 0.339241
v -2.670755 0.745061 0.339241
v -2.670755 -1.603761 0.339241
v 2.708825 -1.603761 0.339241
v 2.600155 1.560715 -0.208800
v -2.562085 1.560715 -0.208800
v 2.600155 -0.725431 -0.208800
v -2.562085 -0.725431 -0.208800
v 2.600155 -0.402094 -0.208800
v -2.562085 -0.402094 -0.208800
v 2.600155 0.504061 -0.208800
v -2.562085 0.504061 -0.208800
v 2.600155 0.811007 -0.208800
v -2.562085 0.811007 -0.208800
v -2.562085 -1.537815 -0.208800
v 2.600155 -1.537815 -0.208800
v -2.564857 -1.537816 0.265434
v 1.872245 -1.537816 0.265433
v -2.564857 -0.891043 0.265434
v 1.872245 -0.891043 0.265433
v -2.564857 -1.537816 -0.215920
v 1.872245 -1.537816 -0.215920
v -2.564857 -0.891043 -0.215920
v 1.872245 -0.891043 -0.215920
v -1.999526 0.811007 0.213747
v 2.602992 0.811007 0.213746
v -1.999526 1.457779 0.213747
v 2.602992 1.457780 0.213746
v -1.999526 0.811007 -0.267607
v 2.602992 0.811007 -0.267607
v -1.999526 1.457779 -0.267607
v 2.602993 1.457780 -0.267607
v -2.664303 -0.402095 0.215137
v 2.505749 -0.402094 0.215137
v -2.664303 0.244678 0.215137
v 2.505750 0.244679 0.215137
v -2.664303 -0.402095 -0.266217
v 2.505750 -0.402094 -0.266217
v -2.664303 0.244678 -0.266217
v 2.505750 0.244679 -0.266217
vt 0.114423 0.082830
vt 0.496140 0.000383
vt 0.457446 0.062666
vt 0.566363 0.953949
vt 0.936704 0.994362
vt 0.479844 0.994362
vt 0.411457 0.504037
vt 0.000383 0.490660
vt 0.411457 0.490660
vt 0.080175 0.742945
vt 0.000383 0.853750
vt 0.022377 0.691435
vt 0.411639 0.608691
vt 0.000565 0.594062
vt 0.411639 0.594062
vt 0.412899 0.604051
vt 0.848053 0.675363
vt 0.412899 0.675363
vt 0.412899 0.589891
vt 0.848053 0.604051
vt 0.412899 0.505923
vt 0.848053 0.589891
vt 0.412899 0.490437
vt 0.848053 0.505923
vt 0.076952 0.184834
vt 0.046498 0.114263
vt 0.089058 0.131757
vt 0.081979 0.208284
vt 0.017431 0.179829
vt 0.565759 0.280732
vt 0.482996 0.151281
vt 0.565759 0.134676
vt 0.560803 0.110909
vt 0.481791 0.134506
vt 0.498063 0.413289
vt 0.066721 0.302225
vt 0.447641 0.329788
vt 0.556823 0.308519
vt 0.477485 0.253029
vt 0.049162 0.106657
vt 0.092860 0.130833
vt 0.412899 0.414055
vt 0.848053 0.490437
vt 0.871753 0.886539
vt 0.501412 0.846126
vt 0.958272 0.846126
vt 0.465670 0.285729
vt 0.079108 0.042745
vt 0.005237 0.341248
vt 0.000383 0.199549
vt 0.001060 0.414054
vt 0.402096 0.420564
vt 0.010951 0.420549
vt 0.000565 0.608691
vt 0.401668 0.615199
vt 0.010498 0.615182
vt 0.010527 0.587558
vt 0.401705 0.587573
vt 0.000383 0.504036
vt 0.401494 0.510541
vt 0.010317 0.510526
vt 0.010420 0.484151
vt 0.401566 0.484166
vt 0.401814 0.684179
vt 0.010644 0.684163
vt 0.412134 0.414054
vt 0.411746 0.690670
vt 0.875163 0.943529
vt 0.562953 0.896959
vt 0.399286 0.802240
vt 0.396321 0.732754
vt 0.876670 0.794238
vt 0.561425 0.742558
vt 0.873400 0.732240
vt 0.564695 0.804557
vt 0.936489 0.845361
vt 0.479844 0.845361
vt 0.501606 0.691435
vt 0.958251 0.691435
vt 0.479078 0.691435
vt 0.457085 0.853750
vt 0.083140 0.812431
vt 0.566524 0.211948
vt 0.925441 0.159631
vt 0.925441 0.211948
vt 0.359299 0.999617
vt 0.000383 0.960681
vt 0.359299 0.960680
vt 0.925440 0.158866
vt 0.566524 0.106548
vt 0.925440 0.106548
vt 0.925440 0.410459
vt 0.566524 0.371522
vt 0.925440 0.371522
vt 0.848818 0.466372
vt 0.887755 0.414054
vt 0.887755 0.466372
vt 0.848818 0.519455
vt 0.887755 0.467137
vt 0.887755 0.519455
vt 0.566524 0.052700
vt 0.938821 0.000383
vt 0.938821 0.052700
vt 0.566524 0.331055
vt 0.938821 0.292118
vt 0.938821 0.331055
vt 0.938821 0.105783
vt 0.566524 0.053465
vt 0.938821 0.053465
vt 0.566524 0.370757
vt 0.938821 0.331820
vt 0.938821 0.370757
vt 0.848818 0.625620
vt 0.887755 0.573303
vt 0.887755 0.625620
vt 0.848818 0.572537
vt 0.887755 0.520220
vt 0.887755 0.572537
vt 0.000383 0.906832
vt 0.418587 0.854515
vt 0.418587 0.906832
vt 0.566524 0.291353
vt 0.984730 0.252416
vt 0.984730 0.291353
vt 0.000383 0.959915
vt 0.418587 0.907598
vt 0.418587 0.959915
vt 0.566524 0.251650
vt 0.984730 0.212714
vt 0.984730 0.251650
vt 0.419353 0.906832
vt 0.458289 0.854515
vt 0.458289 0.906832
vt 0.848818 0.678703
vt 0.887755 0.626385
vt 0.887755 0.678703
vt 0.848053 0.414054
vt 0.000672 0.690670
vt 0.566524 0.159631
vt 0.000383 0.999617
vt 0.566524 0.158866
vt 0.566524 0.410459
vt 0.848818 0.414054
vt 0.848818 0.467137
vt 0.566524 0.000383
vt 0.566524 0.292118
vt 0.566524 0.105783
vt 0.566524 0.331820
vt 0.848818 0.573303
vt 0.848818 0.520220
vt 0.000383 0.854515
vt 0.566524 0.252416
vt 0.000383 0.907598
vt 0.566524 0.212714
vt 0.419353 0.854515
vt 0.848818 0.626385
vn 0.0000 1.0000 0.0000
vn 0.0000 0.0000 1.0000
vn -1.0000 0.0000 0.0000
vn 0.0000 0.0000 -1.0000
vn 1.0000 0.0000 0.0000
vn 0.0000 -1.0000 0.0000
usemtl Material.001
s off
f 25/1/1 3/2/1 26/3/1
f 45/4/1 13/5/1 21/6/1
f 32/7/2 33/8/2 34/9/2
f 43/10/3 23/11/3 22/12/3
f 28/13/2 29/14/2 30/15/2
f 20/16/4 3/17/4 1/18/4
f 19/19/4 12/20/4 20/16/4
f 18/21/4 11/22/4 19/19/4
f 17/23/4 10/24/4 18/21/4
f 29/25/5 19/26/5 31/27/5
f 27/28/5 18/29/5 29/25/5
f 10/30/3 32/31/3 11/32/3
f 12/33/3 26/3/3 3/2/3
f 11/32/3 34/34/3 12/33/3
f 7/35/6 36/36/6 35/37/6
f 9/38/3 30/39/3 10/30/3
f 31/27/5 20/40/5 33/41/5
f 8/42/4 9/43/4 17/23/4
f 38/44/6 5/45/6 6/46/6
f 9/38/3 35/37/3 28/47/3
f 33/41/5 1/48/5 25/1/5
f 27/28/5 8/49/5 17/50/5
f 25/51/2 6/52/2 5/53/2
f 27/54/2 16/55/2 24/56/2
f 30/15/2 23/57/2 15/58/2
f 31/59/2 14/60/2 22/61/2
f 34/9/2 21/62/2 13/63/2
f 33/8/2 5/53/2 21/62/2
f 28/13/2 2/64/2 16/55/2
f 29/14/2 22/61/2 23/57/2
f 32/7/2 15/58/2 14/60/2
f 4/65/2 27/54/2 24/56/2
f 26/66/2 13/63/2 6/52/2
f 35/67/2 4/65/2 2/64/2
f 46/68/2 37/69/2 38/44/2
f 42/70/2 43/10/2 44/71/2
f 47/72/2 39/73/2 40/74/2
f 48/75/1 2/76/1 4/77/1
f 40/74/6 24/78/6 16/79/6
f 42/70/5 14/80/5 15/81/5
f 37/69/3 21/6/3 5/45/3
f 41/82/1 15/81/1 23/11/1
f 39/73/3 4/77/3 24/78/3
f 2/76/5 40/74/5 16/79/5
f 44/71/6 22/12/6 14/80/6
f 46/68/5 6/46/5 13/5/5
f 50/83/2 51/84/2 49/85/2
f 51/86/1 56/87/1 55/88/1
f 55/89/4 54/90/4 53/91/4
f 53/92/6 50/93/6 49/94/6
f 55/95/3 49/96/3 51/97/3
f 52/98/5 54/99/5 56/100/5
f 58/101/2 59/102/2 57/103/2
f 60/104/1 63/105/1 59/106/1
f 63/107/4 62/108/4 61/109/4
f 62/110/6 57/111/6 61/112/6
f 63/113/3 57/114/3 59/115/3
f 60/116/5 62/117/5 64/118/5
f 66/119/2 67/120/2 65/121/2
f 68/122/1 71/123/1 67/124/1
f 72/125/4 69/126/4 71/127/4
f 70/128/6 65/129/6 69/130/6
f 71/131/3 65/132/3 67/133/3
f 68/134/5 70/135/5 72/136/5
f 25/1/1 1/48/1 3/2/1
f 45/4/1 46/68/1 13/5/1
f 32/7/2 31/59/2 33/8/2
f 43/10/3 41/82/3 23/11/3
f 28/13/2 27/54/2 29/14/2
f 20/16/4 12/20/4 3/17/4
f 19/19/4 11/22/4 12/20/4
f 18/21/4 10/24/4 11/22/4
f 17/23/4 9/43/4 10/24/4
f 29/25/5 18/29/5 19/26/5
f 27/28/5 17/50/5 18/29/5
f 10/30/3 30/39/3 32/31/3
f 12/33/3 34/34/3 26/3/3
f 11/32/3 32/31/3 34/34/3
f 7/35/6 8/49/6 36/36/6
f 9/38/3 28/47/3 30/39/3
f 31/27/5 19/26/5 20/40/5
f 8/42/4 7/137/4 9/43/4
f 38/44/6 37/69/6 5/45/6
f 9/38/3 7/35/3 35/37/3
f 33/41/5 20/40/5 1/48/5
f 27/28/5 36/36/5 8/49/5
f 25/51/2 26/66/2 6/52/2
f 27/54/2 28/13/2 16/55/2
f 30/15/2 29/14/2 23/57/2
f 31/59/2 32/7/2 14/60/2
f 34/9/2 33/8/2 21/62/2
f 33/8/2 25/51/2 5/53/2
f 28/13/2 35/67/2 2/64/2
f 29/14/2 31/59/2 22/61/2
f 32/7/2 30/15/2 15/58/2
f 4/65/2 36/138/2 27/54/2
f 26/66/2 34/9/2 13/63/2
f 35/67/2 36/138/2 4/65/2
f 46/68/2 45/4/2 37/69/2
f 42/70/2 41/82/2 43/10/2
f 47/72/2 48/75/2 39/73/2
f 48/75/1 47/72/1 2/76/1
f 40/74/6 39/73/6 24/78/6
f 42/70/5 44/71/5 14/80/5
f 37/69/3 45/4/3 21/6/3
f 41/82/1 42/70/1 15/81/1
f 39/73/3 48/75/3 4/77/3
f 2/76/5 47/72/5 40/74/5
f 44/71/6 43/10/6 22/12/6
f 46/68/5 38/44/5 6/46/5
f 50/83/2 52/139/2 51/84/2
f 51/86/1 52/140/1 56/87/1
f 55/89/4 56/141/4 54/90/4
f 53/92/6 54/142/6 50/93/6
f 55/95/3 53/143/3 49/96/3
f 52/98/5 50/144/5 54/99/5
f 58/101/2 60/145/2 59/102/2
f 60/104/1 64/146/1 63/105/1
f 63/107/4 64/147/4 62/108/4
f 62/110/6 58/148/6 57/111/6
f 63/113/3 61/149/3 57/114/3
f 60/116/5 58/150/5 62/117/5
f 66/119/2 68/151/2 67/120/2
f 68/122/1 72/152/1 71/123/1
f 72/125/4 70/153/4 69/126/4
f 70/128/6 66/154/6 65/129/6
f 71/131/3 69/155/3 65/132/3
f 68/134/5 66/156/5 70/135/5
