# Blender v2.79 (sub 0) OBJ File: 'table.blend'
# www.blender.org
mtllib table.mtl
o Mesa_Cube.006
v 2.501085 0.318129 0.610670
v 2.501085 -0.707743 0.610670
v 2.501085 0.318129 -0.608517
v 2.501085 -0.707743 -0.608517
v -2.500536 -0.707743 -0.608517
v -2.500536 0.318129 -0.608517
v -2.500536 -0.707743 0.610670
v -2.500536 0.318129 0.610670
v -2.097447 -0.707743 0.610670
v 2.097997 -0.707743 0.610670
v 2.097997 0.318129 0.610670
v -2.097447 0.318129 0.610670
v 2.097997 -0.707743 -0.608517
v -2.097447 -0.707743 -0.608517
v -2.097447 0.318129 -0.608517
v 2.097997 0.318129 -0.608517
v 2.501086 -0.707743 0.367752
v 2.501086 -0.707743 -0.365599
v 2.501086 0.318129 -0.365599
v 2.501086 0.318129 0.367752
v -2.500537 -0.707743 -0.365599
v -2.500537 -0.707743 0.367752
v -2.500537 0.318129 0.367752
v -2.500537 0.318129 -0.365599
v 2.097997 -0.707743 0.367752
v 2.097997 -0.707743 -0.365599
v -2.097448 -0.707743 0.367752
v -2.097448 -0.707743 -0.365599
v 2.501086 0.150441 -0.365599
v 2.501086 0.150441 0.367752
v -2.500537 0.150441 0.367752
v -2.500537 0.150441 -0.365599
v -2.097448 0.150441 0.367752
v -2.097448 0.150441 -0.365599
v 2.097997 0.150441 0.367752
v 2.097997 0.150441 -0.365599
v -2.500536 0.146126 -0.608517
v -2.097447 0.146126 -0.608517
v -2.500536 0.155341 0.610670
v -2.097447 0.155341 0.610670
v 2.501085 0.150203 0.610670
v 2.097997 0.150203 0.610670
v 2.501085 0.150203 -0.608517
v 2.097997 0.150203 -0.608517
vt 0.300317 0.514482
vt 0.374774 0.673001
vt 0.300317 0.673001
vt 0.103495 0.031530
vt 0.024503 0.016244
vt 0.099975 0.000277
vt 0.999723 0.070930
vt 0.959564 0.044895
vt 0.978313 0.024801
vt 0.898827 0.257191
vt 0.981341 0.270355
vt 0.902791 0.288152
vt 0.001165 0.220567
vt 0.042504 0.247352
vt 0.023822 0.267322
vt 0.075287 0.514482
vt 0.149744 0.673001
vt 0.075287 0.673001
vt 0.690653 0.673001
vt 0.645782 0.514482
vt 0.690653 0.514482
vt 0.736631 0.514482
vt 0.781501 0.672204
vt 0.736631 0.673001
vt 0.042846 0.040311
vt 0.000277 0.066245
vt 0.966852 0.211175
vt 0.999428 0.218161
vt 0.075287 0.673555
vt 0.120158 0.748012
vt 0.075287 0.748012
vt 0.096333 0.288155
vt 0.906359 0.003847
vt 0.166135 0.673555
vt 0.211006 0.748011
vt 0.166135 0.748011
vt 0.511047 0.673511
vt 0.466176 0.747968
vt 0.466176 0.673511
vt 0.165582 0.673555
vt 0.120711 0.748011
vt 0.120711 0.673555
vt 0.924150 0.469050
vt 0.849694 0.333590
vt 0.924150 0.333590
vt 0.074733 0.469050
vt 0.000277 0.333590
vt 0.074733 0.333590
vt 0.965856 0.078881
vt 0.035757 0.075058
vt 0.036224 0.212405
vt 0.901476 0.038460
vt 0.599804 0.672204
vt 0.525348 0.514482
vt 0.599804 0.514482
vt 0.224754 0.673001
vt 0.150297 0.514482
vt 0.224754 0.514482
vt 0.736077 0.514482
vt 0.691206 0.672204
vt 0.691206 0.514482
vt 0.645228 0.514482
vt 0.600358 0.673001
vt 0.600358 0.514482
vt 0.074733 0.673906
vt 0.000277 0.514482
vt 0.074733 0.514482
vt 0.420198 0.831987
vt 0.375328 0.673511
vt 0.420198 0.673511
vt 0.299764 0.673001
vt 0.225307 0.514482
vt 0.299764 0.514482
vt 0.449784 0.672957
vt 0.375328 0.514482
vt 0.449784 0.514482
vt 0.465622 0.673511
vt 0.420752 0.831987
vt 0.420752 0.673511
vt 0.826925 0.672957
vt 0.782055 0.514482
vt 0.826925 0.514482
vt 0.570218 0.672758
vt 0.525348 0.831234
vt 0.525348 0.672758
vt 0.524794 0.672957
vt 0.450338 0.514482
vt 0.524794 0.514482
vt 0.101089 0.254175
vt 0.374774 0.514482
vt 0.957401 0.246820
vt 0.149744 0.514482
vt 0.645782 0.673906
vt 0.781501 0.514482
vt 0.120158 0.673555
vt 0.211006 0.673555
vt 0.511047 0.747968
vt 0.165582 0.748012
vt 0.849694 0.469050
vt 0.000277 0.469050
vt 0.525348 0.672204
vt 0.150297 0.673001
vt 0.736077 0.673001
vt 0.645229 0.673907
vt 0.000277 0.673906
vt 0.375328 0.832030
vt 0.225307 0.673001
vt 0.375328 0.672957
vt 0.465622 0.832031
vt 0.782055 0.673001
vt 0.849694 0.288709
vt 0.849694 0.513928
vt 0.074733 0.513920
vt 0.074733 0.288719
vt 0.570218 0.831277
vt 0.450338 0.672957
vn 0.0000 0.0000 1.0000
vn 0.0000 0.0000 -1.0000
vn -1.0000 0.0000 -0.0000
vn 1.0000 0.0000 0.0000
vn 0.0000 -1.0000 0.0000
vn 0.0000 1.0000 0.0000
vn 0.0000 -0.9998 0.0202
vn 0.0010 -0.9998 0.0178
vn 0.0000 -1.0000 0.0010
vn -0.0012 -1.0000 -0.0010
usemtl Material
s off
f 26/1/1 29/2/1 36/3/1
f 16/4/2 43/5/2 44/6/2
f 32/7/3 6/8/3 37/9/3
f 12/10/1 39/11/1 40/12/1
f 30/13/4 1/14/4 41/15/4
f 27/16/2 31/17/2 33/18/2
f 33/19/4 9/20/4 27/21/4
f 28/22/4 38/23/4 34/24/4
f 3/25/4 29/26/4 43/5/4
f 39/11/3 23/27/3 31/28/3
f 7/29/5 27/30/5 9/31/5
f 1/14/1 42/32/1 41/15/1
f 6/8/2 38/33/2 37/9/2
f 26/34/5 4/35/5 18/36/5
f 28/37/5 5/38/5 14/39/5
f 2/40/5 25/41/5 17/42/5
f 32/43/5 33/44/5 31/45/5
f 36/46/5 30/47/5 35/48/5
f 32/7/3 23/27/3 24/49/3
f 30/13/4 19/50/4 20/51/4
f 15/52/6 24/49/6 12/10/6
f 37/53/2 14/54/2 5/55/2
f 34/56/1 21/57/1 28/58/1
f 21/59/3 37/60/3 5/61/3
f 7/62/3 31/63/3 22/64/3
f 40/65/1 7/66/1 9/67/1
f 42/68/3 25/69/3 10/70/3
f 35/71/2 17/72/2 25/73/2
f 41/74/1 10/75/1 2/76/1
f 17/77/4 41/78/4 2/79/4
f 43/80/4 18/81/4 4/82/4
f 36/46/5 35/48/5 33/44/5
f 26/83/3 44/84/3 13/85/3
f 44/86/2 4/87/2 13/88/2
f 44/6/2 15/52/2 16/4/2
f 40/12/1 11/89/1 12/10/1
f 26/1/1 18/90/1 29/2/1
f 16/4/2 3/25/2 43/5/2
f 32/7/3 24/49/3 6/8/3
f 12/10/1 8/91/1 39/11/1
f 30/13/4 20/51/4 1/14/4
f 27/16/2 22/92/2 31/17/2
f 33/19/4 40/93/4 9/20/4
f 28/22/4 14/94/4 38/23/4
f 3/25/4 19/50/4 29/26/4
f 39/11/3 8/91/3 23/27/3
f 7/29/5 22/95/5 27/30/5
f 1/14/1 11/89/1 42/32/1
f 6/8/2 15/52/2 38/33/2
f 26/34/5 13/96/5 4/35/5
f 28/37/5 21/97/5 5/38/5
f 2/40/5 10/98/5 25/41/5
f 32/43/5 34/99/5 33/44/5
f 36/46/5 29/100/5 30/47/5
f 32/7/3 31/28/3 23/27/3
f 30/13/4 29/26/4 19/50/4
f 1/14/6 20/51/6 11/89/6
f 19/50/6 3/25/6 16/4/6
f 15/52/6 6/8/6 24/49/6
f 19/50/6 16/4/6 11/89/6
f 11/89/6 20/51/6 19/50/6
f 23/27/6 8/91/6 12/10/6
f 12/10/6 11/89/6 16/4/6
f 16/4/6 15/52/6 12/10/6
f 24/49/6 23/27/6 12/10/6
f 37/53/2 38/101/2 14/54/2
f 34/56/1 32/102/1 21/57/1
f 21/59/3 32/103/3 37/60/3
f 7/62/3 39/104/3 31/63/3
f 40/65/1 39/105/1 7/66/1
f 42/68/3 35/106/3 25/69/3
f 35/71/2 30/107/2 17/72/2
f 41/74/1 42/108/1 10/75/1
f 17/77/4 30/109/4 41/78/4
f 43/80/4 29/110/4 18/81/4
f 40/111/7 33/44/7 35/48/7
f 34/99/8 38/112/8 44/113/8
f 44/113/9 36/46/9 34/99/9
f 35/48/10 42/114/10 40/111/10
f 33/44/5 34/99/5 36/46/5
f 26/83/3 36/115/3 44/84/3
f 44/86/2 43/116/2 4/87/2
f 44/6/2 38/33/2 15/52/2
f 40/12/1 42/32/1 11/89/1
