# Blender v2.79 (sub 0) OBJ File: 'WarlockArm.blend'
# www.blender.org
mtllib WarlockArm.mtl
o Wizard_in_Blue_medievalfantasyassets_Untitled
v 0.655716 0.577753 0.894756
v 0.678865 0.624138 0.928768
v 0.672700 0.565413 0.928768
v 0.627958 0.596637 0.928768
v 0.608165 0.543487 0.875052
v 0.626094 0.518808 0.928768
v 0.583312 0.581888 0.928768
v 0.529131 0.519043 0.875052
v 0.534819 0.483731 0.928768
v 0.521825 0.569175 0.928768
v 0.425006 0.535991 0.875052
v 0.407810 0.503847 0.928768
v 0.447043 0.581860 0.928768
v 0.350029 0.622115 0.875052
v 0.316881 0.605327 0.928768
v 0.392707 0.647004 0.928768
v 0.332148 0.747774 0.875052
v 0.296766 0.753212 0.928768
v 0.378307 0.742216 0.928768
v 0.375904 0.869860 0.875052
v 0.355143 0.890017 0.928768
v 0.405123 0.841055 0.928768
v 0.443678 0.923220 0.875052
v 0.437173 0.943242 0.928768
v 0.454391 0.890295 0.928768
v 0.502272 0.940443 0.890465
v 0.502272 0.953553 0.928768
v 0.502338 0.920104 0.928768
v 0.567369 0.943242 0.928768
v 0.655716 0.577752 0.962781
v 0.608165 0.543487 0.982486
v 0.529131 0.519043 0.982486
v 0.425006 0.535991 0.982486
v 0.350029 0.622115 0.982486
v 0.332148 0.747774 0.982486
v 0.375904 0.869860 0.982486
v 0.443678 0.923220 0.982486
v 0.502272 0.940443 0.967072
v 0.445309 0.528044 0.962753
v 0.513161 0.528044 0.962753
v 0.513161 0.528044 0.894901
v 0.445309 0.528044 0.894901
v 0.496405 -0.836622 0.911657
v 0.462066 -0.836622 0.911657
v 0.496405 -0.836622 0.945995
v 0.462066 -0.836622 0.945995
v 0.469330 0.761247 0.928768
v 0.517693 0.761247 0.880404
v 0.517695 0.713126 0.880404
v 0.469331 0.713126 0.928768
v 0.517695 0.713126 0.977132
v 0.566059 0.713126 0.928768
v 0.566057 0.761247 0.928768
v 0.517693 0.761247 0.977132
v 0.517693 0.830153 0.928768
v 0.517693 0.637720 0.928768
v 0.613756 0.030273 0.349086
v 0.647464 0.042983 0.342719
v 0.613756 0.013886 0.316381
v 0.647464 0.026596 0.310014
v 0.513070 -0.106448 0.669802
v 0.627366 -0.084697 0.661158
v 0.420155 -0.161214 0.866570
v 0.599588 -0.159882 0.866087
v 0.427950 0.020112 0.832474
v 0.635026 0.014395 0.895655
v 0.664237 0.025771 0.662973
v 0.510545 -0.032583 0.671620
v 0.533063 -0.023062 0.797398
v 0.531028 -0.098365 0.788260
v 0.503818 -0.030573 0.793226
v 0.502250 -0.088528 0.786196
v 0.483539 -0.029525 0.879910
v 0.481386 -0.109179 0.870246
v 0.488266 -0.022562 0.912878
v 0.517255 -0.054589 0.932717
v 0.518434 -0.011002 0.938005
v 0.577789 -0.033302 0.890040
v 0.575636 -0.112956 0.880377
v 0.561840 -0.032899 0.799462
v 0.560272 -0.090853 0.792432
v 0.520934 -0.122698 0.873084
v 0.523732 -0.019202 0.885642
v 0.514869 -0.142879 0.922003
v 0.485521 -0.124059 0.900564
v 0.527503 0.039579 0.942177
v 0.508856 0.022644 0.929385
v 0.516897 0.024236 0.962589
v 0.502156 0.013437 0.948964
v 0.553909 -0.099070 0.931567
v 0.553094 -0.129204 0.927911
v 0.504291 -0.144996 0.941813
v 0.524711 -0.134239 0.975734
v 0.507857 -0.013120 0.957814
v 0.555839 -0.027708 0.940226
v 0.527454 -0.032742 0.988046
v 0.468524 -0.147353 0.984529
v 0.472934 -0.153843 0.964620
v 0.526776 -0.057878 0.984997
v 0.482953 -0.051608 0.980086
v 0.483808 -0.019934 0.983929
v 0.488685 -0.009118 0.966118
v 0.549105 0.020588 0.927180
v 0.543849 -0.012745 0.946317
v 0.522006 0.016365 0.920310
v 0.520346 0.000563 0.945637
v 0.474347 -0.102873 0.981872
v 0.525601 -0.101311 0.979728
v 0.475311 -0.067195 0.986202
v 0.526566 -0.065634 0.984056
v 0.525391 -0.109066 0.978786
v 0.469381 -0.115644 0.988378
v 0.474024 -0.113480 0.969518
v 0.555056 -0.056641 0.936715
v 0.479952 -0.065145 0.967326
v 0.478996 -0.100510 0.963035
v 0.487594 -0.049471 0.961222
v 0.506772 -0.053286 0.952940
v 0.505567 -0.097881 0.947529
v 0.506587 -0.060128 0.952111
v 0.516046 -0.099317 0.927289
v 0.505373 -0.104987 0.946667
vt 0.031507 0.837963
vt 0.031507 0.837963
vt 0.031507 0.837963
vt 0.031507 0.837963
vt 0.031507 0.837963
vt 0.031507 0.837963
vt 0.031507 0.837963
vt 0.031507 0.837963
vt 0.031507 0.837963
vt 0.031507 0.837963
vt 0.031507 0.837963
vt 0.031507 0.837963
vt 0.031507 0.837963
vt 0.031507 0.837963
vt 0.031507 0.837963
vt 0.031507 0.837963
vt 0.031507 0.837963
vt 0.031507 0.837963
vt 0.031507 0.837963
vt 0.031507 0.837963
vt 0.031507 0.837963
vt 0.031507 0.837963
vt 0.031507 0.837963
vt 0.031507 0.837963
vt 0.031507 0.837963
vt 0.031507 0.837963
vt 0.031507 0.837963
vt 0.031507 0.837963
vt 0.031507 0.837963
vt 0.031507 0.837963
vt 0.031507 0.837963
vt 0.031507 0.837963
vt 0.031507 0.837963
vt 0.031507 0.837963
vt 0.031507 0.837963
vt 0.031507 0.837963
vt 0.031507 0.837963
vt 0.031507 0.837963
vt 0.031507 0.837963
vt 0.031507 0.837963
vt 0.031507 0.837963
vt 0.031507 0.837963
vt 0.031507 0.837963
vt 0.031507 0.837963
vt 0.031507 0.837963
vt 0.031507 0.837963
vt 0.093472 0.030099
vt 0.093472 0.030099
vt 0.093472 0.030099
vt 0.093472 0.030099
vt 0.093472 0.030099
vt 0.093472 0.030099
vt 0.093472 0.030099
vt 0.093472 0.030099
vt 0.093472 0.030099
vt 0.093472 0.030099
vt 0.969726 0.904896
vt 0.969726 0.904896
vt 0.969726 0.904896
vt 0.969726 0.904896
vt 0.969726 0.904896
vt 0.969726 0.904896
vt 0.969726 0.904896
vt 0.969726 0.904896
vt 0.969726 0.904896
vt 0.969726 0.904896
vt 0.969726 0.904896
vt 0.969726 0.904896
vt 0.035562 0.971657
vt 0.035562 0.971657
vt 0.035562 0.971657
vt 0.035562 0.971657
vt 0.035562 0.971657
vt 0.035562 0.971657
vt 0.035562 0.971657
vt 0.035562 0.971657
vt 0.035562 0.971657
vt 0.035562 0.971657
vt 0.035562 0.971656
vt 0.035562 0.971657
vt 0.035562 0.971657
vt 0.035562 0.971656
vt 0.035562 0.971657
vt 0.035562 0.971656
vt 0.035562 0.971656
vt 0.035562 0.971657
vt 0.035562 0.971657
vt 0.035562 0.971657
vt 0.035562 0.971657
vt 0.035562 0.971657
vt 0.035562 0.971657
vt 0.035562 0.971657
vt 0.035562 0.971657
vt 0.035562 0.971657
vt 0.035562 0.971657
vt 0.035562 0.971657
vt 0.035562 0.971657
vt 0.035562 0.971657
vt 0.035562 0.971657
vt 0.035562 0.971657
vt 0.035562 0.971657
vt 0.035562 0.971657
vt 0.035562 0.971657
vt 0.035562 0.971657
vt 0.035562 0.971657
vt 0.035562 0.971657
vt 0.035562 0.971657
vt 0.035562 0.971657
vt 0.035562 0.971657
vt 0.035562 0.971657
vt 0.035562 0.971657
vt 0.035562 0.971657
vt 0.035562 0.971657
vt 0.035562 0.971657
vt 0.035562 0.971657
vt 0.035562 0.971657
vt 0.035562 0.971657
vt 0.035562 0.971657
vt 0.035562 0.971657
vt 0.035562 0.971657
vt 0.035562 0.971657
vt 0.035562 0.971657
vn 0.8771 -0.0921 -0.4714
vn -0.3575 0.6617 -0.6591
vn 0.6217 -0.6017 -0.5014
vn -0.2546 0.7327 -0.6311
vn 0.2829 -0.8096 -0.5143
vn -0.1926 0.7282 -0.6577
vn -0.1335 -0.8328 -0.5372
vn 0.1212 0.7318 -0.6706
vn -0.6273 -0.5547 -0.5466
vn 0.5690 0.4864 -0.6631
vn -0.8319 -0.1155 -0.5428
vn 0.7561 0.1105 -0.6451
vn -0.8069 0.3183 -0.4975
vn 0.7563 -0.2416 -0.6079
vn -0.5283 0.7425 -0.4118
vn 0.5458 -0.6227 -0.5607
vn -0.1629 0.9246 -0.3444
vn 0.4101 -0.7677 -0.4924
vn 0.1482 0.9357 -0.3202
vn 0.2997 -0.8424 -0.4478
vn 0.8771 -0.0921 0.4714
vn 0.6217 -0.6017 0.5013
vn 0.2829 -0.8096 0.5143
vn -0.1335 -0.8328 0.5372
vn -0.6273 -0.5547 0.5466
vn -0.8319 -0.1155 0.5428
vn -0.8069 0.3183 0.4975
vn -0.5283 0.7425 0.4118
vn -0.1629 0.9246 0.3444
vn 0.1482 0.9357 0.3202
vn 0.2997 -0.8424 0.4478
vn 0.4101 -0.7677 0.4924
vn 0.5458 -0.6227 0.5607
vn 0.7563 -0.2416 0.6079
vn 0.7561 0.1105 0.6451
vn 0.5690 0.4864 0.6631
vn 0.1212 0.7319 0.6706
vn -0.1926 0.7282 0.6577
vn -0.2546 0.7327 0.6311
vn -0.3575 0.6617 0.6591
vn 0.0000 1.0000 0.0000
vn 0.0000 -0.0123 -0.9999
vn 0.0000 -1.0000 0.0000
vn 0.0000 -0.0123 0.9999
vn 0.9999 -0.0123 0.0000
vn -0.9999 -0.0123 0.0000
vn -0.7071 -0.0000 -0.7071
vn 0.7071 0.0000 0.7071
vn 0.7071 0.0000 -0.7071
vn -0.7071 -0.0000 0.7071
vn 0.6334 0.4446 0.6334
vn 0.6334 0.4446 -0.6334
vn -0.6334 0.4446 -0.6334
vn -0.6334 0.4446 0.6334
vn -0.6440 -0.4130 -0.6440
vn 0.6440 -0.4130 -0.6440
vn 0.6440 -0.4130 0.6440
vn -0.6440 -0.4130 0.6440
vn -0.3886 0.8238 -0.4128
vn 0.1698 -0.9672 -0.1890
vn 0.0848 -0.9596 -0.2682
vn 0.0504 -0.9516 -0.3031
vn 0.0060 -0.9391 -0.3437
vn 0.0013 0.1847 0.9828
vn -0.1636 0.0281 0.9861
vn -0.1474 0.0440 0.9881
vn -0.2929 -0.1017 0.9507
vn 0.0122 0.9987 0.0504
vn -0.1433 0.9766 -0.1604
vn -0.1162 0.9849 -0.1282
vn -0.3396 0.8283 -0.4457
vn 0.9430 -0.3164 0.1029
vn 0.9544 -0.2904 0.0697
vn 0.9313 -0.3440 0.1193
vn 0.9765 -0.2081 0.0560
vn -0.8920 -0.0194 -0.4517
vn -0.8953 -0.0309 -0.4444
vn -0.8973 -0.0382 -0.4398
vn -0.8987 -0.0434 -0.4365
vn 0.3056 -0.9245 -0.2277
vn 0.2907 -0.9275 -0.2351
vn 0.1714 -0.9427 -0.2864
vn 0.1577 -0.9439 -0.2901
vn 0.9945 0.0939 -0.0470
vn 0.9518 -0.3032 -0.0459
vn 0.9961 -0.0740 -0.0475
vn 0.9478 -0.3156 -0.0458
vn -0.3508 0.9340 0.0686
vn -0.3470 0.9351 0.0719
vn -0.3507 0.9340 0.0687
vn -0.3396 0.9377 0.0741
vn -0.9591 -0.0258 -0.2820
vn -0.9599 -0.0097 -0.2802
vn -0.9215 0.3156 -0.2265
vn -0.8893 0.4089 -0.2049
vn 0.1108 0.1168 -0.9870
vn 0.1107 0.1167 -0.9870
vn -0.9721 0.0540 -0.2281
vn -0.9722 0.0539 -0.2281
vn -0.6202 -0.0779 0.7805
vn 0.9848 -0.0056 -0.1734
vn 0.9848 -0.0056 -0.1735
vn -0.2899 -0.9102 -0.2956
vn -0.2391 0.9686 -0.0677
vn 0.2038 -0.9405 -0.2720
vn 0.2127 -0.9398 -0.2674
vn 0.2398 -0.9372 -0.2531
vn 0.2731 -0.9328 -0.2351
vn 0.2553 0.9660 -0.0407
vn 0.2910 0.9564 -0.0233
vn 0.2641 0.9638 -0.0364
vn 0.3239 0.9461 -0.0071
vn -0.2733 -0.8768 -0.3956
vn -0.2727 -0.8774 -0.3948
vn -0.2726 -0.8774 -0.3948
vn -0.2719 -0.8780 -0.3939
vn -0.9901 0.0098 0.1399
vn -0.2236 0.9592 -0.1728
vn -0.2229 0.9596 -0.1719
vn -0.2230 0.9595 -0.1720
vn -0.2222 0.9599 -0.1709
vn -0.7168 0.6829 0.1409
vn -0.6968 0.7045 0.1350
vn -0.6973 0.7040 0.1351
vn -0.6584 0.7424 0.1238
vn 0.9106 -0.0739 0.4066
vn 0.9106 -0.0740 0.4066
vn 0.2003 -0.9522 -0.2305
vn 0.2714 -0.9242 -0.2689
vn 0.2590 -0.9296 -0.2622
vn 0.3625 -0.8765 -0.3167
vn 0.3259 -0.9426 0.0733
vn 0.3305 -0.9392 0.0935
vn 0.3304 -0.9393 0.0927
vn 0.3315 -0.9383 0.0980
vn 0.3751 0.8790 0.2943
vn 0.3793 0.8710 0.3123
vn 0.3794 0.8707 0.3130
vn 0.3804 0.8687 0.3172
vn 0.2474 -0.9565 0.1544
vn 0.2979 -0.9339 0.1979
vn 0.2650 -0.9492 0.1695
vn 0.4897 -0.7912 0.3664
vn -0.1270 -0.1161 0.9851
vn 0.2169 0.8771 0.4286
vn 0.2379 0.8636 0.4444
vn 0.2419 0.8610 0.4474
vn 0.3930 0.7343 0.5535
vn 0.9016 0.2254 0.3692
vn 0.8860 0.2320 0.4015
vn 0.8827 0.2333 0.4080
vn 0.6871 0.2772 0.6716
vn 0.2250 0.6313 -0.7422
vn 0.2064 0.6406 -0.7397
vn 0.1808 0.6527 -0.7357
vn 0.0719 0.6980 -0.7125
vn -0.9922 0.0587 -0.1096
vn -0.9937 0.0771 -0.0814
vn -0.9929 0.0656 -0.0990
vn -0.9889 0.1461 0.0263
vn -0.2931 -0.5525 0.7803
vn -0.2945 -0.5424 0.7868
vn -0.2989 -0.5086 0.8074
vn -0.3011 -0.4900 0.8180
vn 0.7288 0.2508 0.6371
vn 0.7265 0.2663 0.6334
vn 0.7254 0.2738 0.6316
vn 0.7157 0.3266 0.6173
vn 0.0814 0.6731 -0.7350
vn -0.0017 0.6859 -0.7277
vn 0.0195 0.6831 -0.7301
vn -0.1514 0.6965 -0.7014
vn -0.6171 -0.6488 -0.4453
vn -0.5826 -0.6561 -0.4796
vn -0.5945 -0.6538 -0.4681
vn -0.5590 -0.6601 -0.5017
vn -0.3490 -0.5787 0.7371
vn -0.3084 -0.5831 0.7516
vn -0.3318 -0.5807 0.7434
vn -0.2753 -0.5859 0.7622
vn 0.0452 -0.1216 0.9916
vn 0.0452 -0.1215 0.9916
vn 0.1816 -0.1232 0.9756
vn 0.1815 -0.1233 0.9756
vn 0.1815 -0.1232 0.9756
vn -0.9710 0.0545 -0.2328
vn 0.8607 -0.0842 0.5020
vn 0.8608 -0.0841 0.5020
vn 0.8608 -0.0842 0.5020
vn 0.8607 -0.0841 0.5020
vn 0.8607 -0.0841 0.5021
vn -0.9710 0.0545 -0.2327
vn -0.9710 0.0544 -0.2327
vn -0.3730 0.1217 -0.9198
vn -0.8828 0.0800 -0.4628
vn -0.5092 0.1172 -0.8526
vn -0.5092 0.1172 -0.8527
vn -0.8829 0.0800 -0.4628
vn -0.8828 0.0800 -0.4629
vn -0.6050 0.1120 -0.7883
vn -0.6202 -0.0780 0.7806
vn 0.9106 -0.0740 0.4065
vn -0.1193 0.9729 0.1979
vn -0.1090 0.9848 0.1349
vn -0.1155 0.9779 0.1745
vn -0.1012 0.9909 0.0888
vn -0.0494 -0.9959 -0.0754
vn -0.0398 -0.9981 -0.0463
vn -0.0396 -0.9982 -0.0456
vn -0.0014 -0.9975 0.0700
vn -0.0359 0.9643 0.2624
vn -0.0616 0.9806 0.1861
vn -0.0615 0.9805 0.1866
vn -0.0679 0.9836 0.1672
vn 0.0252 -0.9923 -0.1214
vn 0.0259 -0.9923 -0.1207
vn 0.0254 -0.9923 -0.1212
vn 0.0298 -0.9927 -0.1172
vn -0.0223 0.9828 0.1833
vn -0.0293 0.9838 0.1770
vn -0.0394 0.9850 0.1681
vn -0.1450 0.9868 0.0715
vn -0.0964 -0.9920 -0.0819
vn -0.0889 -0.9943 -0.0589
vn -0.0887 -0.9943 -0.0584
vn -0.0578 -0.9977 0.0343
vn -0.1351 -0.9892 -0.0574
vn -0.1506 -0.9860 -0.0712
vn -0.1461 -0.9870 -0.0672
vn -0.2632 -0.9492 -0.1723
vn 0.0218 0.9581 0.2856
vn -0.0070 0.9798 0.1999
vn -0.0068 0.9797 0.2005
vn -0.0141 0.9839 0.1784
usemtl lambert2
s 1
f 1/1/1 2/2/1 3/3/1
f 2/2/2 1/1/2 4/4/2
f 5/5/3 1/1/3 3/3/3 6/6/3
f 1/1/4 5/5/4 7/7/4 4/4/4
f 8/8/5 5/5/5 6/6/5 9/9/5
f 5/5/6 8/8/6 10/10/6 7/7/6
f 11/11/7 8/8/7 9/9/7 12/12/7
f 8/8/8 11/11/8 13/13/8 10/10/8
f 14/14/9 11/11/9 12/12/9 15/15/9
f 11/11/10 14/14/10 16/16/10 13/13/10
f 17/17/11 14/14/11 15/15/11 18/18/11
f 14/14/12 17/17/12 19/19/12 16/16/12
f 20/20/13 17/17/13 18/18/13 21/21/13
f 17/17/14 20/20/14 22/22/14 19/19/14
f 23/23/15 20/20/15 21/21/15 24/24/15
f 20/20/16 23/23/16 25/25/16 22/22/16
f 26/26/17 23/23/17 24/24/17 27/27/17
f 23/23/18 26/26/18 28/28/18 25/25/18
f 29/29/19 26/26/19 27/27/19
f 26/26/20 29/29/20 28/28/20
f 3/3/21 2/2/21 30/30/21
f 6/6/22 3/3/22 30/30/22 31/31/22
f 9/9/23 6/6/23 31/31/23 32/32/23
f 12/12/24 9/9/24 32/32/24 33/33/24
f 15/15/25 12/12/25 33/33/25 34/34/25
f 18/18/26 15/15/26 34/34/26 35/35/26
f 21/21/27 18/18/27 35/35/27 36/36/27
f 24/24/28 21/21/28 36/36/28 37/37/28
f 27/27/29 24/24/29 37/37/29 38/38/29
f 29/29/30 27/27/30 38/38/30
f 28/28/31 29/29/31 38/38/31
f 25/25/32 28/28/32 38/38/32 37/37/32
f 22/22/33 25/25/33 37/37/33 36/36/33
f 19/19/34 22/22/34 36/36/34 35/35/34
f 16/16/35 19/19/35 35/35/35 34/34/35
f 13/13/36 16/16/36 34/34/36 33/33/36
f 10/10/37 13/13/37 33/33/37 32/32/37
f 7/7/38 10/10/38 32/32/38 31/31/38
f 4/4/39 7/7/39 31/31/39 30/30/39
f 2/2/40 4/4/40 30/30/40
f 39/39/41 40/40/41 41/41/41 42/42/41
f 42/42/42 41/41/42 43/43/42 44/44/42
f 44/44/43 43/43/43 45/45/43 46/46/43
f 46/46/44 45/45/44 40/40/44 39/39/44
f 40/40/45 45/45/45 43/43/45 41/41/45
f 46/46/46 39/39/46 42/42/46 44/44/46
f 47/47/47 48/48/47 49/49/47 50/50/47
f 51/51/48 52/52/48 53/53/48 54/54/48
f 53/53/49 52/52/49 49/49/49 48/48/49
f 51/51/50 54/54/50 47/47/50 50/50/50
f 54/54/51 53/53/51 55/55/51
f 53/53/52 48/48/52 55/55/52
f 48/48/53 47/47/53 55/55/53
f 47/47/54 54/54/54 55/55/54
f 50/50/55 49/49/55 56/56/55
f 49/49/56 52/52/56 56/56/56
f 52/52/57 51/51/57 56/56/57
f 51/51/58 50/50/58 56/56/58
f 57/57/59 58/58/59 59/59/59
f 59/59/59 58/58/59 60/60/59
f 61/61/60 62/62/61 63/63/62
f 63/63/62 62/62/61 64/64/63
f 63/63/64 64/64/65 65/65/66
f 65/65/66 64/64/65 66/66/67
f 66/66/68 67/67/69 65/65/70
f 65/65/70 67/67/69 68/68/71
f 67/67/72 66/66/73 62/62/74
f 62/62/74 66/66/73 64/64/75
f 68/68/76 61/61/77 65/65/78
f 65/65/78 61/61/77 63/63/79
f 59/59/80 60/60/81 61/61/82
f 61/61/82 60/60/81 62/62/83
f 58/58/84 67/67/85 60/60/86
f 60/60/86 67/67/85 62/62/87
f 67/67/88 58/58/89 68/68/90
f 68/68/90 58/58/89 57/57/91
f 61/61/92 68/68/93 59/59/94
f 59/59/94 68/68/93 57/57/95
f 69/69/96 70/70/96 71/71/96
f 71/71/96 70/70/96 72/72/97
f 71/71/98 72/72/98 73/73/98
f 73/73/98 72/72/98 74/74/99
f 75/75/100 76/76/100 77/77/100
f 78/78/101 79/79/101 80/80/101
f 80/80/101 79/79/101 81/81/102
f 70/70/103 82/82/103 72/72/103
f 72/72/103 82/82/103 74/74/103
f 69/69/104 71/71/104 83/83/104
f 83/83/104 71/71/104 73/73/104
f 80/80/97 81/81/96 69/69/96
f 69/69/96 81/81/96 70/70/96
f 79/79/105 82/82/106 81/81/107
f 81/81/107 82/82/106 70/70/108
f 78/78/109 80/80/110 83/83/111
f 83/83/111 80/80/110 69/69/112
f 84/84/113 85/85/114 82/82/115
f 82/82/115 85/85/114 74/74/116
f 73/73/117 74/74/117 75/75/117
f 75/75/117 74/74/117 85/85/117
f 77/77/118 83/83/119 75/75/120
f 75/75/120 83/83/119 73/73/121
f 86/86/122 87/87/123 88/88/124
f 88/88/124 87/87/123 89/89/125
f 79/79/126 90/90/126 91/91/127
f 79/79/128 91/91/129 82/82/130
f 82/82/130 91/91/129 84/84/131
f 84/84/132 91/91/133 92/92/134
f 92/92/134 91/91/133 93/93/135
f 77/77/136 94/94/137 95/95/138
f 95/95/138 94/94/137 96/96/139
f 93/93/140 97/97/141 92/92/142
f 92/92/142 97/97/141 98/98/143
f 99/99/144 96/96/144 100/100/144
f 100/100/144 96/96/144 101/101/144
f 96/96/145 94/94/146 101/101/147
f 101/101/147 94/94/146 102/102/148
f 78/78/149 103/103/150 95/95/151
f 95/95/151 103/103/150 104/104/152
f 78/78/153 83/83/154 103/103/155
f 103/103/155 83/83/154 105/105/156
f 83/83/157 77/77/158 105/105/159
f 105/105/159 77/77/158 106/106/160
f 95/95/161 104/104/162 77/77/163
f 77/77/163 104/104/162 106/106/164
f 104/104/165 103/103/166 88/88/167
f 88/88/167 103/103/166 86/86/168
f 103/103/169 105/105/170 86/86/171
f 86/86/171 105/105/170 87/87/172
f 105/105/173 106/106/174 87/87/175
f 87/87/175 106/106/174 89/89/176
f 104/104/177 88/88/178 106/106/179
f 106/106/179 88/88/178 89/89/180
f 107/107/181 108/108/182 109/109/182
f 109/109/182 108/108/182 110/110/182
f 111/111/183 112/112/184 93/93/185
f 93/93/185 112/112/184 97/97/184
f 112/112/186 113/113/186 97/97/186
f 97/97/186 113/113/186 98/98/186
f 90/90/187 111/111/188 91/91/187
f 91/91/187 111/111/188 93/93/188
f 108/108/189 90/90/189 110/110/189
f 110/110/189 90/90/189 114/114/189
f 114/114/189 95/95/187 99/99/190
f 99/99/190 95/95/187 96/96/191
f 115/115/186 116/116/186 109/109/186
f 109/109/186 116/116/186 107/107/186
f 102/102/186 117/117/192 101/101/186
f 101/101/186 117/117/192 100/100/193
f 118/118/194 117/117/194 94/94/194
f 94/94/194 117/117/194 102/102/194
f 76/76/195 118/118/195 77/77/195
f 77/77/195 118/118/195 94/94/195
f 116/116/196 115/115/196 119/119/196
f 119/119/196 115/115/196 120/120/197
f 121/121/198 119/119/198 76/76/198
f 76/76/198 119/119/198 120/120/198
f 92/92/199 122/122/195 84/84/195
f 84/84/195 122/122/195 121/121/195
f 98/98/200 113/113/200 92/92/200
f 92/92/200 113/113/200 122/122/200
f 75/75/100 85/85/201 76/76/100
f 76/76/100 85/85/201 121/121/201
f 121/121/201 85/85/201 84/84/201
f 114/114/202 90/90/126 78/78/202
f 78/78/202 90/90/126 79/79/126
f 95/95/202 114/114/202 78/78/202
f 122/122/203 113/113/204 111/111/205
f 111/111/205 113/113/204 112/112/206
f 108/108/207 119/119/208 90/90/209
f 90/90/209 119/119/208 121/121/210
f 121/121/211 122/122/212 90/90/213
f 90/90/213 122/122/212 111/111/214
f 108/108/215 107/107/216 119/119/217
f 119/119/217 107/107/216 116/116/218
f 110/110/219 120/120/220 109/109/221
f 109/109/221 120/120/220 115/115/222
f 99/99/223 118/118/224 114/114/225
f 114/114/225 118/118/224 76/76/226
f 99/99/227 100/100/228 118/118/229
f 118/118/229 100/100/228 117/117/230
f 76/76/231 120/120/232 114/114/233
f 114/114/233 120/120/232 110/110/234
