# Blender v2.79 (sub 0) OBJ File: 'WarlockArm.blend'
# www.blender.org
mtllib WarlockArm.mtl
o Wizard_in_Blue_medievalfantasyassets_Untitled
v -0.655716 0.577753 -0.794756
v -0.678865 0.624138 -0.828768
v -0.672700 0.565413 -0.828768
v -0.627958 0.596637 -0.828768
v -0.608165 0.543487 -0.775052
v -0.626094 0.518808 -0.828768
v -0.583312 0.581888 -0.828768
v -0.529131 0.519043 -0.775052
v -0.534819 0.483731 -0.828768
v -0.521825 0.569175 -0.828768
v -0.425006 0.535991 -0.775052
v -0.407810 0.503847 -0.828768
v -0.447043 0.581860 -0.828768
v -0.350029 0.622115 -0.775052
v -0.316881 0.605327 -0.828768
v -0.392707 0.647004 -0.828768
v -0.332148 0.747774 -0.775052
v -0.296766 0.753212 -0.828768
v -0.378307 0.742216 -0.828768
v -0.375904 0.869860 -0.775052
v -0.355143 0.890017 -0.828768
v -0.405123 0.841055 -0.828768
v -0.443678 0.923220 -0.775052
v -0.437173 0.943242 -0.828768
v -0.454391 0.890295 -0.828768
v -0.502272 0.940443 -0.790465
v -0.502272 0.953553 -0.828768
v -0.502338 0.920104 -0.828768
v -0.567369 0.943242 -0.828768
v -0.655716 0.577752 -0.862781
v -0.608165 0.543487 -0.882486
v -0.529131 0.519043 -0.882486
v -0.425006 0.535991 -0.882486
v -0.350029 0.622115 -0.882486
v -0.332148 0.747774 -0.882486
v -0.375904 0.869860 -0.882486
v -0.443678 0.923220 -0.882486
v -0.502272 0.940443 -0.867072
v -0.445309 0.528044 -0.862753
v -0.513161 0.528044 -0.862753
v -0.513161 0.528044 -0.794901
v -0.445309 0.528044 -0.794901
v -0.496405 -0.836622 -0.811657
v -0.462066 -0.836622 -0.811657
v -0.496405 -0.836622 -0.845995
v -0.462066 -0.836622 -0.845995
v -0.469330 0.761247 -0.828768
v -0.517693 0.761247 -0.780404
v -0.517695 0.713126 -0.780404
v -0.469331 0.713126 -0.828768
v -0.517695 0.713126 -0.877132
v -0.566059 0.713126 -0.828768
v -0.566057 0.761247 -0.828768
v -0.517693 0.761247 -0.877132
v -0.517693 0.830153 -0.828768
v -0.517693 0.637720 -0.828768
v -0.579836 0.150644 -0.224201
v -0.641022 0.155105 -0.210740
v -0.617476 0.022566 -0.205394
v -0.650968 0.034487 -0.199896
v -0.513070 -0.106448 -0.569802
v -0.627366 -0.084697 -0.561158
v -0.420155 -0.161214 -0.766570
v -0.599588 -0.159882 -0.766087
v -0.427950 0.020112 -0.732474
v -0.635026 0.014395 -0.795655
v -0.664237 0.025771 -0.562973
v -0.525772 -0.014969 -0.571620
v -0.533063 -0.023062 -0.697398
v -0.531028 -0.098365 -0.688260
v -0.503818 -0.030573 -0.693226
v -0.502250 -0.088528 -0.686196
v -0.483539 -0.029525 -0.779910
v -0.481386 -0.109179 -0.770246
v -0.488266 -0.022562 -0.812878
v -0.517255 -0.054589 -0.832717
v -0.518434 -0.011002 -0.838005
v -0.577789 -0.033302 -0.790040
v -0.575636 -0.112956 -0.780377
v -0.561840 -0.032899 -0.699462
v -0.560272 -0.090853 -0.692432
v -0.520934 -0.122698 -0.773084
v -0.523732 -0.019202 -0.785642
v -0.514869 -0.142879 -0.822003
v -0.485521 -0.124059 -0.800564
v -0.527503 0.039579 -0.842177
v -0.508856 0.022644 -0.829385
v -0.516897 0.024236 -0.862589
v -0.502156 0.013437 -0.848964
v -0.553909 -0.099070 -0.831567
v -0.553094 -0.129204 -0.827911
v -0.504291 -0.144996 -0.841813
v -0.524711 -0.134239 -0.875734
v -0.507857 -0.013120 -0.857814
v -0.555839 -0.027708 -0.840226
v -0.527454 -0.032742 -0.888046
v -0.468524 -0.147353 -0.884529
v -0.472934 -0.153843 -0.864620
v -0.526776 -0.057878 -0.884997
v -0.482953 -0.051608 -0.880086
v -0.483808 -0.019934 -0.883929
v -0.488685 -0.009118 -0.866118
v -0.549105 0.020588 -0.827180
v -0.543849 -0.012745 -0.846317
v -0.522006 0.016365 -0.820310
v -0.520346 0.000563 -0.845637
v -0.474347 -0.102873 -0.881872
v -0.525601 -0.101311 -0.879728
v -0.475311 -0.067195 -0.886202
v -0.526566 -0.065634 -0.884056
v -0.525391 -0.109066 -0.878786
v -0.469381 -0.115644 -0.888378
v -0.474024 -0.113480 -0.869518
v -0.555056 -0.056641 -0.836715
v -0.479952 -0.065145 -0.867326
v -0.478996 -0.100510 -0.863035
v -0.487594 -0.049471 -0.861222
v -0.506772 -0.053286 -0.852940
v -0.505567 -0.097881 -0.847529
v -0.506587 -0.060128 -0.852111
v -0.516046 -0.099317 -0.827289
v -0.505373 -0.104987 -0.846667
v -0.460727 0.406003 0.348048
v -0.498368 0.277925 0.366855
v -0.521913 0.410464 0.361509
v -0.531860 0.289846 0.372352
vt 0.031507 0.837963
vt 0.031507 0.837963
vt 0.031507 0.837963
vt 0.031507 0.837963
vt 0.031507 0.837963
vt 0.031507 0.837963
vt 0.031507 0.837963
vt 0.031507 0.837963
vt 0.031507 0.837963
vt 0.031507 0.837963
vt 0.031507 0.837963
vt 0.031507 0.837963
vt 0.031507 0.837963
vt 0.031507 0.837963
vt 0.031507 0.837963
vt 0.031507 0.837963
vt 0.031507 0.837963
vt 0.031507 0.837963
vt 0.031507 0.837963
vt 0.031507 0.837963
vt 0.031507 0.837963
vt 0.031507 0.837963
vt 0.031507 0.837963
vt 0.031507 0.837963
vt 0.031507 0.837963
vt 0.031507 0.837963
vt 0.031507 0.837963
vt 0.031507 0.837963
vt 0.031507 0.837963
vt 0.031507 0.837963
vt 0.031507 0.837963
vt 0.031507 0.837963
vt 0.031507 0.837963
vt 0.031507 0.837963
vt 0.031507 0.837963
vt 0.031507 0.837963
vt 0.031507 0.837963
vt 0.031507 0.837963
vt 0.031507 0.837963
vt 0.031507 0.837963
vt 0.031507 0.837963
vt 0.031507 0.837963
vt 0.031507 0.837963
vt 0.031507 0.837963
vt 0.031507 0.837963
vt 0.031507 0.837963
vt 0.093472 0.030099
vt 0.093472 0.030099
vt 0.093472 0.030099
vt 0.093472 0.030099
vt 0.093472 0.030099
vt 0.093472 0.030099
vt 0.093472 0.030099
vt 0.093472 0.030099
vt 0.093472 0.030099
vt 0.093472 0.030099
vt 0.969726 0.904896
vt 0.969726 0.904896
vt 0.969726 0.904896
vt 0.969726 0.904896
vt 0.969726 0.904896
vt 0.969726 0.904896
vt 0.969726 0.904896
vt 0.969726 0.904896
vt 0.969726 0.904896
vt 0.969726 0.904896
vt 0.969726 0.904896
vt 0.969726 0.904896
vt 0.969726 0.904896
vt 0.969726 0.904896
vt 0.969726 0.904896
vt 0.035562 0.971657
vt 0.035562 0.971657
vt 0.035562 0.971657
vt 0.035562 0.971657
vt 0.035562 0.971657
vt 0.035562 0.971657
vt 0.035562 0.971657
vt 0.035562 0.971657
vt 0.035562 0.971657
vt 0.035562 0.971657
vt 0.035562 0.971656
vt 0.035562 0.971657
vt 0.035562 0.971657
vt 0.035562 0.971656
vt 0.035562 0.971657
vt 0.035562 0.971656
vt 0.035562 0.971656
vt 0.035562 0.971657
vt 0.035562 0.971657
vt 0.035562 0.971657
vt 0.035562 0.971657
vt 0.035562 0.971657
vt 0.035562 0.971657
vt 0.035562 0.971657
vt 0.035562 0.971657
vt 0.035562 0.971657
vt 0.035562 0.971657
vt 0.035562 0.971657
vt 0.035562 0.971657
vt 0.035562 0.971657
vt 0.035562 0.971657
vt 0.035562 0.971657
vt 0.035562 0.971657
vt 0.035562 0.971657
vt 0.035562 0.971657
vt 0.035562 0.971657
vt 0.035562 0.971657
vt 0.035562 0.971657
vt 0.035562 0.971657
vt 0.035562 0.971657
vt 0.035562 0.971657
vt 0.035562 0.971657
vt 0.035562 0.971657
vt 0.035562 0.971657
vt 0.035562 0.971657
vt 0.035562 0.971657
vt 0.035562 0.971657
vt 0.035562 0.971657
vt 0.035562 0.971657
vt 0.035562 0.971657
vt 0.035562 0.971657
vt 0.035562 0.971657
vt 0.035562 0.971657
vt 0.035562 0.971657
vt 0.969726 0.904896
vn -0.8771 -0.0921 0.4714
vn 0.3575 0.6617 0.6591
vn -0.6180 -0.6022 0.5054
vn -0.6229 -0.6016 0.5001
vn -0.6344 -0.6000 0.4874
vn 0.2555 0.7327 0.6308
vn 0.2541 0.7327 0.6313
vn 0.2685 0.7324 0.6257
vn -0.2901 -0.8117 0.5069
vn -0.2748 -0.8071 0.5226
vn -0.2467 -0.7976 0.5504
vn 0.1907 0.7276 0.6589
vn 0.1910 0.7277 0.6587
vn 0.2285 0.7389 0.6339
vn 0.1329 -0.8323 0.5381
vn 0.1343 -0.8334 0.5361
vn 0.1317 -0.8315 0.5397
vn -0.1216 0.7314 0.6710
vn -0.1211 0.7320 0.6704
vn -0.1195 0.7339 0.6687
vn 0.6276 -0.5580 0.5430
vn 0.6270 -0.5512 0.5506
vn 0.6264 -0.5453 0.5570
vn -0.5690 0.4839 0.6649
vn -0.5690 0.4880 0.6619
vn -0.5690 0.4953 0.6564
vn 0.8307 -0.1143 0.5448
vn 0.8331 -0.1169 0.5407
vn 0.8347 -0.1188 0.5378
vn -0.7570 0.1117 0.6438
vn -0.7554 0.1096 0.6460
vn -0.7536 0.1072 0.6485
vn 0.8145 0.3342 0.4743
vn 0.7987 0.3023 0.5202
vn 0.8218 0.3507 0.4492
vn -0.7493 -0.2282 0.6217
vn -0.7624 -0.2537 0.5953
vn -0.7330 -0.1989 0.6505
vn 0.5232 0.7546 0.3959
vn 0.5333 0.7297 0.4279
vn 0.5090 0.7845 0.3541
vn -0.5480 -0.6153 0.5667
vn -0.5444 -0.6275 0.5567
vn -0.5618 -0.5621 0.6070
vn 0.1596 0.9271 0.3390
vn 0.1643 0.9234 0.3468
vn 0.1482 0.9357 0.3203
vn -0.4109 -0.7668 0.4932
vn -0.4043 -0.7745 0.4865
vn -0.4476 -0.7199 0.5305
vn -0.1482 0.9357 0.3203
vn -0.2997 -0.8424 0.4478
vn -0.8771 -0.0921 -0.4714
vn -0.6229 -0.6016 -0.5001
vn -0.6180 -0.6022 -0.5054
vn -0.6344 -0.6000 -0.4874
vn -0.2748 -0.8071 -0.5226
vn -0.2901 -0.8117 -0.5069
vn -0.2467 -0.7976 -0.5504
vn 0.1343 -0.8334 -0.5361
vn 0.1329 -0.8323 -0.5381
vn 0.1317 -0.8315 -0.5397
vn 0.6270 -0.5512 -0.5506
vn 0.6276 -0.5580 -0.5430
vn 0.6264 -0.5453 -0.5570
vn 0.8331 -0.1169 -0.5407
vn 0.8308 -0.1143 -0.5448
vn 0.8347 -0.1188 -0.5378
vn 0.7987 0.3023 -0.5202
vn 0.8145 0.3342 -0.4742
vn 0.8218 0.3507 -0.4492
vn 0.5333 0.7297 -0.4279
vn 0.5232 0.7546 -0.3959
vn 0.5090 0.7845 -0.3541
vn 0.1643 0.9234 -0.3468
vn 0.1596 0.9271 -0.3390
vn 0.1482 0.9357 -0.3202
vn -0.1482 0.9357 -0.3202
vn -0.2997 -0.8424 -0.4478
vn -0.4043 -0.7745 -0.4865
vn -0.4109 -0.7668 -0.4931
vn -0.4476 -0.7199 -0.5305
vn -0.5444 -0.6275 -0.5567
vn -0.5480 -0.6153 -0.5667
vn -0.5618 -0.5621 -0.6070
vn -0.7624 -0.2537 -0.5953
vn -0.7493 -0.2282 -0.6217
vn -0.7330 -0.1989 -0.6505
vn -0.7554 0.1096 -0.6460
vn -0.7570 0.1117 -0.6438
vn -0.7537 0.1072 -0.6485
vn -0.5690 0.4880 -0.6619
vn -0.5690 0.4839 -0.6649
vn -0.5690 0.4954 -0.6564
vn -0.1211 0.7320 -0.6704
vn -0.1216 0.7314 -0.6710
vn -0.1195 0.7339 -0.6687
vn 0.1910 0.7277 -0.6587
vn 0.1907 0.7276 -0.6589
vn 0.2285 0.7389 -0.6339
vn 0.2541 0.7327 -0.6313
vn 0.2555 0.7327 -0.6308
vn 0.2685 0.7324 -0.6257
vn 0.3575 0.6617 -0.6591
vn 0.0000 1.0000 0.0000
vn 0.0000 -0.0123 0.9999
vn 0.0000 -1.0000 0.0000
vn 0.0000 -0.0123 -0.9999
vn -0.9999 -0.0123 0.0000
vn 0.9999 -0.0123 0.0000
vn 0.7071 -0.0000 0.7071
vn -0.7071 0.0000 -0.7071
vn -0.7071 0.0000 0.7071
vn 0.7071 -0.0000 -0.7071
vn -0.6334 0.4446 -0.6334
vn -0.6334 0.4446 0.6334
vn 0.6334 0.4446 0.6334
vn 0.6334 0.4446 -0.6334
vn 0.6440 -0.4130 0.6440
vn -0.6440 -0.4130 0.6440
vn -0.6440 -0.4130 -0.6440
vn 0.6440 -0.4130 -0.6440
vn -0.7509 0.6468 -0.1336
vn 0.6593 0.6260 -0.4166
vn 0.8408 0.4072 -0.3567
vn -0.6978 -0.5927 0.4022
vn 0.5586 -0.7945 0.2383
vn -0.8402 -0.4019 0.3640
vn -0.1698 -0.9672 0.1890
vn -0.0848 -0.9596 0.2682
vn -0.0504 -0.9516 0.3031
vn -0.0060 -0.9391 0.3437
vn -0.0013 0.1847 -0.9828
vn 0.1636 0.0281 -0.9861
vn 0.1474 0.0440 -0.9881
vn 0.2929 -0.1017 -0.9507
vn -0.0122 0.9987 -0.0504
vn 0.1105 0.9872 0.1148
vn 0.0775 0.9943 0.0733
vn 0.2836 0.8864 0.3658
vn -0.9430 -0.3164 -0.1029
vn -0.9544 -0.2904 -0.0697
vn -0.9314 -0.3440 -0.1193
vn -0.9765 -0.2081 -0.0560
vn 0.8350 0.1266 0.5354
vn 0.8686 0.0495 0.4930
vn 0.8853 0.0023 0.4650
vn 0.8987 -0.0434 0.4365
vn -0.2892 -0.9254 0.2448
vn -0.2790 -0.9273 0.2497
vn -0.1688 -0.9398 0.2970
vn -0.1564 -0.9410 0.3002
vn -0.9958 0.0852 0.0343
vn -0.9676 -0.2491 0.0413
vn -0.9992 0.0170 0.0361
vn -0.9479 -0.3157 0.0422
vn 0.2445 0.9049 -0.3484
vn 0.0429 0.9086 -0.4156
vn 0.2154 0.9080 -0.3593
vn -0.0298 0.9005 -0.4339
vn 0.9640 0.1384 0.2272
vn 0.9691 0.0742 0.2351
vn 0.9481 -0.1875 0.2566
vn 0.9364 -0.2372 0.2588
vn -0.1108 0.1168 0.9870
vn -0.1107 0.1167 0.9870
vn 0.9721 0.0540 0.2281
vn 0.9722 0.0539 0.2281
vn 0.6202 -0.0779 -0.7805
vn -0.9848 -0.0056 0.1734
vn -0.9848 -0.0056 0.1735
vn 0.2899 -0.9102 0.2956
vn 0.2391 0.9686 0.0677
vn -0.2038 -0.9405 0.2720
vn -0.2127 -0.9398 0.2674
vn -0.2398 -0.9372 0.2531
vn -0.2732 -0.9328 0.2351
vn -0.2553 0.9660 0.0407
vn -0.2910 0.9564 0.0233
vn -0.2641 0.9638 0.0364
vn -0.3239 0.9461 0.0071
vn 0.2733 -0.8768 0.3956
vn 0.2727 -0.8774 0.3948
vn 0.2726 -0.8774 0.3948
vn 0.2719 -0.8780 0.3939
vn 0.9901 0.0098 -0.1399
vn 0.2236 0.9592 0.1728
vn 0.2229 0.9596 0.1719
vn 0.2230 0.9595 0.1720
vn 0.2222 0.9599 0.1709
vn 0.7168 0.6829 -0.1408
vn 0.6968 0.7045 -0.1350
vn 0.6973 0.7040 -0.1351
vn 0.6584 0.7424 -0.1238
vn -0.9106 -0.0739 -0.4066
vn -0.9106 -0.0740 -0.4066
vn -0.2003 -0.9522 0.2305
vn -0.2714 -0.9242 0.2689
vn -0.2590 -0.9296 0.2622
vn -0.3625 -0.8765 0.3167
vn -0.3259 -0.9426 -0.0733
vn -0.3305 -0.9392 -0.0935
vn -0.3304 -0.9393 -0.0927
vn -0.3315 -0.9383 -0.0980
vn -0.3751 0.8790 -0.2943
vn -0.3793 0.8710 -0.3123
vn -0.3794 0.8707 -0.3130
vn -0.3804 0.8687 -0.3172
vn -0.2474 -0.9565 -0.1544
vn -0.2979 -0.9339 -0.1979
vn -0.2650 -0.9492 -0.1695
vn -0.4897 -0.7912 -0.3664
vn 0.1270 -0.1161 -0.9851
vn -0.2169 0.8771 -0.4286
vn -0.2379 0.8636 -0.4444
vn -0.2419 0.8610 -0.4474
vn -0.3930 0.7343 -0.5535
vn -0.9016 0.2254 -0.3692
vn -0.8860 0.2320 -0.4015
vn -0.8827 0.2333 -0.4080
vn -0.6871 0.2772 -0.6716
vn -0.2250 0.6313 0.7422
vn -0.2064 0.6406 0.7397
vn -0.1808 0.6527 0.7357
vn -0.0719 0.6980 0.7125
vn 0.9922 0.0587 0.1096
vn 0.9937 0.0771 0.0814
vn 0.9929 0.0656 0.0990
vn 0.9889 0.1461 -0.0263
vn 0.2931 -0.5525 -0.7803
vn 0.2945 -0.5424 -0.7868
vn 0.2989 -0.5086 -0.8074
vn 0.3011 -0.4900 -0.8180
vn -0.7288 0.2508 -0.6371
vn -0.7265 0.2663 -0.6334
vn -0.7254 0.2738 -0.6316
vn -0.7157 0.3266 -0.6174
vn -0.0814 0.6731 0.7350
vn 0.0017 0.6859 0.7277
vn -0.0195 0.6831 0.7301
vn 0.1514 0.6965 0.7014
vn 0.6171 -0.6488 0.4453
vn 0.5826 -0.6561 0.4796
vn 0.5945 -0.6538 0.4681
vn 0.5590 -0.6602 0.5017
vn 0.3490 -0.5787 -0.7371
vn 0.3084 -0.5831 -0.7516
vn 0.3318 -0.5807 -0.7434
vn 0.2753 -0.5859 -0.7622
vn -0.0452 -0.1216 -0.9916
vn -0.0452 -0.1215 -0.9916
vn -0.1815 -0.1232 -0.9756
vn -0.1815 -0.1233 -0.9756
vn 0.9710 0.0545 0.2328
vn -0.8607 -0.0842 -0.5020
vn -0.8608 -0.0841 -0.5020
vn -0.8608 -0.0842 -0.5020
vn -0.8607 -0.0841 -0.5020
vn -0.8607 -0.0841 -0.5021
vn 0.9710 0.0545 0.2327
vn 0.9710 0.0544 0.2327
vn 0.3730 0.1217 0.9198
vn 0.8828 0.0800 0.4628
vn 0.5092 0.1172 0.8526
vn 0.5092 0.1172 0.8527
vn 0.8829 0.0800 0.4628
vn 0.6050 0.1120 0.7883
vn 0.6202 -0.0779 -0.7806
vn 0.6202 -0.0780 -0.7806
vn -0.9106 -0.0740 -0.4065
vn 0.1193 0.9729 -0.1979
vn 0.1090 0.9848 -0.1349
vn 0.1155 0.9779 -0.1745
vn 0.1012 0.9909 -0.0888
vn 0.0494 -0.9959 0.0754
vn 0.0398 -0.9981 0.0463
vn 0.0396 -0.9982 0.0456
vn 0.0014 -0.9975 -0.0700
vn 0.0359 0.9643 -0.2624
vn 0.0616 0.9806 -0.1861
vn 0.0615 0.9805 -0.1866
vn 0.0679 0.9836 -0.1672
vn -0.0252 -0.9923 0.1214
vn -0.0259 -0.9923 0.1207
vn -0.0254 -0.9923 0.1212
vn -0.0298 -0.9927 0.1172
vn 0.0223 0.9828 -0.1833
vn 0.0293 0.9838 -0.1770
vn 0.0394 0.9850 -0.1681
vn 0.1450 0.9868 -0.0715
vn 0.0964 -0.9920 0.0819
vn 0.0889 -0.9943 0.0589
vn 0.0887 -0.9943 0.0584
vn 0.0578 -0.9977 -0.0343
vn 0.1351 -0.9892 0.0574
vn 0.1506 -0.9860 0.0712
vn 0.1461 -0.9870 0.0672
vn 0.2632 -0.9492 0.1723
vn -0.0218 0.9581 -0.2856
vn 0.0070 0.9798 -0.1999
vn 0.0068 0.9797 -0.2005
vn 0.0141 0.9839 -0.1784
vn 0.2196 0.0782 0.9724
vn 0.2143 0.0773 0.9737
vn 0.1968 0.0744 0.9776
vn 0.1867 0.0727 0.9797
vn -0.6175 0.7581 -0.2096
vn 0.4400 -0.8506 0.2880
vn -0.6037 -0.6038 0.5205
vn 0.2421 0.7328 0.6359
vn -0.3145 -0.8184 0.4810
vn 0.1474 0.7130 0.6855
vn 0.1358 -0.8344 0.5341
vn -0.1237 0.7290 0.6732
vn 0.6279 -0.5626 0.5377
vn -0.5688 0.4745 0.6718
vn 0.8294 -0.1128 0.5471
vn -0.7593 0.1148 0.6406
vn 0.7878 0.2823 0.5475
vn -0.7737 -0.2773 0.5696
vn 0.5457 0.6931 0.4710
vn -0.5293 -0.6723 0.5176
vn 0.1738 0.9157 0.3624
vn -0.3577 -0.8245 0.4384
vn -0.6038 -0.6038 -0.5205
vn -0.3145 -0.8184 -0.4810
vn 0.1358 -0.8344 -0.5341
vn 0.6279 -0.5627 -0.5377
vn 0.8294 -0.1128 -0.5471
vn 0.7878 0.2823 -0.5475
vn 0.5457 0.6931 -0.4710
vn 0.1738 0.9157 -0.3623
vn -0.3577 -0.8245 -0.4384
vn -0.5293 -0.6723 -0.5176
vn -0.7737 -0.2773 -0.5696
vn -0.7593 0.1148 -0.6406
vn -0.5689 0.4745 -0.6718
vn -0.1237 0.7290 -0.6732
vn 0.1474 0.7130 -0.6855
vn 0.2421 0.7328 -0.6359
usemtl lambert2
s 1
f 1/1/1 2/2/1 3/3/1
s 2
f 2/2/2 1/1/2 4/4/2
s 3
f 1/1/3 6/5/4 5/6/5
s 4
f 5/6/6 4/4/7 1/1/8
s 5
f 5/6/9 9/7/10 8/8/11
s 6
f 8/8/12 7/9/13 5/6/14
s 7
f 11/10/15 9/7/16 12/11/17
s 8
f 11/10/18 10/12/19 8/8/20
s 9
f 11/10/21 15/13/22 14/14/23
s 10
f 14/14/24 13/15/25 11/10/26
s 11
f 14/14/27 18/16/28 17/17/29
s 12
f 17/17/30 16/18/31 14/14/32
s 13
f 20/19/33 18/16/34 21/20/35
s 14
f 17/17/36 22/21/37 19/22/38
s 15
f 23/23/39 21/20/40 24/24/41
s 16
f 20/19/42 25/25/43 22/21/44
s 17
f 26/26/45 24/24/46 27/27/47
s 18
f 23/23/48 28/28/49 25/25/50
s 19
f 29/29/51 26/26/51 27/27/51
s 20
f 26/26/52 29/29/52 28/28/52
s 21
f 3/3/53 2/2/53 30/30/53
s 22
f 6/5/54 30/30/55 31/31/56
s 23
f 9/7/57 31/31/58 32/32/59
s 24
f 9/7/60 33/33/61 12/11/62
s 25
f 15/13/63 33/33/64 34/34/65
s 26
f 18/16/66 34/34/67 35/35/68
s 27
f 18/16/69 36/36/70 21/20/71
s 28
f 21/20/72 37/37/73 24/24/74
s 29
f 24/24/75 38/38/76 27/27/77
s 30
f 29/29/78 27/27/78 38/38/78
s 31
f 28/28/79 29/29/79 38/38/79
s 32
f 28/28/80 37/37/81 25/25/82
s 33
f 25/25/83 36/36/84 22/21/85
s 34
f 22/21/86 35/35/87 19/22/88
s 35
f 16/18/89 35/35/90 34/34/91
s 36
f 13/15/92 34/34/93 33/33/94
s 37
f 10/12/95 33/33/96 32/32/97
s 38
f 7/9/98 32/32/99 31/31/100
s 39
f 4/4/101 31/31/102 30/30/103
s 40
f 2/2/104 4/4/104 30/30/104
s 41
f 40/39/105 42/40/105 39/41/105
s 42
f 41/42/106 44/43/106 42/40/106
s 43
f 43/44/107 46/45/107 44/43/107
s 44
f 45/46/108 39/41/108 46/45/108
s 45
f 45/46/109 41/42/109 40/39/109
s 46
f 39/41/110 44/43/110 46/45/110
s 47
f 48/47/111 50/48/111 47/49/111
s 48
f 51/50/112 53/51/112 54/52/112
s 49
f 53/51/113 49/53/113 48/47/113
s 50
f 54/52/114 50/48/114 51/50/114
s 51
f 54/52/115 53/51/115 55/54/115
s 52
f 53/51/116 48/47/116 55/54/116
s 53
f 48/47/117 47/49/117 55/54/117
s 54
f 47/49/118 54/52/118 55/54/118
s 55
f 50/48/119 49/53/119 56/55/119
s 56
f 49/53/120 52/56/120 56/55/120
s 57
f 52/56/121 51/50/121 56/55/121
s 58
f 51/50/122 50/48/122 56/55/122
s 59
f 58/57/123 123/58/124 57/59/125
f 60/60/126 124/61/127 126/62/128
s 60
f 61/63/129 62/64/130 63/65/131
f 63/65/131 62/64/130 64/66/132
s 61
f 63/65/133 64/66/134 65/67/135
f 65/67/135 64/66/134 66/68/136
s 62
f 66/68/137 67/69/138 65/67/139
f 65/67/139 67/69/138 68/70/140
s 63
f 67/69/141 66/68/142 62/64/143
f 62/64/143 66/68/142 64/66/144
s 64
f 68/70/145 61/63/146 65/67/147
f 65/67/147 61/63/146 63/65/148
s 65
f 59/71/149 60/60/150 61/63/151
f 61/63/151 60/60/150 62/64/152
s 66
f 58/57/153 67/69/154 60/60/155
f 60/60/155 67/69/154 62/64/156
s 67
f 67/69/157 58/57/158 68/70/159
f 68/70/159 58/57/158 57/59/160
s 68
f 61/63/161 68/70/162 59/71/163
f 59/71/163 68/70/162 57/59/164
s 69
f 69/72/165 70/73/165 71/74/165
f 71/74/165 70/73/165 72/75/166
s 70
f 71/74/167 72/75/167 73/76/167
f 73/76/167 72/75/167 74/77/168
s 71
f 75/78/169 76/79/169 77/80/169
s 72
f 78/81/170 79/82/170 80/83/170
f 80/83/170 79/82/170 81/84/171
s 73
f 70/73/172 82/85/172 72/75/172
f 72/75/172 82/85/172 74/77/172
s 74
f 69/72/173 71/74/173 83/86/173
f 83/86/173 71/74/173 73/76/173
s 69
f 80/83/166 81/84/165 69/72/165
f 69/72/165 81/84/165 70/73/165
s 75
f 79/82/174 82/85/175 81/84/176
f 81/84/176 82/85/175 70/73/177
s 76
f 78/81/178 80/83/179 83/86/180
f 83/86/180 80/83/179 69/72/181
s 77
f 84/87/182 85/88/183 82/85/184
f 82/85/184 85/88/183 74/77/185
s 78
f 73/76/186 74/77/186 75/78/186
f 75/78/186 74/77/186 85/88/186
s 79
f 77/80/187 83/86/188 75/78/189
f 75/78/189 83/86/188 73/76/190
s 80
f 86/89/191 87/90/192 88/91/193
f 88/91/193 87/90/192 89/92/194
s 81
f 79/82/195 90/93/195 91/94/196
s 82
f 79/82/197 91/94/198 82/85/199
f 82/85/199 91/94/198 84/87/200
s 83
f 84/87/201 91/94/202 92/95/203
f 92/95/203 91/94/202 93/96/204
s 84
f 77/80/205 94/97/206 95/98/207
f 95/98/207 94/97/206 96/99/208
s 85
f 93/96/209 97/100/210 92/95/211
f 92/95/211 97/100/210 98/101/212
s 86
f 99/102/213 96/99/213 100/103/213
f 100/103/213 96/99/213 101/104/213
s 87
f 96/99/214 94/97/215 101/104/216
f 101/104/216 94/97/215 102/105/217
s 88
f 78/81/218 103/106/219 95/98/220
f 95/98/220 103/106/219 104/107/221
s 89
f 78/81/222 83/86/223 103/106/224
f 103/106/224 83/86/223 105/108/225
s 90
f 83/86/226 77/80/227 105/108/228
f 105/108/228 77/80/227 106/109/229
s 91
f 95/98/230 104/107/231 77/80/232
f 77/80/232 104/107/231 106/109/233
s 92
f 104/107/234 103/106/235 88/91/236
f 88/91/236 103/106/235 86/89/237
s 93
f 103/106/238 105/108/239 86/89/240
f 86/89/240 105/108/239 87/90/241
s 94
f 105/108/242 106/109/243 87/90/244
f 87/90/244 106/109/243 89/92/245
s 95
f 104/107/246 88/91/247 106/109/248
f 106/109/248 88/91/247 89/92/249
s 96
f 107/110/250 108/111/251 109/112/251
f 109/112/251 108/111/251 110/113/251
s 97
f 111/114/252 112/115/253 93/96/252
f 93/96/252 112/115/253 97/100/253
s 98
f 112/115/254 113/116/254 97/100/254
f 97/100/254 113/116/254 98/101/254
s 99
f 90/93/255 111/114/256 91/94/255
f 91/94/255 111/114/256 93/96/256
s 100
f 108/111/257 90/93/257 110/113/257
f 110/113/257 90/93/257 114/117/257
s 101
f 114/117/257 95/98/255 99/102/258
f 99/102/258 95/98/255 96/99/259
s 102
f 115/118/254 116/119/254 109/112/254
f 109/112/254 116/119/254 107/110/254
s 103
f 102/105/254 117/120/260 101/104/254
f 101/104/254 117/120/260 100/103/261
s 104
f 118/121/262 117/120/262 94/97/262
f 94/97/262 117/120/262 102/105/262
s 105
f 76/79/263 118/121/263 77/80/263
f 77/80/263 118/121/263 94/97/263
s 106
f 116/119/264 115/118/264 119/122/264
f 119/122/264 115/118/264 120/123/265
s 107
f 121/124/266 119/122/266 76/79/266
f 76/79/266 119/122/266 120/123/266
s 108
f 92/95/263 122/125/263 84/87/263
f 84/87/263 122/125/263 121/124/263
s 109
f 98/101/267 113/116/267 92/95/267
f 92/95/267 113/116/267 122/125/267
s 71
f 75/78/169 85/88/268 76/79/169
f 76/79/169 85/88/268 121/124/269
f 121/124/269 85/88/268 84/87/269
s 81
f 114/117/270 90/93/195 78/81/270
f 78/81/270 90/93/195 79/82/195
f 95/98/270 114/117/270 78/81/270
s 110
f 122/125/271 113/116/272 111/114/273
f 111/114/273 113/116/272 112/115/274
s 111
f 108/111/275 119/122/276 90/93/277
f 90/93/277 119/122/276 121/124/278
s 112
f 121/124/279 122/125/280 90/93/281
f 90/93/281 122/125/280 111/114/282
s 113
f 108/111/283 107/110/284 119/122/285
f 119/122/285 107/110/284 116/119/286
s 114
f 110/113/287 120/123/288 109/112/289
f 109/112/289 120/123/288 115/118/290
s 115
f 99/102/291 118/121/292 114/117/293
f 114/117/293 118/121/292 76/79/294
s 116
f 99/102/295 100/103/296 118/121/297
f 118/121/297 100/103/296 117/120/298
s 117
f 76/79/299 120/123/300 114/117/301
f 114/117/301 120/123/300 110/113/302
s 118
f 123/58/303 125/126/304 124/61/305
f 124/61/305 125/126/304 126/62/306
s 59
f 58/57/123 126/62/128 125/126/307
f 57/59/125 124/61/127 59/71/308
s 3
f 1/1/3 3/3/309 6/5/4
s 4
f 5/6/6 7/9/310 4/4/7
s 5
f 5/6/9 6/5/311 9/7/10
s 6
f 8/8/12 10/12/312 7/9/13
s 7
f 11/10/15 8/8/313 9/7/16
s 8
f 11/10/18 13/15/314 10/12/19
s 9
f 11/10/21 12/11/315 15/13/22
s 10
f 14/14/24 16/18/316 13/15/25
s 11
f 14/14/27 15/13/317 18/16/28
s 12
f 17/17/30 19/22/318 16/18/31
s 13
f 20/19/33 17/17/319 18/16/34
s 14
f 17/17/36 20/19/320 22/21/37
s 15
f 23/23/39 20/19/321 21/20/40
s 16
f 20/19/42 23/23/322 25/25/43
s 17
f 26/26/45 23/23/323 24/24/46
s 18
f 23/23/48 26/26/324 28/28/49
s 22
f 6/5/54 3/3/325 30/30/55
s 23
f 9/7/57 6/5/326 31/31/58
s 24
f 9/7/60 32/32/327 33/33/61
s 25
f 15/13/63 12/11/328 33/33/64
s 26
f 18/16/66 15/13/329 34/34/67
s 27
f 18/16/69 35/35/330 36/36/70
s 28
f 21/20/72 36/36/331 37/37/73
s 29
f 24/24/75 37/37/332 38/38/76
s 32
f 28/28/80 38/38/333 37/37/81
s 33
f 25/25/83 37/37/334 36/36/84
s 34
f 22/21/86 36/36/335 35/35/87
s 35
f 16/18/89 19/22/336 35/35/90
s 36
f 13/15/92 16/18/337 34/34/93
s 37
f 10/12/95 13/15/338 33/33/96
s 38
f 7/9/98 10/12/339 32/32/99
s 39
f 4/4/101 7/9/340 31/31/102
s 41
f 40/39/105 41/42/105 42/40/105
s 42
f 41/42/106 43/44/106 44/43/106
s 43
f 43/44/107 45/46/107 46/45/107
s 44
f 45/46/108 40/39/108 39/41/108
s 45
f 45/46/109 43/44/109 41/42/109
s 46
f 39/41/110 42/40/110 44/43/110
s 47
f 48/47/111 49/53/111 50/48/111
s 48
f 51/50/112 52/56/112 53/51/112
s 49
f 53/51/113 52/56/113 49/53/113
s 50
f 54/52/114 47/49/114 50/48/114
s 59
f 58/57/123 125/126/307 123/58/124
f 60/60/126 59/71/308 124/61/127
f 58/57/123 60/60/126 126/62/128
f 57/59/125 123/58/124 124/61/127
