# Blender v2.79 (sub 0) OBJ File: 'wc.blend'
# www.blender.org
mtllib wc.mtl
o Vater_Cube.002
v -0.704373 -0.391623 0.803460
v -0.290908 0.384640 0.277106
v -0.704373 -0.391623 -0.803460
v -0.290908 0.384640 -0.277106
v 0.704373 -0.391623 0.803460
v 0.290908 0.384640 0.277106
v 0.704373 -0.391623 -0.803460
v 0.290908 0.384640 -0.277106
v -0.704373 0.384640 0.803460
v -0.704373 0.384640 -0.803460
v 0.704373 0.384640 -0.803460
v 0.704373 0.384640 0.803460
v -0.386121 0.384640 -0.000000
v 0.000000 0.384640 -0.375037
v 0.386121 0.384640 -0.000000
v 0.000000 0.384640 0.375037
v -0.447023 0.420037 -0.000000
v -0.447023 0.384640 -0.000000
v -0.333574 0.384640 -0.330180
v 0.000000 0.384640 -0.442474
v 0.333574 0.384640 -0.330180
v 0.447023 0.384640 -0.000000
v 0.333574 0.384640 0.330180
v 0.000000 0.384640 0.442474
v -0.333574 0.384640 0.330180
v 0.000000 -0.266899 -0.000000
v 0.000000 -0.266899 0.375037
v 0.000000 -0.266899 -0.375037
v 0.386121 -0.266899 -0.000000
v -0.386121 -0.266899 -0.000000
v -0.290908 -0.266899 -0.277106
v 0.290908 -0.266899 -0.277106
v 0.290908 -0.266899 0.277106
v -0.290908 -0.266899 0.277106
v -0.333574 0.420037 -0.330180
v 0.000000 0.420037 -0.442474
v 0.333574 0.420037 -0.330180
v 0.447023 0.420037 -0.000000
v 0.333574 0.420037 0.330180
v 0.000000 0.420037 0.442474
v -0.333574 0.420037 0.330180
v -0.386121 0.420037 -0.000000
v -0.290908 0.420037 -0.277106
v 0.000000 0.420037 -0.375037
v 0.290908 0.420037 -0.277106
v 0.386121 0.420037 -0.000000
v 0.290908 0.420037 0.277106
v 0.000000 0.420037 0.375037
v -0.290908 0.420037 0.277106
vt 0.428818 0.508179
vt 0.559767 0.019459
vt 0.559767 0.606168
vt 0.430898 0.197510
vt 0.020386 0.023742
vt 0.151335 0.168236
vt 0.020386 0.610451
vt 0.149255 0.478906
vt 0.368519 0.969944
vt 0.027880 0.671315
vt 0.368519 0.671315
vt 0.907108 0.151458
vt 0.829213 0.124353
vt 0.842075 0.090836
vt 0.861592 0.772592
vt 0.962290 0.567738
vt 0.962290 0.953700
vt 0.801854 0.665251
vt 0.633060 0.592098
vt 0.733758 0.773206
vt 0.633060 0.978060
vt 0.793495 0.880547
vt 0.694668 0.156505
vt 0.728625 0.228267
vt 0.697161 0.242279
vt 0.909601 0.237232
vt 0.875644 0.165470
vt 0.752427 0.093863
vt 0.728376 0.169440
vt 0.762194 0.302901
vt 0.666462 0.256003
vt 0.737844 0.063527
vt 0.853379 0.059672
vt 0.976017 0.116788
vt 0.861363 0.038008
vt 0.866300 0.022735
vt 0.941083 0.248641
vt 0.728968 0.037455
vt 0.721616 0.023069
vt 0.882652 0.370668
vt 0.960688 0.255866
vt 0.976017 0.260815
vt 0.851842 0.299874
vt 0.750890 0.334065
vt 0.802134 0.196869
vt 0.767049 0.124784
vt 0.875892 0.224298
vt 0.837220 0.268954
vt 0.775055 0.269384
vt 0.643580 0.137871
vt 0.663186 0.145097
vt 0.866425 0.330210
vt 0.742905 0.355729
vt 0.937807 0.137734
vt 0.642649 0.269712
vt 0.875301 0.356282
vt 0.961619 0.124025
vt 0.628251 0.132922
vt 0.628251 0.276950
vt 0.737969 0.371003
vt 0.027880 0.969944
vt 0.876351 0.844227
vt 0.875096 0.704708
vt 0.718998 0.701571
vt 0.720253 0.841091
vn -1.0000 0.0000 0.0000
vn 0.0000 0.0000 -1.0000
vn 1.0000 0.0000 0.0000
vn 0.0000 0.0000 1.0000
vn 0.0000 -1.0000 0.0000
vn -0.3190 0.0000 -0.9477
vn 0.0000 1.0000 0.0000
vn 0.9457 0.0000 0.3249
vn -0.9457 0.0000 -0.3249
vn 0.9457 0.0000 -0.3249
vn 0.3190 0.0000 0.9477
vn 0.3190 0.0000 -0.9477
vn -0.3190 0.0000 0.9477
vn -0.9457 0.0000 0.3249
usemtl Material
s off
f 9/1/1 3/2/1 1/3/1
f 10/4/2 7/5/2 3/2/2
f 11/6/3 5/7/3 7/5/3
f 12/8/4 1/3/4 5/7/4
f 7/9/5 1/10/5 3/11/5
f 6/12/6 27/13/6 16/14/6
f 18/15/7 10/16/7 9/17/7
f 20/18/7 11/19/7 10/16/7
f 22/20/7 12/21/7 11/19/7
f 24/22/7 9/17/7 12/21/7
f 13/23/8 31/24/8 4/25/8
f 15/26/9 33/27/9 6/12/9
f 2/28/10 30/29/10 13/23/10
f 14/30/11 43/31/11 4/25/11
f 13/23/10 49/32/10 2/28/10
f 2/28/12 48/33/12 16/14/12
f 23/34/11 40/35/11 24/36/11
f 6/12/9 46/37/9 15/26/9
f 24/36/13 41/38/13 25/39/13
f 21/40/10 38/41/10 22/42/10
f 8/43/13 44/44/13 14/30/13
f 26/45/7 34/46/7 27/13/7
f 26/45/7 33/27/7 29/47/7
f 32/48/7 26/45/7 29/47/7
f 31/24/7 26/45/7 28/49/7
f 4/25/11 28/49/11 14/30/11
f 16/14/12 34/46/12 2/28/12
f 14/30/13 32/48/13 8/43/13
f 8/43/14 29/47/14 15/26/14
f 43/31/7 17/50/7 42/51/7
f 45/52/7 36/53/7 44/44/7
f 47/54/7 38/41/7 46/37/7
f 49/32/7 40/35/7 48/33/7
f 49/32/7 17/50/7 41/38/7
f 43/31/7 36/53/7 35/55/7
f 45/52/7 38/41/7 37/56/7
f 47/54/7 40/35/7 39/57/7
f 15/26/14 45/52/14 8/43/14
f 18/58/9 35/55/9 19/59/9
f 25/39/14 17/50/14 18/58/14
f 16/14/6 47/54/6 6/12/6
f 20/60/12 37/56/12 21/40/12
f 4/25/8 42/51/8 13/23/8
f 19/59/6 36/53/6 20/60/6
f 22/42/8 39/57/8 23/34/8
f 9/1/1 10/4/1 3/2/1
f 10/4/2 11/6/2 7/5/2
f 11/6/3 12/8/3 5/7/3
f 12/8/4 9/1/4 1/3/4
f 7/9/5 5/61/5 1/10/5
f 6/12/6 33/27/6 27/13/6
f 9/17/7 25/62/7 18/15/7
f 18/15/7 19/63/7 10/16/7
f 10/16/7 19/63/7 20/18/7
f 20/18/7 21/64/7 11/19/7
f 11/19/7 21/64/7 22/20/7
f 22/20/7 23/65/7 12/21/7
f 12/21/7 23/65/7 24/22/7
f 24/22/7 25/62/7 9/17/7
f 13/23/8 30/29/8 31/24/8
f 15/26/9 29/47/9 33/27/9
f 2/28/10 34/46/10 30/29/10
f 14/30/11 44/44/11 43/31/11
f 13/23/10 42/51/10 49/32/10
f 2/28/12 49/32/12 48/33/12
f 23/34/11 39/57/11 40/35/11
f 6/12/9 47/54/9 46/37/9
f 24/36/13 40/35/13 41/38/13
f 21/40/10 37/56/10 38/41/10
f 8/43/13 45/52/13 44/44/13
f 26/45/7 30/29/7 34/46/7
f 26/45/7 27/13/7 33/27/7
f 32/48/7 28/49/7 26/45/7
f 31/24/7 30/29/7 26/45/7
f 4/25/11 31/24/11 28/49/11
f 16/14/12 27/13/12 34/46/12
f 14/30/13 28/49/13 32/48/13
f 8/43/14 32/48/14 29/47/14
f 43/31/7 35/55/7 17/50/7
f 45/52/7 37/56/7 36/53/7
f 47/54/7 39/57/7 38/41/7
f 49/32/7 41/38/7 40/35/7
f 49/32/7 42/51/7 17/50/7
f 43/31/7 44/44/7 36/53/7
f 45/52/7 46/37/7 38/41/7
f 47/54/7 48/33/7 40/35/7
f 15/26/14 46/37/14 45/52/14
f 18/58/9 17/50/9 35/55/9
f 25/39/14 41/38/14 17/50/14
f 16/14/6 48/33/6 47/54/6
f 20/60/12 36/53/12 37/56/12
f 4/25/8 43/31/8 42/51/8
f 19/59/6 35/55/6 36/53/6
f 22/42/8 38/41/8 39/57/8
