# Blender v2.79 (sub 0) OBJ File: 'WizardArm.blend'
# www.blender.org
mtllib WizardArm.mtl
o brazo_Cube.000
v -0.659203 -0.012866 -0.241616
v -0.551564 0.049607 -0.206820
v -0.627011 0.082544 -0.243470
v -0.675586 -0.037902 -0.486318
v -0.589283 -0.026978 -0.795971
v -0.607196 -0.173566 -0.776142
v -0.659998 -0.124062 -0.461523
v -0.523583 -0.167802 -0.519379
v -0.524280 -0.053657 -0.313954
v -0.540903 0.012577 -0.309464
v -0.566484 -0.073453 -0.536085
v -0.425585 -0.172388 -0.754550
v -0.440836 -0.027851 -0.738966
v -0.444608 -0.136129 -0.763330
v -0.467171 -0.211385 -0.800553
v -0.421151 -0.189179 -0.856298
v -0.385722 -0.133509 -0.838797
v -0.408261 -0.069144 -0.835086
v -0.449838 -0.049817 -0.771976
v -0.516648 -0.066538 -0.763510
v -0.534388 -0.126199 -0.728711
v -0.529341 -0.185206 -0.784553
v -0.595149 -0.113584 -0.799799
v -0.580370 -0.193684 -0.828087
v -0.563233 -0.033485 -0.799680
v -0.575301 -0.044825 -0.875468
v -0.610533 -0.099858 -0.892817
v -0.587995 -0.163491 -0.896511
v -0.554283 -0.094328 -0.957932
v -0.549060 -0.179957 -0.949272
v -0.531923 -0.019757 -0.920865
v -0.471534 -0.044825 -0.938064
v -0.470449 -0.099858 -0.977321
v -0.484228 -0.163491 -0.959107
v -0.405728 -0.116446 -0.922819
v -0.437643 -0.196545 -0.922938
v -0.420507 -0.036345 -0.894531
v -0.510542 -0.223245 -0.885420
v -0.487693 -0.009646 -0.847544
v -0.471003 -0.075568 -0.885227
v -0.441625 0.542868 -0.905569
v -0.351238 0.536355 -0.883585
v -0.423101 -0.079808 -0.873696
v -0.482993 -0.079293 -0.837422
v -0.464024 0.537600 -0.815210
v -0.435092 -0.083533 -0.825889
v -0.373638 0.531088 -0.793227
v -0.332342 0.713918 -0.732457
v -0.289602 0.723619 -0.905091
v -0.388605 0.887729 -0.828487
v -0.462258 0.735753 -0.947128
v -0.413198 0.471497 -0.847940
v -0.504997 0.726052 -0.774495
v -0.482724 -0.800566 -0.923061
v -0.489207 -0.804269 -0.898267
v -0.514204 -0.800568 -0.904061
v -0.507719 -0.796865 -0.928855
v -0.483715 -0.796359 -0.923982
v -0.490317 -0.803047 -0.899317
v -0.523149 0.419548 0.381589
v -0.512488 0.465383 0.261534
v -0.599211 0.481105 0.320709
v -0.630585 0.387857 0.342233
vt 0.178781 0.652637
vt 0.184239 0.657173
vt 0.184239 0.657173
vt 0.177325 0.623796
vt 0.173313 0.647410
vt 0.170659 0.621548
vt 0.177341 0.604360
vt 0.185214 0.603975
vt 0.153673 0.667059
vt 0.167829 0.678223
vt 0.158056 0.682828
vt 0.170659 0.664658
vt 0.190521 0.684417
vt 0.192841 0.665675
vt 0.195840 0.685401
vt 0.166984 0.686720
vt 0.189745 0.692870
vt 0.195840 0.685401
vt 0.189745 0.692870
vt 0.196476 0.580442
vt 0.185082 0.591099
vt 0.184717 0.580890
vt 0.155063 0.640932
vt 0.162606 0.662828
vt 0.177517 0.669325
vt 0.173902 0.687942
vt 0.184621 0.666341
vt 0.195840 0.651982
vt 0.574443 0.901246
vt 0.569524 0.910771
vt 0.566223 0.904638
vt 0.565855 0.899201
vt 0.571487 0.894418
vt 0.577011 0.896019
vt 0.582097 0.899382
vt 0.580680 0.907588
vt 0.576441 0.910037
vt 0.671655 0.891553
vt 0.680223 0.888051
vt 0.679448 0.895153
vt 0.675905 0.900076
vt 0.669575 0.900076
vt 0.665893 0.895985
vt 0.665680 0.889031
vt 0.665680 0.898730
vt 0.660537 0.891751
vt 0.665680 0.889879
vt 0.652223 0.896463
vt 0.659895 0.898719
vt 0.657209 0.903510
vt 0.650909 0.903915
vt 0.638065 0.913763
vt 0.630405 0.910159
vt 0.636844 0.909132
vt 0.650553 0.887690
vt 0.655402 0.888040
vt 0.634088 0.901439
vt 0.642090 0.905724
vt 0.626315 0.905207
vt 0.626492 0.899909
vt 0.631561 0.895295
vt 0.638177 0.895474
vt 0.642090 0.899220
vt 0.575181 0.916393
vt 0.582097 0.911380
vt 0.658949 0.883938
vt 0.651461 0.883843
vt 0.672140 0.908859
vt 0.680106 0.904267
vt 0.680106 0.911732
vt 0.676978 0.915313
vt 0.670717 0.915702
vt 0.666195 0.910149
vt 0.665680 0.905101
vt 0.669693 0.900076
vt 0.675070 0.901131
vt 0.424126 0.611541
vt 0.395276 0.692290
vt 0.406958 0.611468
vt 0.395276 0.692403
vt 0.376354 0.611471
vt 0.393518 0.611513
vt 0.362900 0.692577
vt 0.334009 0.611690
vt 0.351177 0.611617
vt 0.327768 0.611699
vt 0.298122 0.692566
vt 0.310607 0.611613
vt 0.460048 0.530651
vt 0.427662 0.538360
vt 0.427662 0.530660
vt 0.839506 0.634521
vt 0.878888 0.654147
vt 0.848383 0.694847
vt 0.918250 0.580454
vt 0.878888 0.600128
vt 0.889275 0.539753
vt 0.918250 0.694847
vt 0.878888 0.539753
vt 0.839506 0.539753
vt 0.839506 0.653260
vt 0.800186 0.633376
vt 0.919106 0.539753
vt 0.956309 0.599951
vt 0.918250 0.625307
vt 0.809964 0.695876
vt 0.956309 0.681084
vt 0.328537 0.530859
vt 0.319593 0.530651
vt 0.333988 0.530827
vt 0.342956 0.530651
vt 0.386308 0.530792
vt 0.395276 0.530651
vt 0.424089 0.530827
vt 0.415121 0.530651
vt 0.177341 0.604360
vt 0.182704 0.599023
vt 0.185214 0.603975
vt 0.178781 0.652637
vt 0.184621 0.647410
vt 0.158056 0.682828
vt 0.185214 0.646268
vt 0.196476 0.593284
vt 0.167829 0.643775
vt 0.184621 0.683757
vt 0.185051 0.647410
vt 0.675405 0.883843
vt 0.629297 0.914450
vt 0.646416 0.893236
vt 0.567263 0.915395
vt 0.427662 0.692290
vt 0.362900 0.692161
vt 0.330514 0.692577
vt 0.330514 0.692566
vt 0.460048 0.538351
vt 0.166984 0.686720
vn 0.1294 0.7759 -0.6175
vn 0.6829 0.5747 -0.4509
vn 0.5716 0.6289 -0.5271
vn -0.9763 -0.1400 -0.1648
vn -0.9696 0.0297 -0.2427
vn -0.9686 -0.2124 -0.1291
vn -0.9959 -0.0550 0.0723
vn -0.9705 0.2378 0.0406
vn -0.9469 0.3201 0.0306
vn -0.0586 -0.8790 0.4733
vn -0.0430 -0.8857 0.4622
vn -0.0278 -0.8920 0.4511
vn 0.2688 0.8526 -0.4481
vn 0.1792 0.9016 -0.3938
vn 0.3096 0.8257 -0.4715
vn 0.9388 0.2782 -0.2032
vn 0.9123 0.3546 -0.2049
vn 0.9466 0.2513 -0.2022
vn 0.1707 -0.6873 0.7060
vn 0.9263 -0.3167 0.2039
vn 0.9903 -0.1343 0.0366
vn 0.9700 0.2426 0.0132
vn 0.2463 0.0011 -0.9692
vn 0.2235 -0.0260 -0.9744
vn 0.3558 0.1372 -0.9244
vn -0.0776 -0.9958 0.0476
vn -0.1840 -0.9795 0.0819
vn -0.2622 -0.9591 0.1069
vn 0.2575 0.9549 0.1482
vn 0.0455 0.9840 0.1720
vn 0.3615 0.9228 0.1333
vn 0.8092 0.3073 0.5008
vn 0.8892 0.1516 0.4317
vn 0.7236 0.4253 0.5437
vn 0.7179 -0.5111 0.4727
vn 0.7104 -0.5190 0.4754
vn 0.6561 -0.5722 0.4921
vn 0.8103 0.1632 0.5628
vn 0.8038 0.1735 0.5691
vn 0.8449 0.1038 0.5248
vn 0.2385 0.2493 0.9386
vn 0.2478 0.2590 0.9335
vn 0.3689 0.3840 0.8464
vn 0.1285 -0.5722 0.8100
vn 0.1265 -0.5696 0.8121
vn 0.0388 -0.4523 0.8910
vn -0.6419 -0.4591 0.6142
vn -0.6386 -0.4546 0.6210
vn -0.6895 -0.5281 0.4957
vn -0.5647 0.3753 0.7350
vn -0.5663 0.3815 0.7306
vn -0.5078 0.2011 0.8377
vn -0.8953 0.4204 0.1472
vn -0.8893 0.4295 0.1570
vn -0.8521 0.4788 0.2116
vn -0.9636 -0.2598 0.0628
vn -0.9604 -0.2700 0.0683
vn -0.9814 -0.1901 0.0255
vn -0.7748 -0.1644 -0.6104
vn -0.7288 -0.2205 -0.6483
vn -0.7019 0.5174 -0.4895
vn -0.7551 0.4591 -0.4680
vn -0.1057 0.5174 -0.8492
vn -0.1488 0.5723 -0.8064
vn -0.1786 -0.1644 -0.9701
vn -0.1224 -0.1073 -0.9867
vn 0.5327 -0.2703 -0.8020
vn 0.5541 -0.3378 -0.7608
vn 0.6057 0.4115 -0.6811
vn 0.5683 0.3652 -0.7373
vn 0.9548 0.2723 -0.1193
vn 0.9543 0.2737 -0.1200
vn 0.9298 0.3345 -0.1535
vn 0.8822 -0.4057 -0.2391
vn 0.8814 -0.4067 -0.2403
vn 0.9129 -0.3635 -0.1857
vn -0.2194 -0.9257 0.3082
vn -0.2187 -0.9258 0.3084
vn -0.1256 -0.9358 0.3295
vn -0.5725 -0.7856 -0.2348
vn -0.5724 -0.7856 -0.2351
vn -0.5838 -0.7908 -0.1840
vn 0.0308 -0.7817 -0.6229
vn -0.0480 -0.7674 -0.6394
vn 0.3627 -0.9316 -0.0235
vn 0.3629 -0.9315 -0.0244
vn 0.3728 -0.9259 -0.0611
vn -0.3755 0.9268 0.0104
vn -0.3765 0.9263 0.0141
vn -0.3481 0.9337 -0.0843
vn -0.0159 0.8305 0.5568
vn -0.0149 0.8304 0.5570
vn -0.1448 0.8418 0.5200
vn 0.5613 0.7965 0.2248
vn 0.5609 0.7963 0.2265
vn 0.5350 0.7815 0.3210
vn 0.2132 0.9229 -0.3206
vn 0.2913 0.9081 -0.3009
vn 0.2337 0.0069 -0.9723
vn 0.2330 -0.0430 -0.9715
vn 0.2341 0.0016 -0.9722
vn -0.9704 0.0383 -0.2384
vn -0.9689 0.0562 -0.2411
vn -0.9696 0.0513 -0.2393
vn -0.2380 -0.0277 0.9709
vn -0.2363 -0.0474 0.9705
vn -0.2382 -0.0532 0.9698
vn 0.9669 -0.0972 0.2358
vn 0.9663 -0.1090 0.2332
vn 0.9667 -0.1025 0.2345
vn 0.0544 0.9960 0.0715
vn 0.8767 0.4166 0.2405
vn 0.2360 0.5243 -0.8182
vn 0.2042 -0.3105 -0.9284
vn 0.8969 -0.3944 0.1999
vn -0.2448 -0.3492 0.9045
vn -0.9323 -0.2653 -0.2457
vn -0.1852 0.4286 0.8843
vn -0.8258 0.5363 -0.1743
vn 0.9664 -0.0965 0.2381
vn 0.9664 -0.0965 0.2383
vn -0.2364 -0.0795 0.9684
vn -0.2362 -0.0795 0.9684
vn -0.9678 0.0643 -0.2433
vn -0.9678 0.0644 -0.2435
vn 0.2324 0.0473 -0.9715
vn 0.2322 0.0473 -0.9715
vn -0.4095 0.3338 0.8491
vn 0.3974 0.8450 0.3579
vn 0.2724 -0.8012 0.5328
vn -0.7643 -0.5358 0.3589
vn -0.7258 -0.5501 0.4131
vn -0.9358 0.3103 -0.1675
vn -0.9467 0.2831 -0.1534
vn -0.2327 0.7997 -0.5535
vn -0.9608 0.0816 -0.2649
vn -0.9846 -0.1546 0.0817
vn -0.0742 -0.8718 0.4842
vn 0.1338 0.9214 -0.3649
vn 0.9041 0.3748 -0.2052
vn 0.1177 -0.1472 -0.9821
vn 0.0040 -0.9998 0.0211
vn -0.0638 0.9814 0.1811
vn 0.9220 0.0560 0.3831
vn 0.7674 -0.4540 0.4527
vn 0.7629 0.2324 0.6033
vn 0.0991 0.1051 0.9895
vn 0.2041 -0.6636 0.7197
vn -0.5683 -0.3652 0.7373
vn -0.5962 0.5293 0.6036
vn -0.9251 0.3685 0.0922
vn -0.9355 -0.3374 0.1049
vn -0.8157 -0.1072 -0.5685
vn -0.6440 0.5723 -0.5077
vn -0.0618 0.4591 -0.8862
vn -0.2336 -0.2205 -0.9470
vn 0.5077 -0.2011 -0.8377
vn 0.6389 0.4550 -0.6202
vn 0.9741 0.2097 -0.0849
vn 0.8458 -0.4465 -0.2921
vn -0.3089 -0.9075 0.2847
vn -0.5606 -0.7789 -0.2812
vn 0.1095 -0.7908 -0.6022
vn 0.3514 -0.9361 0.0165
vn -0.4020 0.9081 0.1173
vn 0.1165 0.8033 0.5840
vn 0.5801 0.8030 0.1363
vn 0.1337 0.9315 -0.3382
vn 0.2332 -0.0430 -0.9715
vn -0.9704 0.0383 -0.2383
vn -0.2381 -0.0276 0.9708
vn 0.0557 -0.8465 0.5295
usemtl color.001
s 1
f 3/1/1 61/2/2 10/3/3
s 2
f 4/4/4 6/5/5 7/6/6
s 3
f 4/4/7 1/7/8 3/8/9
s 4
f 7/9/10 9/10/11 1/11/12
s 5
f 10/3/13 4/12/14 3/1/15
s 6
f 9/13/16 11/14/17 10/15/18
s 7
f 9/10/19 2/16/19 1/11/19
s 1
f 2/17/20 61/18/2 60/19/21
s 8
f 10/15/22 2/17/22 9/13/22
s 9
f 12/20/23 5/21/24 13/22/25
s 10
f 6/23/26 8/24/27 7/9/28
s 11
f 11/25/29 5/26/30 4/12/31
s 12
f 8/27/32 13/28/33 11/14/34
s 13
f 14/29/35 16/30/36 17/31/37
s 14
f 14/29/38 18/32/39 19/33/40
s 15
f 14/29/41 20/34/42 21/35/43
s 16
f 14/29/44 22/36/45 15/37/46
s 17
f 23/38/47 22/39/48 21/40/49
s 18
f 23/38/50 20/41/51 25/42/52
s 19
f 23/38/53 26/43/54 27/44/55
s 20
f 23/45/56 28/46/57 24/47/58
s 21
f 29/48/59 28/46/59 27/49/60
s 22
f 29/48/61 26/50/61 31/51/62
s 23
f 29/52/63 32/53/63 33/54/64
s 24
f 29/48/65 34/55/65 30/56/66
s 25
f 35/57/67 34/58/67 33/54/68
s 26
f 35/57/69 32/53/69 37/59/70
s 27
f 35/57/71 18/60/72 17/61/73
s 28
f 35/57/74 16/62/75 36/63/76
s 29
f 38/64/77 22/36/78 24/65/79
s 30
f 38/66/80 28/46/81 30/56/82
s 31
f 38/66/83 34/55/83 36/67/84
s 32
f 38/64/85 16/30/86 15/37/87
s 33
f 39/68/88 26/69/89 25/70/90
s 34
f 39/68/91 20/71/92 19/72/93
s 35
f 39/68/94 18/73/95 37/74/96
s 36
f 39/68/97 32/75/97 31/76/98
s 37
f 40/77/99 42/78/100 43/79/101
s 38
f 45/80/102 40/81/103 44/82/104
s 39
f 47/83/105 44/84/106 46/85/107
s 40
f 43/86/108 47/87/109 46/88/110
s 41
f 41/89/111 47/90/111 42/91/111
s 42
f 48/92/112 49/93/112 50/94/112
s 43
f 49/95/113 51/96/113 50/97/113
s 44
f 52/98/114 51/96/114 49/95/114
s 45
f 52/99/115 49/93/115 48/92/115
s 46
f 52/100/116 48/101/116 53/102/116
s 47
f 52/103/117 53/104/117 51/105/117
s 48
f 53/102/118 48/101/118 50/106/118
s 49
f 51/105/119 53/104/119 50/107/119
s 40
f 54/108/120 46/88/110 55/109/121
s 39
f 46/85/107 56/110/122 55/111/123
s 38
f 44/82/104 57/112/124 56/113/125
s 37
f 57/114/126 43/79/101 54/115/127
s 50
f 63/116/128 60/117/128 62/118/128
s 51
f 62/119/129 60/120/129 61/2/129
s 52
f 2/16/130 63/121/131 1/11/132
f 3/8/133 63/116/131 62/118/134
s 1
f 3/1/1 62/119/135 61/2/2
s 2
f 4/4/4 5/122/136 6/5/5
s 3
f 4/4/7 7/6/137 1/7/8
s 4
f 7/9/10 8/24/138 9/10/11
s 5
f 10/3/13 11/25/139 4/12/14
s 6
f 9/13/16 8/27/140 11/14/17
s 1
f 2/17/20 10/15/3 61/18/2
s 9
f 12/20/23 6/123/141 5/21/24
s 10
f 6/23/26 12/124/142 8/24/27
s 11
f 11/25/29 13/125/143 5/26/30
s 12
f 8/27/32 12/126/144 13/28/33
s 13
f 14/29/35 15/37/145 16/30/36
s 14
f 14/29/38 17/31/146 18/32/39
s 15
f 14/29/41 19/33/147 20/34/42
s 16
f 14/29/44 21/35/148 22/36/45
s 17
f 23/38/47 24/127/149 22/39/48
s 18
f 23/38/50 21/40/150 20/41/51
s 19
f 23/38/53 25/42/151 26/43/54
s 20
f 23/45/56 27/49/152 28/46/57
s 21
f 29/48/59 30/56/153 28/46/59
s 22
f 29/48/61 27/49/154 26/50/61
s 23
f 29/52/63 31/128/155 32/53/63
s 24
f 29/48/65 33/129/156 34/55/65
s 25
f 35/57/67 36/63/157 34/58/67
s 26
f 35/57/69 33/54/158 32/53/69
s 27
f 35/57/71 37/59/159 18/60/72
s 28
f 35/57/74 17/61/160 16/62/75
s 29
f 38/64/77 15/37/161 22/36/78
s 30
f 38/66/80 24/47/162 28/46/81
s 31
f 38/66/83 30/56/163 34/55/83
s 32
f 38/64/85 36/130/164 16/30/86
s 33
f 39/68/88 31/76/165 26/69/89
s 34
f 39/68/91 25/70/166 20/71/92
s 35
f 39/68/94 19/72/167 18/73/95
s 36
f 39/68/97 37/74/168 32/75/97
s 37
f 40/77/99 41/131/169 42/78/100
s 38
f 45/80/102 41/132/170 40/81/103
s 39
f 47/83/105 45/133/171 44/84/106
s 40
f 43/86/108 42/134/109 47/87/109
s 41
f 41/89/111 45/135/111 47/90/111
s 40
f 54/108/120 43/86/108 46/88/110
s 39
f 46/85/107 44/84/106 56/110/122
s 38
f 44/82/104 40/81/103 57/112/124
s 37
f 57/114/126 40/77/99 43/79/101
s 52
f 2/16/130 60/136/172 63/121/131
f 3/8/133 1/7/132 63/116/131
l 57 58
l 58 59
