# Blender v2.79 (sub 0) OBJ File: 'PlayersSeparated.blend'
# www.blender.org
mtllib leftLeg.mtl
o Warlock.005_Untitled.005
v 0.090689 -0.077276 -0.185996
v 0.066135 0.018605 -0.011253
v -0.090687 -0.077276 -0.185996
v -0.066137 0.018605 -0.011253
v -0.090687 -0.077276 -0.011253
v 0.090689 -0.077276 -0.011253
v 0.041733 -0.077276 0.197842
v 0.030434 -0.021600 0.181362
v -0.041732 -0.077276 0.197842
v -0.030436 -0.021600 0.181362
v 0.038937 0.117411 -0.128978
v -0.038938 0.117411 -0.128978
v -0.038938 0.117411 -0.041724
v 0.038937 0.117411 -0.041724
vt 0.158053 0.898647
vt 0.158053 0.898647
vt 0.158053 0.898647
vt 0.158053 0.898647
vt 0.158053 0.898647
vt 0.158053 0.898647
vt 0.158053 0.898647
vt 0.158053 0.898647
vt 0.158053 0.898647
vt 0.158053 0.898647
vt 0.158053 0.898647
vt 0.158053 0.898647
vt 0.158053 0.898647
vt 0.158053 0.898647
vn 0.0000 1.0000 0.0000
vn -0.9687 0.2480 0.0000
vn 0.0000 -1.0000 -0.0000
vn 0.9687 0.2481 0.0000
vn 0.0000 0.2838 0.9589
vn 0.9428 0.2473 0.2234
vn -0.9428 0.2473 0.2234
vn 0.0000 0.9789 0.2043
vn 0.0000 0.2811 -0.9597
vn -0.9656 0.2602 -0.0047
vn 0.0000 0.2947 0.9556
vn 0.9656 0.2602 -0.0047
usemtl lambert2
s 1
f 11/1/1 12/2/1 13/3/1 14/4/1
f 3/5/2 5/6/2 4/7/2
f 3/5/3 1/8/3 6/9/3 5/6/3
f 1/8/4 2/10/4 6/9/4
f 8/11/5 10/12/5 9/13/5 7/14/5
f 2/10/6 8/11/6 7/14/6 6/9/6
f 6/9/3 7/14/3 9/13/3 5/6/3
f 5/6/7 9/13/7 10/12/7 4/7/7
f 4/7/8 10/12/8 8/11/8 2/10/8
f 1/8/9 3/5/9 12/2/9 11/1/9
f 3/5/10 4/7/10 13/3/10 12/2/10
f 4/7/11 2/10/11 14/4/11 13/3/11
f 2/10/12 1/8/12 11/1/12 14/4/12
