# Blender v2.79 (sub 0) OBJ File: 'right_leg.blend'
# www.blender.org
mtllib right_leg.mtl
o LowPoly_Warlock_Plane.001
v 0.022089 0.196337 -0.018363
v -0.037221 0.198413 -0.021982
v 0.027113 0.279148 -0.023680
v -0.043175 0.278724 -0.035725
v -0.090873 0.201434 0.027956
v -0.096394 0.273547 0.049827
v -0.011552 0.212359 0.118182
v -0.022006 0.272125 0.111929
v 0.050921 0.192302 0.064662
v 0.050281 0.281119 0.063297
v 0.017669 0.116468 -0.009330
v -0.029992 0.118023 -0.013845
v -0.076169 0.121351 0.029221
v -0.011014 0.129701 0.111261
v 0.043634 0.112376 0.060214
v 0.017134 -0.003300 0.002885
v -0.018979 -0.003078 -0.005776
v -0.051464 -0.000502 0.028493
v 0.001284 0.005684 0.090883
v 0.032092 -0.005941 0.051026
v 0.016724 -0.077908 0.007105
v -0.015569 -0.077983 -0.003030
v -0.042686 -0.075595 0.028363
v -0.000748 -0.069555 0.084940
v 0.028943 -0.080035 0.047932
v 0.016986 -0.110783 0.009716
v -0.015884 -0.111635 0.002241
v -0.029431 -0.112347 0.029864
v -0.006692 -0.117165 0.073825
v 0.020937 -0.127487 0.051467
v -0.011978 -0.174856 0.081628
v 0.028701 -0.184873 0.029219
v -0.035000 -0.173846 0.032127
v -0.020216 -0.151474 -0.008782
v 0.019253 -0.141855 -0.011861
v 0.053892 -0.136434 -0.058776
v -0.013833 -0.129706 -0.068717
v 0.029089 -0.093425 -0.004674
v -0.013438 -0.083992 -0.013350
v -0.044105 -0.178415 -0.034513
v -0.029258 -0.093553 -0.001271
v -0.045686 -0.169953 0.057905
v -0.039849 -0.094281 0.039688
v -0.024154 -0.167796 0.103258
v -0.018726 -0.091537 0.084821
v -0.002016 -0.167314 0.103806
v 0.002900 -0.091401 0.085548
v 0.031033 -0.156859 0.068064
v 0.030315 -0.085889 0.045602
v 0.054592 -0.149783 0.003227
v 0.033412 -0.093741 0.016559
v -0.002454 -0.190510 -0.023136
v -0.030442 -0.189504 0.053920
v -0.026458 -0.189673 0.087796
v -0.002747 -0.189792 0.087136
v 0.008941 -0.190631 0.058934
v 0.039017 -0.184672 -0.004195
v 0.060222 -0.149005 -0.082802
v -0.012424 -0.145548 -0.104072
v 0.086465 -0.186942 -0.088175
v -0.015210 -0.199491 -0.117593
v 0.056601 -0.198991 -0.102569
v -0.024421 -0.178187 -0.125398
v 0.001440 -0.191656 -0.186406
v -0.010046 -0.174389 -0.181398
v 0.086716 -0.166705 -0.104934
v 0.089204 -0.188555 -0.114769
v 0.073649 -0.143168 -0.105422
v 0.067053 -0.195693 -0.143441
v 0.013037 -0.161183 -0.205033
v 0.077787 -0.169773 -0.184418
v 0.089204 -0.161930 -0.138728
v 0.086474 -0.153465 -0.118722
v 0.001975 -0.162284 -0.197043
v 0.017963 -0.130620 -0.197200
v 0.074326 -0.134247 -0.175452
v 0.086332 -0.130936 -0.146634
v 0.080568 -0.127362 -0.128273
v -0.001814 -0.131085 -0.175140
v 0.021753 -0.099416 -0.179030
v 0.062150 -0.100498 -0.165214
v 0.067846 -0.099510 -0.147771
v 0.060006 -0.098443 -0.132497
v 0.013573 -0.100627 -0.150343
v 0.026594 -0.075893 -0.161593
v 0.047502 -0.077092 -0.154303
v 0.049548 -0.076721 -0.145416
v 0.044834 -0.076322 -0.136482
v 0.016030 -0.076738 -0.147494
v 0.073631 -0.127890 -0.116426
v 0.055086 -0.132624 -0.204626
v 0.027233 -0.053589 -0.145251
v 0.052313 -0.161057 -0.214083
v 0.048185 -0.099868 -0.184526
v 0.044246 -0.076885 -0.165583
v -0.016683 -0.167766 -0.153238
v -0.001923 -0.143813 -0.129225
v -0.011439 -0.150009 -0.164964
v 0.030432 -0.073386 -0.138698
v 0.007994 -0.118017 -0.142830
v 0.028971 -0.084285 -0.134065
v 0.038257 -0.111907 -0.116703
v 0.033274 -0.132443 -0.099160
v 0.026322 -0.137740 -0.085836
v 0.022343 -0.092870 0.003545
v -0.010552 -0.085574 -0.003165
v -0.022788 -0.092969 0.006178
v -0.030980 -0.093533 0.037860
v -0.014642 -0.091410 0.072770
v 0.002086 -0.091305 0.073332
v 0.023291 -0.087041 0.042434
v 0.025687 -0.093115 0.019969
vt 0.955715 0.066341
vt 0.974903 0.053511
vt 0.956467 0.053041
vt 0.973795 0.069248
vt 0.952938 0.082600
vt 0.967619 0.090909
vt 0.977284 0.195556
vt 0.963303 0.219480
vt 0.976540 0.217638
vt 0.978824 0.237529
vt 0.974903 0.033539
vt 0.935733 0.076858
vt 0.955193 0.033591
vt 0.938424 0.051947
vt 0.937674 0.062777
vt 0.959942 0.192992
vt 0.945423 0.219496
vt 0.958360 0.237529
vt 0.940101 0.235682
vt 0.909351 0.068015
vt 0.937476 0.035302
vt 0.911233 0.049013
vt 0.941716 0.196503
vt 0.916955 0.221017
vt 0.910512 0.057414
vt 0.912959 0.232286
vt 0.914150 0.202457
vt 0.900194 0.220215
vt 0.893858 0.054817
vt 0.896172 0.230321
vt 0.892898 0.064178
vt 0.910969 0.037713
vt 0.894450 0.047304
vt 0.889365 0.218675
vt 0.885494 0.226803
vt 0.884435 0.061150
vt 0.894528 0.037908
vt 0.887005 0.046438
vt 0.897186 0.205168
vt 0.886108 0.054192
vt 0.880262 0.217960
vt 0.871176 0.223611
vt 0.876526 0.209476
vt 0.878688 0.052400
vt 0.871176 0.056949
vt 0.880764 0.047774
vt 0.884204 0.036723
vt 0.871239 0.043014
vt 0.110951 0.102794
vt 0.079083 0.084052
vt 0.076129 0.116594
vt 0.097040 0.073217
vt 0.092614 0.079482
vt 0.107328 0.032657
vt 0.090607 0.060925
vt 0.081226 0.054504
vt 0.067139 0.028036
vt 0.076014 0.056291
vt 0.048237 0.050900
vt 0.073931 0.068138
vt 0.074871 0.077557
vt 0.052459 0.090977
vt 0.048568 0.229539
vt 0.063789 0.191079
vt 0.053122 0.185456
vt 0.068311 0.179402
vt 0.068544 0.167838
vt 0.076432 0.180612
vt 0.079599 0.169187
vt 0.097293 0.184498
vt 0.080145 0.191627
vt 0.091408 0.221151
vt 0.109044 0.215196
vt 0.070213 0.227463
vt 0.077028 0.132013
vt 0.096676 0.122887
vt 0.056465 0.147586
vt 0.106955 0.264737
vt 0.091089 0.268651
vt 0.059031 0.269471
vt 0.136644 0.076274
vt 0.122752 0.120611
vt 0.144183 0.127646
vt 0.048237 0.273127
vt 0.061323 0.297942
vt 0.059861 0.160416
vt 0.068686 0.152236
vt 0.105469 0.277536
vt 0.091713 0.287472
vt 0.142150 0.143245
vt 0.081200 0.146964
vt 0.059460 0.313305
vt 0.077039 0.321713
vt 0.109044 0.294459
vt 0.054861 0.308735
vt 0.076162 0.167688
vt 0.077162 0.156788
vt 0.265247 0.244108
vt 0.263290 0.266717
vt 0.274021 0.256826
vt 0.247684 0.259123
vt 0.255011 0.279330
vt 0.227869 0.300145
vt 0.229259 0.284626
vt 0.222179 0.289276
vt 0.240066 0.302403
vt 0.254298 0.295341
vt 0.240066 0.296049
vt 0.276789 0.276490
vt 0.283317 0.271245
vt 0.256844 0.308448
vt 0.270133 0.296375
vt 0.270367 0.284650
vt 0.217039 0.274421
vt 0.210535 0.278617
vt 0.276480 0.308277
vt 0.283503 0.296108
vt 0.286971 0.284962
vt 0.290510 0.282748
vt 0.206473 0.266930
vt 0.202674 0.269264
vt 0.282773 0.288072
vt 0.217620 0.292999
vt 0.218660 0.301124
vt 0.241755 0.277431
vt 0.296381 0.296400
vt 0.286765 0.303652
vt 0.195090 0.258287
vt 0.148677 0.156905
vt 0.134794 0.151645
vt 0.148827 0.286130
vt 0.163530 0.293354
vt 0.165573 0.283096
vt 0.122794 0.136262
vt 0.181823 0.285896
vt 0.097493 0.131535
vt 0.200565 0.288627
vt 0.178975 0.299645
vt 0.200209 0.301124
vt 0.183582 0.277123
vt 0.195687 0.273336
vt 0.196242 0.267763
vt 0.188447 0.267617
vt 0.092385 0.310272
vt 0.222658 0.210996
vt 0.213931 0.213572
vt 0.215685 0.218016
vt 0.204114 0.173467
vt 0.212460 0.178460
vt 0.213765 0.172914
vt 0.193359 0.206069
vt 0.198787 0.211553
vt 0.196715 0.204195
vt 0.225210 0.192097
vt 0.219293 0.208057
vt 0.193359 0.192412
vt 0.204973 0.178867
vt 0.196017 0.215473
vt 0.221358 0.193343
vt 0.196650 0.193554
vt 0.144202 0.167688
vt 0.889200 0.207935
vt 0.078289 0.025166
vt 0.052939 0.298328
vt 0.236639 0.296465
vn -0.3294 -0.1400 -0.9337
vn 0.5449 0.5544 -0.6291
vn 0.6059 -0.0884 -0.7906
vn -0.3106 0.5621 -0.7665
vn -0.9850 -0.1567 -0.0721
vn -0.8238 0.5320 0.1958
vn -0.0281 -0.0360 0.9989
vn -0.1167 0.5940 0.7959
vn 0.7325 0.6339 0.2482
vn -0.9795 -0.1930 -0.0576
vn 0.9636 -0.0468 0.2632
vn 0.6076 -0.0895 -0.7891
vn -0.3319 -0.1187 -0.9358
vn -0.0903 -0.1424 0.9857
vn 0.9691 -0.0849 0.2315
vn -0.9893 -0.1412 -0.0355
vn 0.6847 -0.0618 -0.7262
vn 0.0279 -0.1480 0.9886
vn -0.2920 -0.0874 -0.9524
vn 0.9798 -0.0782 0.1841
vn -0.0022 -0.1498 0.9887
vn -0.2887 -0.1354 -0.9478
vn 0.9694 -0.1040 0.2224
vn -0.9808 -0.1860 -0.0588
vn 0.7004 -0.0605 -0.7112
vn -0.1835 -0.0495 0.9817
vn 0.9052 -0.0264 0.4240
vn -0.9965 -0.0828 -0.0105
vn 0.7928 0.1312 -0.5951
vn -0.4931 0.1586 -0.8554
vn -0.1805 -0.4841 0.8562
vn 0.6793 -0.7298 -0.0772
vn -0.8136 -0.5777 -0.0653
vn -0.5089 -0.2709 -0.8171
vn 0.5749 -0.0201 -0.8180
vn -0.4831 0.7479 -0.4552
vn 0.5311 0.8176 -0.2224
vn 0.6287 0.7555 -0.1842
vn -0.7525 0.6446 -0.1346
vn -0.2046 0.9312 -0.3015
vn -0.9641 -0.1993 0.1750
vn -0.7714 0.6359 0.0239
vn -0.4226 0.6927 0.5844
vn 0.3606 -0.1975 0.9115
vn 0.3175 0.6870 0.6535
vn 0.8625 -0.1753 0.4747
vn 0.6209 0.7695 0.1494
vn 0.6857 0.7277 -0.0163
vn 0.9632 0.0246 0.2677
vn -0.8998 -0.4200 -0.1179
vn -0.4515 -0.8918 0.0299
vn -0.4503 -0.7649 0.4606
vn -0.4853 -0.1367 0.8636
vn 0.3263 -0.8208 0.4687
vn 0.4131 -0.8936 0.1755
vn 0.5257 -0.8144 0.2455
vn -0.0869 -0.9950 0.0492
vn 0.6235 0.7687 0.1426
vn 0.0539 0.9985 -0.0012
vn 0.8623 -0.4149 0.2902
vn 0.1584 -0.9855 0.0606
vn -0.4916 -0.8635 -0.1128
vn -0.6319 0.7536 -0.1809
vn -0.9769 -0.0464 -0.2087
vn -0.3703 -0.7597 -0.5344
vn 0.8296 -0.5555 -0.0556
vn 0.9083 0.2739 0.3162
vn 0.4132 -0.8772 -0.2444
vn -0.9692 0.1759 -0.1722
vn 0.6158 0.5369 0.5766
vn -0.3906 -0.0523 -0.9190
vn 0.2914 -0.2441 -0.9249
vn 0.9824 -0.1147 -0.1475
vn -0.7076 0.0490 -0.7049
vn 0.9291 0.2610 0.2618
vn 0.8558 0.2838 -0.4324
vn 0.9510 0.2832 -0.1242
vn 0.7728 -0.4002 -0.4925
vn 0.3900 0.3980 -0.8303
vn 0.8315 0.4435 0.3344
vn -0.4315 0.4069 -0.8051
vn 0.7687 0.5025 -0.3956
vn 0.8179 0.5753 0.0049
vn -0.8521 0.4206 -0.3113
vn -0.5346 0.5693 -0.6246
vn 0.3146 0.5795 -0.7518
vn 0.5336 0.5786 0.6168
vn -0.9094 0.3676 0.1947
vn -0.5174 0.5084 -0.6883
vn 0.7369 0.6436 -0.2067
vn 0.7536 0.6518 0.0847
vn 0.3987 0.5121 0.7607
vn 0.3924 0.7057 -0.5899
vn 0.5684 0.5191 0.6383
vn -0.2257 0.9605 0.1625
vn -0.9519 0.2794 0.1253
vn -0.8819 -0.1402 -0.4501
vn -0.9290 0.3247 -0.1775
vn -0.5473 0.8270 0.1283
vn -0.7960 0.4725 0.3783
vn -0.0824 0.8572 0.5084
vn -0.1820 0.5906 0.7861
vn -0.4066 0.2951 0.8646
vn -0.3028 0.3277 0.8949
vn -0.0784 0.9815 0.1747
vn -0.0522 0.9986 -0.0072
vn 0.1363 0.9896 0.0451
vn 0.0081 0.9866 -0.1628
vn -0.2075 0.9727 0.1040
vn -0.1045 0.9944 0.0148
vn -0.0864 0.9962 -0.0114
vn -0.1031 0.9861 -0.1302
usemtl Warlock
s 1
f 2/1/1 3/2/2 1/3/3
f 4/4/4 5/5/5 6/6/6
f 6/7/6 7/8/7 8/9/8
f 7/8/7 10/10/9 8/9/8
f 10/11/9 1/3/3 3/2/2
f 2/1/1 13/12/10 5/5/5
f 9/13/11 11/14/12 1/3/3
f 1/3/3 12/15/13 2/1/1
f 5/16/5 14/17/14 7/8/7
f 9/18/11 14/17/14 15/19/15
f 12/15/13 18/20/16 13/12/10
f 15/21/15 16/22/17 11/14/12
f 13/23/10 19/24/18 14/17/14
f 11/14/12 17/25/19 12/15/13
f 15/19/15 19/24/18 20/26/20
f 18/27/16 24/28/21 19/24/18
f 16/22/17 22/29/22 17/25/19
f 20/26/20 24/28/21 25/30/23
f 17/25/19 23/31/24 18/20/16
f 20/32/20 21/33/25 16/22/17
f 25/30/23 29/34/26 30/35/27
f 22/29/22 28/36/28 23/31/24
f 25/37/23 26/38/29 21/33/25
f 23/39/24 29/34/26 24/28/21
f 21/33/25 27/40/30 22/29/22
f 30/35/27 31/41/31 32/42/32
f 29/34/26 33/43/33 31/41/31
f 28/36/28 34/44/34 33/45/33
f 27/40/30 35/46/35 34/44/34
f 30/47/27 35/46/35 26/38/29
f 32/42/32 31/41/31 33/43/33
f 32/48/32 33/45/33 34/44/34
f 35/46/35 32/48/32 34/44/34
s 2
f 37/49/36 38/50/37 36/51/38
f 37/49/36 41/52/39 39/53/40
f 41/52/39 42/54/41 43/55/42
f 42/54/41 45/56/43 43/55/42
f 45/56/43 46/57/44 47/58/45
f 47/58/45 48/59/46 49/60/47
f 48/59/46 51/61/48 49/60/47
f 38/50/37 50/62/49 36/51/38
f 40/63/50 53/64/51 42/65/41
f 42/65/41 54/66/52 44/67/53
f 44/67/53 55/68/54 46/69/44
f 48/70/46 55/68/54 56/71/55
f 48/70/46 57/72/56 50/73/49
f 55/68/54 53/64/51 56/71/55
f 52/74/57 56/71/55 53/64/51
f 36/51/38 58/75/58 104/76/59
f 36/51/38 60/77/60 58/75/58
f 57/72/56 60/78/60 50/73/49
f 52/74/57 62/79/61 57/72/56
f 40/63/50 61/80/62 52/74/57
f 40/81/50 59/82/63 63/83/64
f 63/84/64 64/85/65 61/80/62
f 60/77/60 67/86/66 66/87/67
f 62/79/61 67/88/66 60/78/60
f 61/80/62 69/89/68 62/79/61
f 63/83/64 59/82/63 96/90/69
f 66/87/67 68/91/70 58/75/58
f 64/85/65 70/92/71 93/93/72
f 69/89/68 72/94/73 67/88/66
f 64/85/65 74/95/74 70/92/71
f 66/87/67 72/96/73 73/97/75
f 72/98/73 76/99/76 77/100/77
f 71/101/78 91/102/79 76/99/76
f 73/103/75 77/104/77 78/105/80
f 74/106/74 75/107/81 70/108/71
f 77/100/77 81/109/82 82/110/83
f 79/111/84 80/112/85 75/107/81
f 76/99/76 94/113/86 81/109/82
f 78/105/80 82/114/83 83/115/87
f 84/116/88 85/117/89 80/112/85
f 82/110/83 86/118/90 87/119/91
f 83/115/87 87/120/91 88/121/92
f 81/109/82 95/122/93 86/118/90
f 73/103/75 90/123/94 68/124/70
f 78/105/80 83/115/87 90/123/94
f 95/122/93 80/112/85 85/117/89
f 93/125/72 75/107/81 91/102/79
f 94/113/86 75/107/81 80/112/85
f 86/118/90 95/122/93 92/126/95
f 85/117/89 89/127/96 92/126/95
f 87/119/91 86/118/90 92/126/95
f 95/122/93 85/117/89 92/126/95
f 88/121/92 87/120/91 92/128/95
f 65/129/97 96/90/69 98/130/98
f 74/131/74 98/132/98 79/133/84
f 59/82/63 97/134/99 98/130/98
f 98/132/98 100/135/100 79/133/84
f 58/75/58 103/136/101 104/76/59
f 102/137/102 97/138/99 103/139/101
f 102/137/102 84/140/88 100/135/100
f 101/141/103 88/121/92 99/142/104
f 92/128/95 89/143/96 99/142/104
f 59/82/63 103/136/101 97/134/99
f 90/123/94 103/139/101 68/124/70
f 83/115/87 102/137/102 90/123/94
f 101/141/103 89/143/96 84/140/88
f 88/121/92 92/128/95 99/142/104
f 37/49/36 36/51/38 104/76/59
f 59/82/63 37/49/36 104/76/59
f 84/140/88 79/133/84 100/135/100
f 69/89/68 64/85/65 93/93/72
f 71/144/78 69/89/68 93/93/72
f 65/129/97 63/83/64 96/90/69
f 41/145/39 106/146/105 39/147/40
f 47/148/45 109/149/106 45/150/43
f 51/151/48 105/152/107 112/153/108
f 43/154/42 107/155/109 41/145/39
f 49/156/47 110/157/110 47/148/45
f 38/158/37 106/146/105 105/152/107
f 43/154/42 109/149/106 108/159/111
f 49/156/47 112/153/108 111/160/112
f 74/161/74 65/129/97 98/130/98
f 96/90/69 59/82/63 98/130/98
f 58/75/58 60/77/60 66/87/67
s 1
f 8/9/8 10/10/9 4/4/4
f 2/1/1 4/4/4 3/2/2
f 4/4/4 2/1/1 5/5/5
f 6/7/6 5/16/5 7/8/7
f 7/8/7 9/18/11 10/10/9
f 10/11/9 9/13/11 1/3/3
f 2/1/1 12/15/13 13/12/10
f 9/13/11 15/21/15 11/14/12
f 1/3/3 11/14/12 12/15/13
f 5/16/5 13/23/10 14/17/14
f 9/18/11 7/8/7 14/17/14
f 12/15/13 17/25/19 18/20/16
f 15/21/15 20/32/20 16/22/17
f 13/23/10 18/27/16 19/24/18
f 11/14/12 16/22/17 17/25/19
f 15/19/15 14/17/14 19/24/18
f 18/27/16 23/39/24 24/28/21
f 16/22/17 21/33/25 22/29/22
f 20/26/20 19/24/18 24/28/21
f 17/25/19 22/29/22 23/31/24
f 20/32/20 25/37/23 21/33/25
f 25/30/23 24/28/21 29/34/26
f 22/29/22 27/40/30 28/36/28
f 25/37/23 30/47/27 26/38/29
f 23/39/24 28/162/28 29/34/26
f 21/33/25 26/38/29 27/40/30
f 30/35/27 29/34/26 31/41/31
f 29/34/26 28/162/28 33/43/33
f 28/36/28 27/40/30 34/44/34
f 27/40/30 26/38/29 35/46/35
f 30/47/27 32/48/32 35/46/35
s 2
f 37/49/36 39/53/40 38/50/37
f 37/49/36 40/81/50 41/52/39
f 41/52/39 40/81/50 42/54/41
f 42/54/41 44/163/53 45/56/43
f 45/56/43 44/163/53 46/57/44
f 47/58/45 46/57/44 48/59/46
f 48/59/46 50/62/49 51/61/48
f 38/50/37 51/61/48 50/62/49
f 40/63/50 52/74/57 53/64/51
f 42/65/41 53/64/51 54/66/52
f 44/67/53 54/66/52 55/68/54
f 48/70/46 46/69/44 55/68/54
f 48/70/46 56/71/55 57/72/56
f 55/68/54 54/66/52 53/64/51
f 52/74/57 57/72/56 56/71/55
f 36/51/38 50/62/49 60/77/60
f 57/72/56 62/79/61 60/78/60
f 52/74/57 61/80/62 62/79/61
f 40/63/50 63/84/64 61/80/62
f 40/81/50 37/49/36 59/82/63
f 63/84/64 65/164/97 64/85/65
f 62/79/61 69/89/68 67/88/66
f 61/80/62 64/85/65 69/89/68
f 66/87/67 73/97/75 68/91/70
f 69/89/68 71/144/78 72/94/73
f 64/85/65 65/164/97 74/95/74
f 66/87/67 67/86/66 72/96/73
f 72/98/73 71/101/78 76/99/76
f 71/101/78 93/125/72 91/102/79
f 73/103/75 72/165/73 77/104/77
f 74/106/74 79/111/84 75/107/81
f 77/100/77 76/99/76 81/109/82
f 79/111/84 84/116/88 80/112/85
f 76/99/76 91/102/79 94/113/86
f 78/105/80 77/104/77 82/114/83
f 84/116/88 89/127/96 85/117/89
f 82/110/83 81/109/82 86/118/90
f 83/115/87 82/114/83 87/120/91
f 81/109/82 94/113/86 95/122/93
f 73/103/75 78/105/80 90/123/94
f 95/122/93 94/113/86 80/112/85
f 93/125/72 70/108/71 75/107/81
f 94/113/86 91/102/79 75/107/81
f 98/132/98 97/138/99 100/135/100
f 58/75/58 68/91/70 103/136/101
f 102/137/102 100/135/100 97/138/99
f 102/137/102 101/141/103 84/140/88
f 101/141/103 83/115/87 88/121/92
f 59/82/63 104/76/59 103/136/101
f 90/123/94 102/137/102 103/139/101
f 83/115/87 101/141/103 102/137/102
f 101/141/103 99/142/104 89/143/96
f 41/145/39 107/155/109 106/146/105
f 47/148/45 110/157/110 109/149/106
f 51/151/48 38/158/37 105/152/107
f 43/154/42 108/159/111 107/155/109
f 49/156/47 111/160/112 110/157/110
f 38/158/37 39/147/40 106/146/105
f 43/154/42 45/150/43 109/149/106
f 49/156/47 51/151/48 112/153/108
s 1
f 3/2/2 4/4/4 10/10/9
f 6/6/6 8/9/8 4/4/4
