# Blender v2.79 (sub 0) OBJ File: 'staff.blend'
# www.blender.org
mtllib staff.mtl
o LowPoly_Warlock.001_Plane.000
v -0.037315 -1.138464 -0.003233
v -0.010740 -1.138464 0.012793
v 0.016427 -1.138464 -0.002209
v 0.017018 -1.138464 -0.033237
v -0.009557 -1.138464 -0.049263
v -0.036724 -1.138464 -0.034261
v -0.037315 0.373309 -0.003233
v -0.010740 0.373309 0.012793
v 0.016427 0.373309 -0.002209
v 0.017018 0.373309 -0.033237
v -0.009557 0.373309 -0.049263
v -0.036724 0.373309 -0.034261
v 0.004922 0.375481 0.041155
v 0.032089 0.375481 0.026153
v 0.037791 0.412578 0.100675
v 0.064957 0.412578 0.085673
v 0.062830 0.470847 0.145133
v 0.089236 0.470847 0.130551
v 0.074355 0.536214 0.166888
v 0.101521 0.536214 0.151886
v 0.072452 0.610857 0.163442
v 0.099619 0.610857 0.148440
v 0.060861 0.671612 0.142453
v 0.088028 0.671612 0.127451
v 0.044572 0.711641 0.110200
v 0.069373 0.711641 0.096504
v 0.021638 0.744749 0.068142
v 0.045996 0.744749 0.054691
v -0.008806 0.763355 0.010809
v 0.013650 0.763355 -0.001591
v -0.035345 0.760804 -0.039384
v -0.014723 0.760804 -0.050772
v -0.062801 0.737847 -0.094394
v -0.046722 0.737847 -0.103273
v -0.078194 0.443832 -0.118575
v -0.100129 0.505679 -0.180946
v -0.042150 0.416627 -0.047734
v -0.009130 0.415621 0.015708
v 0.020800 0.448267 0.069907
v 0.036686 0.502964 0.097789
v 0.042568 0.610372 0.109326
v 0.022476 0.685897 0.070187
v -0.015864 0.731875 -0.001972
v -0.057676 0.726765 -0.085113
v -0.072376 0.699304 -0.130688
v -0.041597 0.726765 -0.093992
v 0.006592 0.731875 -0.014372
v 0.047277 0.685897 0.056491
v 0.069734 0.610372 0.094324
v 0.063092 0.502964 0.083207
v 0.047967 0.448267 0.054905
v 0.018036 0.415621 0.000706
v -0.018115 0.416627 -0.061006
v -0.024631 0.379527 -0.072804
v -0.048665 0.379527 -0.059532
v -0.045503 0.398555 -0.108548
v -0.067824 0.398555 -0.096222
v -0.061799 0.422261 -0.134376
v -0.081049 0.422261 -0.123746
v -0.077318 0.453477 -0.158139
v -0.092947 0.453477 -0.149508
v -0.058943 0.443832 -0.129205
v 0.036102 0.381959 -0.013074
v 0.010118 0.382839 -0.060128
v 0.051764 0.384951 0.015288
v 0.081898 0.420118 0.069858
v 0.100566 0.479199 0.105875
v 0.114809 0.542763 0.128414
v 0.113993 0.610729 0.127978
v 0.101086 0.665005 0.104991
v 0.081477 0.704818 0.075980
v 0.061884 0.737455 0.041774
v 0.028376 0.756501 -0.013355
v -0.001316 0.752642 -0.061785
v -0.033767 0.735014 -0.107331
v -0.031262 0.729598 -0.102795
v 0.024392 0.738729 -0.020570
v 0.071095 0.692721 0.057178
v 0.099958 0.610500 0.102561
v 0.090011 0.494612 0.086761
v 0.074349 0.438581 0.056188
v 0.037711 0.401181 -0.010159
v -0.000709 0.402773 -0.070618
v -0.007224 0.387958 -0.082417
v -0.029338 0.406385 -0.117475
v -0.047857 0.429014 -0.142075
v -0.066000 0.458959 -0.164389
v -0.045001 0.432735 -0.136904
v -0.092164 0.470638 -0.148091
v -0.076536 0.470638 -0.156722
v -0.065217 0.462610 -0.162972
v -0.059616 0.426077 -0.081359
v -0.037296 0.426077 -0.093685
v -0.021131 0.413211 -0.102611
v 0.028823 0.382287 -0.039756
v -0.033765 0.415621 -0.028902
v -0.006598 0.415621 -0.043904
v 0.013077 0.400571 -0.054769
v -0.023251 0.415621 -0.009864
v 0.003915 0.415621 -0.024866
v 0.023590 0.400803 -0.035730
v 0.002316 0.421561 0.036435
v 0.029482 0.421561 0.021433
v 0.049157 0.407930 0.010568
v 0.044605 0.560874 0.113015
v 0.071771 0.560874 0.098013
v 0.099338 0.554268 0.101439
v 0.035891 0.645432 0.097418
v 0.063058 0.645432 0.082416
v 0.090538 0.648048 0.085504
v 0.010622 0.709201 0.047232
v 0.034980 0.709201 0.033781
v 0.056340 0.714398 0.031735
v -0.041095 0.734754 -0.049797
v -0.020473 0.734754 -0.061185
v -0.003474 0.741108 -0.065695
v -0.030353 0.385257 0.024698
v -0.055961 0.385192 -0.021674
v -0.015909 0.388968 0.050855
v 0.012629 0.423277 0.102534
v 0.034997 0.479769 0.140826
v 0.045363 0.543611 0.161809
v 0.044252 0.610725 0.159798
v 0.034636 0.665156 0.142430
v 0.020218 0.704612 0.109392
v 0.001076 0.736460 0.073203
v -0.027040 0.756013 0.016989
v -0.051890 0.754858 -0.033349
v -0.073425 0.735139 -0.085567
v -0.093135 0.438384 -0.112028
v -0.061671 0.406568 -0.041128
v -0.029653 0.403674 0.025967
v 0.005825 0.437568 0.090213
v 0.025506 0.494042 0.123639
v 0.030632 0.610504 0.135134
v 0.010188 0.692926 0.091229
v -0.030806 0.739217 0.010170
v -0.070806 0.729474 -0.080822
v -0.064653 0.389587 -0.046529
v -0.081983 0.406364 -0.082900
v -0.094548 0.427709 -0.114587
v -0.104261 0.458536 -0.142715
v -0.103939 0.465579 -0.142134
v -0.078433 0.418268 -0.076471
v -0.054664 0.403739 -0.019325
v -0.044188 0.401453 0.002190
v -0.016989 0.408073 0.048898
v 0.033461 0.553477 0.140257
v 0.021980 0.651888 0.119605
v -0.004803 0.717489 0.062044
v -0.055016 0.740700 -0.039008
v -0.045363 0.382286 0.003504
v -0.059900 0.544957 0.010090
v 0.040307 0.544957 -0.045246
v -0.037854 0.544957 -0.071440
v -0.008504 0.653056 -0.018291
v -0.008504 0.436859 -0.018291
v 0.020846 0.544957 0.034858
vt 0.576048 0.074206
vt 0.504265 0.074206
vt 0.576048 0.032762
vt 0.579232 0.273051
vt 0.579231 0.199600
vt 0.611037 0.217963
vt 0.666184 0.440776
vt 0.658451 0.716978
vt 0.656194 0.440858
vt 0.646203 0.440939
vt 0.638466 0.717141
vt 0.636213 0.441021
vt 0.686166 0.440613
vt 0.678435 0.716814
vt 0.676175 0.440694
vt 0.648459 0.717059
vt 0.696156 0.440531
vt 0.688427 0.716733
vt 0.668443 0.716896
vt 0.200297 0.336294
vt 0.190633 0.321359
vt 0.203144 0.324338
vt 0.159705 0.329412
vt 0.160220 0.317141
vt 0.131173 0.330198
vt 0.129668 0.318989
vt 0.103151 0.324634
vt 0.106747 0.335798
vt 0.076598 0.336741
vt 0.063582 0.360937
vt 0.055450 0.351906
vt 0.049762 0.375137
vt 0.041369 0.368256
vt 0.027902 0.386862
vt 0.025949 0.414256
vt 0.016831 0.410765
vt 0.019561 0.433825
vt 0.010888 0.432035
vt 0.015735 0.456462
vt 0.009138 0.456843
vt 0.384456 0.036266
vt 0.364054 0.043261
vt 0.368796 0.029013
vt 0.376564 0.049216
vt 0.355852 0.063318
vt 0.366279 0.068408
vt 0.349214 0.079266
vt 0.358080 0.083447
vt 0.342909 0.095892
vt 0.349508 0.098970
vt 0.334509 0.124099
vt 0.330893 0.341300
vt 0.312733 0.355345
vt 0.321937 0.337194
vt 0.310704 0.225789
vt 0.329959 0.234206
vt 0.319752 0.239587
vt 0.330300 0.309992
vt 0.335711 0.329578
vt 0.326357 0.326401
vt 0.295451 0.381202
vt 0.300323 0.384729
vt 0.287745 0.397817
vt 0.305750 0.203639
vt 0.304997 0.219144
vt 0.297612 0.211484
vt 0.342811 0.279544
vt 0.331727 0.297621
vt 0.331425 0.280579
vt 0.308974 0.374855
vt 0.302674 0.370233
vt 0.359980 0.119945
vt 0.371834 0.099391
vt 0.378688 0.108340
vt 0.397748 0.093776
vt 0.404336 0.068885
vt 0.413915 0.080538
vt 0.327997 0.260006
vt 0.016811 0.475609
vt 0.025807 0.436962
vt 0.020408 0.456209
vt 0.332092 0.023870
vt 0.345110 0.033878
vt 0.332012 0.034935
vt 0.022852 0.456175
vt 0.027074 0.458472
vt 0.353367 0.040472
vt 0.132897 0.340801
vt 0.108328 0.345602
vt 0.330628 0.055809
vt 0.338625 0.076395
vt 0.329410 0.079124
vt 0.043772 0.396749
vt 0.032463 0.417798
vt 0.028714 0.440437
vt 0.043746 0.427359
vt 0.033677 0.445280
vt 0.337090 0.095281
vt 0.185235 0.341615
vt 0.159244 0.338489
vt 0.051786 0.401833
vt 0.066584 0.398540
vt 0.057085 0.408397
vt 0.069607 0.368600
vt 0.055825 0.382372
vt 0.329646 0.099750
vt 0.335356 0.095766
vt 0.076967 0.375721
vt 0.094096 0.376977
vt 0.081671 0.385380
vt 0.346854 0.061562
vt 0.082564 0.347052
vt 0.086441 0.355328
vt 0.109937 0.357686
vt 0.135088 0.362081
vt 0.112005 0.368561
vt 0.355949 0.025688
vt 0.133159 0.351050
vt 0.159997 0.358367
vt 0.037153 0.392483
vt 0.182436 0.350335
vt 0.187950 0.362793
vt 0.178446 0.360078
vt 0.341393 0.078145
vt 0.188204 0.333028
vt 0.197436 0.345975
vt 0.355812 0.111904
vt 0.341985 0.054338
vt 0.389008 0.083575
vt 0.364844 0.012532
vt 0.356205 0.010750
vt 0.209606 0.345016
vt 0.345498 0.010914
vt 0.331053 0.012200
vt 0.412627 0.061125
vt 0.423224 0.074326
vt 0.192439 0.352700
vt 0.198668 0.367832
vt 0.432476 0.066957
vt 0.346482 0.022527
vt 0.203379 0.358025
vt 0.158737 0.347379
vt 0.313664 0.211218
vt 0.089697 0.365487
vt 0.060828 0.390631
vt 0.342653 0.298278
vt 0.037726 0.422709
vt 0.320187 0.359984
vt 0.372666 0.296197
vt 0.362496 0.273305
vt 0.372684 0.270410
vt 0.354337 0.105803
vt 0.375004 0.072854
vt 0.338915 0.198406
vt 0.324046 0.197476
vt 0.330475 0.190252
vt 0.324041 0.383098
vt 0.332336 0.365858
vt 0.338012 0.369971
vt 0.368623 0.317874
vt 0.362897 0.296567
vt 0.364455 0.087887
vt 0.327536 0.211015
vt 0.320016 0.218502
vt 0.395110 0.060054
vt 0.355094 0.221703
vt 0.332080 0.205297
vt 0.304354 0.389947
vt 0.319446 0.378955
vt 0.350114 0.313749
vt 0.340709 0.311940
vt 0.320128 0.203520
vt 0.314435 0.377733
vt 0.361562 0.334692
vt 0.359820 0.315648
vt 0.339412 0.229440
vt 0.353980 0.102783
vt 0.348744 0.253875
vt 0.338208 0.257162
vt 0.366988 0.092370
vt 0.356729 0.249965
vt 0.346113 0.226278
vt 0.353016 0.297839
vt 0.305539 0.394401
vt 0.403502 0.050674
vt 0.421982 0.053743
vt 0.351987 0.351953
vt 0.353144 0.332291
vt 0.344688 0.331341
vt 0.326488 0.363398
vt 0.366797 0.246792
vt 0.387014 0.054710
vt 0.303597 0.387695
vt 0.353648 0.276641
vt 0.345331 0.348134
vt 0.338230 0.344796
vt 0.399927 0.029051
vt 0.396159 0.044090
vt 0.319794 0.186616
vt 0.316903 0.190732
vt 0.380994 0.076444
vt 0.412662 0.041574
vt 0.312500 0.196177
vt 0.615537 0.704148
vt 0.567412 0.646771
vt 0.615537 0.629846
vt 0.366289 0.695942
vt 0.411963 0.639952
vt 0.436710 0.682502
vt 0.366289 0.625054
vt 0.543371 0.690375
vt 0.366289 0.696165
vt 0.411963 0.752155
vt 0.366289 0.767053
vt 0.615537 0.704379
vt 0.567412 0.761756
vt 0.543371 0.718152
vt 0.436710 0.709605
vt 0.615537 0.778682
vt 0.540157 0.012040
vt 0.540157 0.094928
vt 0.504265 0.032762
vt 0.611037 0.254688
vt 0.547426 0.254688
vt 0.547426 0.217963
vt 0.698419 0.716651
vt 0.207759 0.351332
vt 0.406200 0.033291
vn -0.6937 -0.6100 0.3830
vn 0.0151 -0.6100 -0.7923
vn -0.0151 -0.6100 0.7923
vn 0.8225 -0.4673 0.3242
vn -0.8567 -0.3619 -0.3676
vn -0.8609 -0.2069 0.4647
vn -0.6785 -0.6100 -0.4092
vn 0.8350 -0.2829 -0.4718
vn 0.6937 -0.6100 -0.3830
vn 0.6785 -0.6100 0.4092
vn -0.2044 -0.4250 0.8818
vn 0.1109 -0.3966 -0.9113
vn -0.0839 -0.9301 0.3576
vn 0.4856 -0.7490 0.4507
vn 0.0496 -0.7385 0.6724
vn 0.6782 -0.4844 0.5525
vn 0.0962 -0.4826 0.8705
vn 0.1599 -0.1520 0.9753
vn 0.7050 -0.1628 0.6903
vn 0.1881 0.1954 0.9625
vn 0.6308 0.5176 0.5781
vn 0.1592 0.5047 0.8484
vn 0.5455 0.7227 0.4242
vn 0.0683 0.7251 0.6852
vn 0.0078 0.8767 0.4808
vn 0.2142 0.9767 0.0154
vn -0.1088 0.9744 0.1967
vn 0.0744 0.9609 -0.2665
vn -0.2220 0.9706 -0.0931
vn -0.1393 0.8163 -0.5605
vn -0.3912 0.8155 -0.4264
vn 0.0078 -0.9300 -0.3674
vn -0.3560 -0.9196 -0.1656
vn -0.0960 -0.8426 -0.5299
vn -0.4307 -0.8371 -0.3373
vn -0.1948 -0.7252 -0.6605
vn -0.4551 -0.7234 -0.5192
vn -0.2770 -0.5889 -0.7592
vn -0.4978 -0.5878 -0.6377
vn -0.2813 0.8009 -0.5285
vn -0.4473 -0.8256 -0.3441
vn 0.0642 -0.9578 -0.2802
vn -0.0574 -0.8322 -0.5514
vn 0.0443 0.8780 -0.4765
vn -0.6027 0.6559 -0.4544
vn -0.0410 0.6484 -0.7602
vn -0.1368 -0.4637 -0.8753
vn -0.5846 -0.6560 -0.4774
vn -0.0955 -0.6589 -0.7461
vn 0.2804 -0.9330 0.2255
vn 0.0493 -0.9335 0.3551
vn -0.3763 -0.6222 -0.6865
vn -0.2182 0.9683 0.1214
vn 0.1871 0.9513 -0.2448
vn 0.2496 0.9582 -0.1395
vn -0.7576 0.0801 -0.6477
vn -0.1148 -0.2328 -0.9657
vn -0.1491 0.1042 -0.9833
vn -0.0997 -0.9843 0.1456
vn 0.1861 -0.9825 -0.0094
vn 0.5144 0.7255 0.4572
vn 0.1029 0.8448 0.5251
vn 0.4783 0.8207 0.3124
vn 0.4017 0.9079 0.1196
vn -0.1438 0.9640 0.2235
vn 0.3214 0.9463 -0.0343
vn -0.1151 0.3700 -0.9218
vn 0.6143 0.5700 -0.5456
vn 0.4552 0.4274 -0.7811
vn 0.2664 0.9536 -0.1406
vn 0.7444 0.4948 -0.4483
vn 0.7134 -0.6076 -0.3491
vn 0.5909 -0.5276 -0.6102
vn 0.9677 -0.2402 -0.0757
vn 0.9958 -0.0855 0.0333
vn 0.8477 0.4536 -0.2750
vn 0.8275 0.5405 -0.1522
vn 0.7119 0.6075 -0.3523
vn 0.7278 -0.5154 -0.4523
vn 0.3557 -0.2773 -0.8925
vn 0.7864 -0.5767 -0.2212
vn 0.8979 -0.4396 -0.0221
vn 0.6229 -0.4088 -0.6670
vn 0.9515 0.3001 -0.0667
vn 0.9036 0.4073 -0.1327
vn 0.8272 0.4754 -0.2994
vn 0.6032 -0.1918 -0.7742
vn 0.5447 -0.4527 -0.7059
vn 0.6561 0.1972 0.7284
vn 0.9878 0.1234 0.0945
vn 0.5960 0.0641 -0.8004
vn 0.6007 -0.5114 -0.6146
vn 0.6238 0.1569 -0.7656
vn 0.3820 0.8807 0.2799
vn 0.6883 0.4360 -0.5797
vn 0.4653 -0.3828 -0.7980
vn 0.2919 -0.9447 0.1493
vn 0.7798 -0.5475 -0.3035
vn 0.1838 0.7301 0.6581
vn 0.8186 0.4687 -0.3319
vn -0.0411 0.9230 0.3826
vn 0.8424 -0.3211 -0.4327
vn 0.7252 0.5864 -0.3607
vn -0.2043 0.9702 0.1304
vn 0.7535 0.4434 -0.4853
vn 0.6959 0.5076 -0.5079
vn 0.6671 0.2784 -0.6910
vn -0.2720 0.9620 0.0223
vn 0.6553 -0.0823 -0.7508
vn 0.6238 -0.2887 -0.7263
vn -0.7164 -0.2266 -0.6599
vn 0.6776 -0.4903 -0.5481
vn -0.2744 -0.9577 -0.0867
vn -0.5547 -0.0668 0.8293
vn -0.7102 0.5000 0.4956
vn -0.8843 -0.4476 0.1330
vn -0.6997 -0.4969 0.5133
vn -0.6782 0.6006 0.4234
vn -0.5276 0.1055 0.8429
vn -0.9064 -0.4200 -0.0443
vn -0.8572 0.4287 0.2852
vn -0.4280 0.8769 -0.2188
vn -0.7479 0.5252 0.4060
vn -0.6518 -0.5126 0.5588
vn -0.9058 0.4214 -0.0443
vn -0.7528 0.6213 0.2172
vn -0.9781 -0.1931 0.0768
vn -0.6579 -0.4584 -0.5975
vn -0.7720 0.5047 0.3864
vn -0.7662 -0.5209 0.3763
vn -0.5339 0.2896 0.7944
vn -0.9340 0.3103 0.1767
vn -0.9317 -0.3122 -0.1854
vn -0.9781 0.1598 0.1332
vn -0.7277 0.3705 -0.5771
vn -0.6442 0.4996 0.5792
vn -0.5896 -0.2333 0.7732
vn -0.5842 -0.3873 0.7132
vn -0.9918 -0.0981 0.0822
vn -0.7793 0.5077 0.3672
vn -0.5986 0.4117 0.6871
vn -0.9492 -0.2827 0.1376
vn -0.8247 -0.4841 0.2922
vn -0.8431 -0.5010 0.1953
vn -0.6704 -0.6150 0.4150
vn -0.9922 0.0371 0.1186
vn -0.6034 0.5180 0.6063
vn -0.8949 -0.4069 0.1832
vn -0.8524 -0.4663 0.2366
vn -0.7993 -0.3909 0.4563
vn -0.6877 0.4977 0.5285
vn -0.7602 0.4947 0.4211
vn -0.8992 0.3637 -0.2431
vn -0.2732 -0.3637 0.8906
vn 0.9084 -0.3551 0.2207
vn 0.2970 0.3551 -0.8864
vn 0.9084 0.3551 0.2207
vn 0.2970 -0.3551 -0.8864
vn -0.2732 0.3637 0.8906
vn -0.8992 -0.3637 -0.2431
usemtl Warlock
s 1
f 1/1/1 5/2/2 2/3/3
s 2
f 9/4/4 12/5/5 7/6/6
s 1
f 1/7/1 12/8/5 6/9/7
f 5/10/2 10/11/8 4/12/9
f 3/13/10 8/14/11 2/15/3
f 6/9/7 11/16/12 5/10/2
f 4/17/9 9/18/4 3/13/10
f 2/15/3 7/19/6 1/7/1
s 3
f 9/20/4 13/21/13 8/22/11
f 13/21/13 16/23/14 15/24/15
f 15/24/15 18/25/16 17/26/17
f 18/25/16 19/27/18 17/26/17
f 20/28/19 21/29/20 19/27/18
f 21/29/20 24/30/21 23/31/22
f 23/31/22 26/32/23 25/33/24
f 26/32/23 27/34/25 25/33/24
f 27/34/25 30/35/26 29/36/27
f 29/36/27 32/37/28 31/38/29
f 31/38/29 34/39/30 33/40/31
f 12/41/5 54/42/32 11/43/12
f 55/44/33 56/45/34 54/42/32
f 57/46/35 58/47/36 56/45/34
f 59/48/37 60/49/38 58/47/36
f 60/49/38 61/50/39 36/51/40
f 111/52/41 47/53/42 112/54/43
f 103/55/44 39/56/45 51/57/46
f 109/58/47 42/59/48 48/60/49
f 46/61/50 44/62/51 45/63/52
f 99/64/53 52/65/54 100/66/55
f 105/67/56 49/68/57 106/69/58
f 114/70/59 46/61/50 115/71/60
f 90/72/61 35/73/62 62/74/63
f 93/75/64 37/76/65 53/77/66
f 39/56/45 50/78/67 51/57/46
f 33/40/31 34/39/30 45/79/52
f 34/39/30 74/80/68 75/81/69
f 97/82/70 83/83/71 53/84/66
f 45/79/52 76/85/72 46/86/50
f 56/45/34 84/87/73 54/42/32
f 20/28/19 67/88/74 68/89/75
f 93/90/64 88/91/76 62/92/63
f 30/35/26 72/93/77 73/94/78
f 45/79/52 34/39/30 75/81/69
f 116/95/79 47/96/42 115/97/60
f 60/49/38 36/51/40 87/98/80
f 16/23/14 65/99/81 66/100/82
f 113/101/83 48/102/49 112/103/43
f 26/32/23 70/104/84 71/105/85
f 90/106/61 91/107/86 36/51/40
f 110/108/87 49/109/57 109/110/47
f 58/47/36 85/111/88 56/45/34
f 22/112/89 68/89/75 69/113/90
f 32/37/28 73/94/78 74/80/68
f 107/114/91 50/115/67 106/116/58
f 11/43/12 84/87/73 64/117/92
f 16/23/14 67/88/74 18/25/16
f 80/118/93 51/119/46 50/115/67
f 28/120/94 71/105/85 72/93/77
f 104/121/95 52/122/54 103/123/44
f 60/49/38 86/124/96 58/47/36
f 14/125/97 63/126/98 65/99/81
f 24/30/21 69/113/90 70/104/84
f 62/92/63 91/107/86 90/106/61
f 36/51/40 89/127/99 90/72/61
f 87/98/80 36/51/40 91/107/86
f 87/98/80 88/91/76 86/124/96
f 53/84/66 94/128/100 93/90/64
f 62/74/63 92/129/101 93/75/64
f 85/111/88 88/91/76 94/128/100
f 84/87/73 94/128/100 83/83/71
f 10/130/8 64/117/92 95/131/102
f 10/132/8 63/126/98 9/20/4
f 101/133/103 97/82/70 100/134/55
f 53/77/66 96/135/104 97/136/70
f 82/137/105 100/138/55 52/122/54
f 96/135/104 100/139/55 97/136/70
f 64/117/92 83/83/71 98/140/106
f 95/131/102 98/140/106 101/133/103
f 63/126/98 101/141/103 82/137/105
f 81/142/107 103/123/44 51/119/46
f 38/143/108 103/55/44 52/65/54
f 65/99/81 82/137/105 104/121/95
f 66/100/82 104/121/95 81/142/107
f 67/88/74 81/142/107 80/118/93
f 79/144/109 106/116/58 49/109/57
f 50/78/67 105/67/56 106/69/58
f 68/89/75 80/118/93 107/114/91
f 69/113/90 107/114/91 79/144/109
f 78/145/110 109/110/47 48/102/49
f 41/146/111 109/58/47 49/68/57
f 70/104/84 79/144/109 110/108/87
f 71/105/85 110/108/87 78/145/110
f 77/147/112 112/103/43 47/96/42
f 48/60/49 111/52/41 112/54/43
f 72/93/77 78/145/110 113/101/83
f 73/94/78 113/101/83 77/147/112
f 76/85/72 115/97/60 46/86/50
f 43/148/113 115/71/60 47/53/42
f 74/80/68 77/147/112 116/95/79
f 75/81/69 116/95/79 76/85/72
f 76/85/72 45/79/52 75/81/69
f 21/149/20 122/150/114 19/151/18
f 36/51/40 143/152/115 89/127/99
f 55/44/33 140/153/116 57/46/35
f 13/154/13 117/155/117 8/156/11
f 31/157/29 127/158/118 29/159/27
f 23/160/22 123/161/119 21/149/20
f 143/152/115 35/73/62 89/127/99
f 57/46/35 141/162/120 59/48/37
f 38/143/108 147/163/121 102/164/122
f 92/129/101 131/165/123 37/76/65
f 15/166/15 119/167/124 13/154/13
f 31/157/29 129/168/125 128/169/126
f 41/146/111 149/170/127 108/171/128
f 99/64/53 132/172/129 38/143/108
f 43/148/113 151/173/130 114/70/59
f 131/165/123 96/135/104 37/76/65
f 25/174/24 124/175/131 23/160/22
f 102/164/122 133/176/132 39/56/45
f 61/50/39 141/162/120 142/177/133
f 39/56/45 134/178/134 40/179/135
f 130/180/136 92/129/101 35/73/62
f 15/166/15 121/181/137 120/182/138
f 105/67/56 135/183/139 41/146/111
f 33/184/31 45/63/52 129/168/125
f 36/51/40 61/50/39 142/177/133
f 145/185/140 99/186/53 96/135/104
f 27/187/25 125/188/141 25/174/24
f 108/171/128 136/189/142 42/59/48
f 111/52/41 137/190/143 43/148/113
f 19/151/18 121/181/137 17/191/17
f 12/41/5 139/192/144 55/44/33
f 114/70/59 138/193/145 44/62/51
f 40/179/135 148/194/146 105/67/56
f 29/159/27 126/195/147 27/187/25
f 42/59/48 150/196/148 111/52/41
f 44/62/51 138/193/145 45/63/52
f 7/197/6 118/198/149 12/41/5
f 7/199/6 117/155/117 152/200/150
f 36/51/40 142/177/133 143/152/115
f 142/177/133 130/180/136 143/152/115
f 144/201/151 141/162/120 140/153/116
f 144/201/151 139/192/144 131/165/123
f 118/198/149 131/165/123 139/192/144
f 118/198/149 146/202/152 145/185/140
f 146/203/152 117/155/117 132/172/129
f 119/167/124 132/172/129 117/155/117
f 120/182/138 147/163/121 119/167/124
f 121/181/137 133/176/132 120/182/138
f 122/150/114 134/178/134 121/181/137
f 123/161/119 148/194/146 122/150/114
f 124/175/131 135/183/139 123/161/119
f 125/188/141 149/170/127 124/175/131
f 126/195/147 136/189/142 125/188/141
f 127/158/118 150/196/148 126/195/147
f 128/169/126 137/190/143 127/158/118
f 129/168/125 151/173/130 128/169/126
f 138/193/145 129/168/125 45/63/52
s off
f 156/204/153 155/205/153 153/206/153
f 157/207/154 158/208/154 153/209/154
f 158/208/155 157/207/155 154/210/155
f 155/205/156 156/204/156 154/211/156
f 156/212/157 158/213/157 154/214/157
f 157/215/158 155/216/158 154/217/158
f 158/213/159 156/212/159 153/218/159
f 155/216/160 157/215/160 153/219/160
s 1
f 3/220/10 2/3/3 5/2/2
f 1/1/1 6/221/7 5/2/2
f 5/2/2 4/222/9 3/220/10
s 2
f 7/6/6 8/223/11 9/4/4
f 9/4/4 10/224/8 11/225/12
f 11/225/12 12/5/5 9/4/4
s 1
f 1/7/1 7/19/6 12/8/5
f 5/10/2 11/16/12 10/11/8
f 3/13/10 9/18/4 8/14/11
f 6/9/7 12/8/5 11/16/12
f 4/17/9 10/226/8 9/18/4
f 2/15/3 8/14/11 7/19/6
s 3
f 9/20/4 14/125/97 13/21/13
f 13/21/13 14/125/97 16/23/14
f 15/24/15 16/23/14 18/25/16
f 18/25/16 20/28/19 19/27/18
f 20/28/19 22/112/89 21/29/20
f 21/29/20 22/112/89 24/30/21
f 23/31/22 24/30/21 26/32/23
f 26/32/23 28/120/94 27/34/25
f 27/34/25 28/120/94 30/35/26
f 29/36/27 30/35/26 32/37/28
f 31/38/29 32/37/28 34/39/30
f 12/41/5 55/44/33 54/42/32
f 55/44/33 57/46/35 56/45/34
f 57/46/35 59/48/37 58/47/36
f 59/48/37 61/50/39 60/49/38
f 111/52/41 43/148/113 47/53/42
f 103/55/44 102/164/122 39/56/45
f 109/58/47 108/171/128 42/59/48
f 99/64/53 38/143/108 52/65/54
f 105/67/56 41/146/111 49/68/57
f 114/70/59 44/62/51 46/61/50
f 90/72/61 89/127/99 35/73/62
f 93/75/64 92/129/101 37/76/65
f 39/56/45 40/179/135 50/78/67
f 34/39/30 32/37/28 74/80/68
f 97/82/70 98/140/106 83/83/71
f 56/45/34 85/111/88 84/87/73
f 20/28/19 18/25/16 67/88/74
f 93/90/64 94/128/100 88/91/76
f 30/35/26 28/120/94 72/93/77
f 116/95/79 77/147/112 47/96/42
f 16/23/14 14/125/97 65/99/81
f 113/101/83 78/145/110 48/102/49
f 26/32/23 24/30/21 70/104/84
f 110/108/87 79/144/109 49/109/57
f 58/47/36 86/124/96 85/111/88
f 22/112/89 20/28/19 68/89/75
f 32/37/28 30/35/26 73/94/78
f 107/114/91 80/118/93 50/115/67
f 11/43/12 54/42/32 84/87/73
f 16/23/14 66/100/82 67/88/74
f 80/118/93 81/142/107 51/119/46
f 28/120/94 26/32/23 71/105/85
f 104/121/95 82/137/105 52/122/54
f 60/49/38 87/98/80 86/124/96
f 14/125/97 9/20/4 63/126/98
f 24/30/21 22/112/89 69/113/90
f 62/92/63 88/91/76 91/107/86
f 87/98/80 91/107/86 88/91/76
f 53/84/66 83/83/71 94/128/100
f 62/74/63 35/73/62 92/129/101
f 85/111/88 86/124/96 88/91/76
f 84/87/73 85/111/88 94/128/100
f 10/130/8 11/43/12 64/117/92
f 10/132/8 95/227/102 63/126/98
f 101/133/103 98/140/106 97/82/70
f 53/77/66 37/76/65 96/135/104
f 82/137/105 101/141/103 100/138/55
f 96/135/104 99/186/53 100/139/55
f 64/117/92 84/87/73 83/83/71
f 95/131/102 64/117/92 98/140/106
f 63/126/98 95/227/102 101/141/103
f 81/142/107 104/121/95 103/123/44
f 38/143/108 102/164/122 103/55/44
f 65/99/81 63/126/98 82/137/105
f 66/100/82 65/99/81 104/121/95
f 67/88/74 66/100/82 81/142/107
f 79/144/109 107/114/91 106/116/58
f 50/78/67 40/179/135 105/67/56
f 68/89/75 67/88/74 80/118/93
f 69/113/90 68/89/75 107/114/91
f 78/145/110 110/108/87 109/110/47
f 41/146/111 108/171/128 109/58/47
f 70/104/84 69/113/90 79/144/109
f 71/105/85 70/104/84 110/108/87
f 77/147/112 113/101/83 112/103/43
f 48/60/49 42/59/48 111/52/41
f 72/93/77 71/105/85 78/145/110
f 73/94/78 72/93/77 113/101/83
f 76/85/72 116/95/79 115/97/60
f 43/148/113 114/70/59 115/71/60
f 74/80/68 73/94/78 77/147/112
f 75/81/69 74/80/68 116/95/79
f 21/149/20 123/161/119 122/150/114
f 55/44/33 139/192/144 140/153/116
f 13/154/13 119/167/124 117/155/117
f 31/157/29 128/169/126 127/158/118
f 23/160/22 124/175/131 123/161/119
f 143/152/115 130/180/136 35/73/62
f 57/46/35 140/153/116 141/162/120
f 38/143/108 132/172/129 147/163/121
f 92/129/101 144/201/151 131/165/123
f 15/166/15 120/182/138 119/167/124
f 31/157/29 33/184/31 129/168/125
f 41/146/111 135/183/139 149/170/127
f 99/64/53 146/203/152 132/172/129
f 43/148/113 137/190/143 151/173/130
f 131/165/123 145/185/140 96/135/104
f 25/174/24 125/188/141 124/175/131
f 102/164/122 147/163/121 133/176/132
f 61/50/39 59/48/37 141/162/120
f 39/56/45 133/176/132 134/178/134
f 130/180/136 144/201/151 92/129/101
f 15/166/15 17/191/17 121/181/137
f 105/67/56 148/194/146 135/183/139
f 145/185/140 146/202/152 99/186/53
f 27/187/25 126/195/147 125/188/141
f 108/171/128 149/170/127 136/189/142
f 111/52/41 150/196/148 137/190/143
f 19/151/18 122/150/114 121/181/137
f 12/41/5 118/198/149 139/192/144
f 114/70/59 151/173/130 138/193/145
f 40/179/135 134/178/134 148/194/146
f 29/159/27 127/158/118 126/195/147
f 42/59/48 136/189/142 150/196/148
f 7/197/6 152/228/150 118/198/149
f 7/199/6 8/156/11 117/155/117
f 142/177/133 141/162/120 130/180/136
f 144/201/151 130/180/136 141/162/120
f 144/201/151 140/153/116 139/192/144
f 118/198/149 145/185/140 131/165/123
f 118/198/149 152/228/150 146/202/152
f 146/203/152 152/200/150 117/155/117
f 119/167/124 147/163/121 132/172/129
f 120/182/138 133/176/132 147/163/121
f 121/181/137 134/178/134 133/176/132
f 122/150/114 148/194/146 134/178/134
f 123/161/119 135/183/139 148/194/146
f 124/175/131 149/170/127 135/183/139
f 125/188/141 136/189/142 149/170/127
f 126/195/147 150/196/148 136/189/142
f 127/158/118 137/190/143 150/196/148
f 128/169/126 151/173/130 137/190/143
f 129/168/125 138/193/145 151/173/130
